<?xml version="1.0" encoding="utf-8"?>
<!-- Generator: Adobe Illustrator 24.0.1, SVG Export Plug-In . SVG Version: 6.00 Build 0)  -->
<svg version="1.1" id="illustration" xmlns="http://www.w3.org/2000/svg" xmlns:xlink="http://www.w3.org/1999/xlink" x="0px"
	 y="0px" viewBox="0 0 600 400" style="enable-background:new 0 0 600 400;" xml:space="preserve">
<style type="text/css">
	.st0{clip-path:url(#SVGID_2_);fill:#FFFFFF;}
	.st1{clip-path:url(#SVGID_2_);}
	.st2{fill:#F1F1F4;}
	.st3{clip-path:url(#SVGID_2_);fill:#E0F3FF;}
	.st4{fill:url(#SVGID_3_);}
	.st5{fill:url(#SVGID_4_);}
	.st6{fill:#E5E2FF;}
	.st7{fill:url(#SVGID_5_);}
	.st8{opacity:0.62;fill:url(#SVGID_6_);}
	.st9{opacity:0.62;fill:url(#SVGID_7_);}
	.st10{opacity:0.5;fill:url(#SVGID_8_);}
	.st11{fill:#FFFFFF;}
	.st12{fill:url(#SVGID_9_);}
	.st13{opacity:0.5;fill:url(#SVGID_10_);}
	.st14{opacity:0.5;fill:url(#SVGID_11_);}
	.st15{fill:url(#SVGID_12_);}
	.st16{fill:url(#SVGID_13_);}
	.st17{opacity:0.76;fill:url(#SVGID_14_);}
	.st18{opacity:0.76;fill:url(#SVGID_15_);}
	.st19{opacity:0.76;fill:url(#SVGID_16_);}
	.st20{fill:#FE9083;}
	.st21{fill:url(#SVGID_17_);}
	.st22{opacity:0.5;fill:url(#SVGID_18_);}
	.st23{fill:url(#SVGID_19_);}
	.st24{opacity:0.5;fill:url(#SVGID_20_);}
	.st25{fill:url(#SVGID_21_);}
	.st26{fill:url(#SVGID_22_);}
	.st27{fill:#CB4D7A;}
	.st28{fill:#EE8183;}
	.st29{fill:url(#SVGID_23_);}
	.st30{opacity:0.6;fill:url(#SVGID_24_);}
	.st31{fill:url(#SVGID_25_);}
	.st32{fill:#E28183;}
	.st33{opacity:0.91;fill:url(#SVGID_26_);}
	.st34{fill:url(#SVGID_27_);}
	.st35{opacity:0.6;fill:url(#SVGID_28_);}
	.st36{fill:url(#SVGID_29_);}
	.st37{fill:url(#SVGID_30_);}
	.st38{opacity:0.91;fill:url(#SVGID_31_);}
	.st39{opacity:0.5;fill:url(#SVGID_32_);}
	.st40{opacity:0.5;fill:url(#SVGID_33_);}
	.st41{opacity:0.5;fill:url(#SVGID_34_);}
	.st42{opacity:0.5;fill:url(#SVGID_35_);}
	.st43{opacity:0.5;fill:url(#SVGID_36_);}
	.st44{opacity:0.5;fill:url(#SVGID_37_);}
	.st45{opacity:0.5;fill:url(#SVGID_38_);}
	.st46{opacity:0.5;fill:url(#SVGID_39_);}
	.st47{opacity:0.5;fill:url(#SVGID_40_);}
	.st48{opacity:0.76;fill:url(#SVGID_41_);}
	.st49{opacity:0.5;fill:url(#SVGID_42_);}
	.st50{opacity:0.3;fill:url(#SVGID_43_);}
	.st51{opacity:0.5;fill:url(#SVGID_44_);}
	.st52{opacity:0.5;fill:url(#SVGID_45_);}
	.st53{opacity:0.5;fill:url(#SVGID_46_);}
	.st54{opacity:0.5;fill:url(#SVGID_47_);}
	.st55{fill:url(#SVGID_48_);}
	.st56{fill:#EBEFFF;}
	.st57{opacity:0.5;fill:url(#SVGID_49_);}
	.st58{opacity:0.3;fill:url(#SVGID_50_);}
	.st59{opacity:0.5;fill:url(#SVGID_51_);}
	.st60{opacity:0.5;fill:url(#SVGID_52_);}
	.st61{opacity:0.5;fill:url(#SVGID_53_);}
	.st62{opacity:0.5;fill:#7A4AC0;}
	.st63{fill:url(#SVGID_54_);}
	.st64{fill:url(#SVGID_55_);}
	.st65{fill:url(#SVGID_56_);}
	.st66{opacity:0.6;fill:url(#SVGID_57_);}
	.st67{fill:#38368E;}
	.st68{fill:url(#SVGID_58_);}
	.st69{fill:url(#SVGID_59_);}
	.st70{fill:#FFEBED;}
	.st71{fill:#7F9EC9;}
	.st72{fill:#131163;}
	.st73{fill:#C6659C;}
	.st74{fill:#CB5F7D;}
	.st75{fill:#9F4A8B;}
	.st76{fill:#FFBCAF;}
	.st77{opacity:0.6;fill:url(#SVGID_60_);}
	.st78{fill:url(#SVGID_61_);}
	.st79{fill:#D2726C;}
	.st80{opacity:0.6;fill:url(#SVGID_62_);}
	.st81{opacity:0.6;fill:url(#SVGID_63_);}
	.st82{opacity:0.5;fill:url(#SVGID_64_);}
	.st83{fill:url(#SVGID_65_);}
	.st84{fill:url(#SVGID_66_);}
	.st85{fill:url(#SVGID_67_);}
	.st86{opacity:0.8;fill:url(#SVGID_68_);}
	.st87{opacity:0.8;fill:url(#SVGID_69_);}
	.st88{fill:#34C7FF;}
	.st89{fill:url(#SVGID_70_);}
	.st90{fill:url(#SVGID_71_);}
	.st91{fill:url(#SVGID_72_);}
	.st92{opacity:0.6;fill:#36D1F7;}
	.st93{fill:#744CA2;}
	.st94{opacity:0.6;fill:url(#SVGID_73_);}
	.st95{opacity:0.3;fill:url(#SVGID_74_);}
	.st96{opacity:0.3;fill:url(#SVGID_75_);}
	.st97{opacity:0.3;fill:url(#SVGID_76_);}
	.st98{opacity:0.3;fill:url(#SVGID_77_);}
	.st99{fill:#D1D4FB;}
	.st100{fill:#E0FFFF;}
	.st101{fill:url(#SVGID_78_);}
	.st102{fill:url(#SVGID_79_);}
	.st103{opacity:0.81;fill:url(#SVGID_80_);}
	.st104{fill:#473DA2;}
	.st105{clip-path:url(#SVGID_2_);fill:url(#SVGID_81_);}
	.st106{clip-path:url(#SVGID_2_);fill:url(#SVGID_82_);}
	.st107{clip-path:url(#SVGID_2_);fill:url(#SVGID_83_);}
	.st108{clip-path:url(#SVGID_2_);fill:url(#SVGID_84_);}
	.st109{clip-path:url(#SVGID_2_);fill:url(#SVGID_85_);}
	.st110{clip-path:url(#SVGID_2_);fill:url(#SVGID_86_);}
	.st111{opacity:0.73;fill:url(#SVGID_87_);}
	.st112{fill:#953DA2;}
	.st113{opacity:0.73;fill:url(#SVGID_88_);}
	.st114{fill-rule:evenodd;clip-rule:evenodd;fill:url(#SVGID_89_);}
	.st115{fill-rule:evenodd;clip-rule:evenodd;fill:url(#SVGID_90_);}
	.st116{fill-rule:evenodd;clip-rule:evenodd;fill:url(#SVGID_91_);}
	.st117{opacity:0.5;fill-rule:evenodd;clip-rule:evenodd;fill:#601734;}
	.st118{fill-rule:evenodd;clip-rule:evenodd;fill:#B3D9FF;}
	.st119{clip-path:url(#SVGID_2_);fill:#FF1D9C;}
	.st120{clip-path:url(#SVGID_2_);fill:#6877FF;}
	.st121{clip-path:url(#SVGID_2_);fill:#4F31E0;}
	.st122{fill-rule:evenodd;clip-rule:evenodd;fill:url(#SVGID_92_);}
	.st123{fill-rule:evenodd;clip-rule:evenodd;fill:url(#SVGID_93_);}
	.st124{fill-rule:evenodd;clip-rule:evenodd;fill:url(#SVGID_94_);}
	.st125{fill-rule:evenodd;clip-rule:evenodd;fill:url(#SVGID_95_);}
</style>
<g>
	<defs>
		<rect id="SVGID_1_" width="600" height="400"/>
	</defs>
	<clipPath id="SVGID_2_">
		<use xlink:href="#SVGID_1_"  style="overflow:visible;"/>
	</clipPath>
	<rect class="st0" width="600" height="400"/>
	<g class="st1">
		<path class="st2" d="M148.21,196.1c0.01-0.25,0.13-0.36,0.36-0.36l6.71,0.2c0.66,0.02,1.23,0.12,1.69,0.3
			c0.46,0.18,0.83,0.43,1.11,0.75s0.47,0.69,0.59,1.14c0.12,0.44,0.17,0.93,0.15,1.47l-0.06,1.84c-0.02,0.54-0.1,1.03-0.24,1.46
			c-0.14,0.43-0.36,0.8-0.66,1.1c-0.3,0.3-0.68,0.52-1.15,0.68c-0.47,0.15-1.04,0.22-1.7,0.2l-3.61-0.11l-0.75-2.11l-0.1,0
			l-0.06,2.09l-2.53-0.08L148.21,196.1z M150.55,202.43l4.29,0.13c0.48,0.01,0.83-0.08,1.04-0.29c0.21-0.21,0.32-0.58,0.34-1.12
			l0.05-1.5c0.02-0.56-0.07-0.94-0.27-1.15c-0.2-0.21-0.54-0.32-1.02-0.33l-4.1-0.12c-0.06,0-0.1,0.02-0.14,0.05
			c-0.03,0.04-0.05,0.08-0.05,0.13L150.55,202.43z"/>
		<path class="st2" d="M162.45,199.93l-0.09,0l-0.08,2.68c0,0.11,0.05,0.17,0.17,0.18l7.54,0.23l-0.07,2.32l-9.89-0.3
			c-0.24-0.01-0.35-0.13-0.35-0.38l0.25-8.21c0.01-0.25,0.13-0.36,0.37-0.36l9.61,0.29c0.25,0.01,0.37,0.13,0.36,0.38l-0.07,2.32
			l-2.37,0.8l-0.1,0l0.04-1.19c0-0.09-0.04-0.14-0.12-0.14l-5.07-0.15c-0.07,0-0.11,0.02-0.13,0.05c-0.02,0.04-0.03,0.08-0.03,0.12
			l-0.03,1.12l4.18,0.13l-0.06,1.82l-3.5-0.11L162.45,199.93z"/>
		<path class="st2" d="M179.21,199.77l-0.1,0l0.03-0.98c0-0.1-0.04-0.15-0.14-0.15l-4.72-0.14c-0.17,0-0.29,0.03-0.36,0.1
			c-0.07,0.07-0.1,0.18-0.11,0.32l-0.01,0.22c-0.01,0.17,0.02,0.28,0.08,0.33c0.06,0.05,0.17,0.09,0.33,0.12l5.53,0.94
			c0.35,0.06,0.65,0.15,0.89,0.25c0.24,0.11,0.44,0.25,0.59,0.42c0.15,0.17,0.25,0.38,0.31,0.63c0.06,0.25,0.08,0.54,0.07,0.88
			l-0.02,0.71c-0.01,0.37-0.07,0.69-0.17,0.97c-0.1,0.28-0.25,0.51-0.46,0.7c-0.21,0.19-0.49,0.32-0.82,0.41
			c-0.34,0.09-0.75,0.12-1.24,0.11l-7.96-0.24l0.07-2.32l7.14,0.22c0.21,0.01,0.36-0.03,0.43-0.1c0.07-0.08,0.11-0.21,0.12-0.41
			l0.01-0.25c0-0.16-0.02-0.27-0.07-0.33c-0.05-0.06-0.15-0.11-0.31-0.13l-5.34-0.84c-0.36-0.06-0.67-0.14-0.92-0.25
			c-0.25-0.11-0.46-0.24-0.62-0.41c-0.16-0.17-0.27-0.37-0.34-0.61c-0.07-0.24-0.09-0.52-0.08-0.85l0.02-0.63
			c0.02-0.65,0.21-1.14,0.56-1.49c0.36-0.35,0.93-0.51,1.74-0.48l7.95,0.24c0.25,0.01,0.38,0.14,0.37,0.4l-0.06,1.84L179.21,199.77z
			"/>
		<path class="st2" d="M182.57,205.72l0.27-8.94l2.53,0.08l-0.27,8.94L182.57,205.72z"/>
		<path class="st2" d="M194.49,202.25c0-0.13,0-0.27-0.01-0.41c-0.01-0.14-0.02-0.27-0.03-0.38l0-0.11l2.51,0.08l-0.13,4.39
			c-0.01,0.23-0.11,0.34-0.32,0.33l-6.73-0.2c-0.66-0.02-1.23-0.12-1.69-0.3c-0.46-0.18-0.83-0.43-1.11-0.75
			c-0.28-0.32-0.48-0.69-0.59-1.14c-0.12-0.44-0.17-0.93-0.15-1.47l0.06-1.84c0.02-0.54,0.1-1.03,0.24-1.46
			c0.14-0.43,0.36-0.8,0.66-1.1c0.3-0.3,0.68-0.52,1.15-0.68c0.47-0.15,1.04-0.22,1.7-0.2l6.69,0.2c0.24,0.01,0.35,0.13,0.35,0.38
			l-0.06,1.93l-2.37,0.79l-0.1,0l0.03-0.86c0-0.08-0.03-0.12-0.11-0.13l-4.27-0.13c-0.25-0.01-0.45,0.01-0.62,0.05
			c-0.17,0.04-0.31,0.11-0.42,0.22c-0.11,0.11-0.19,0.25-0.25,0.44c-0.05,0.18-0.09,0.41-0.1,0.68l-0.05,1.57
			c-0.02,0.54,0.07,0.92,0.27,1.14c0.2,0.22,0.54,0.34,1.02,0.35l4.24,0.13c0.09,0,0.14-0.04,0.14-0.14L194.49,202.25z"/>
		<path class="st2" d="M202.31,197.37c0.19,0.01,0.32,0.04,0.4,0.1c0.08,0.06,0.14,0.15,0.21,0.28l3.2,6.53
			c0.05,0.1,0.13,0.15,0.23,0.15l0.13,0c0.13,0,0.2-0.06,0.2-0.19l0.2-6.73l2.3,0.07l-0.26,8.59c-0.01,0.24-0.12,0.35-0.35,0.34
			l-3.64-0.11c-0.17,0-0.3-0.03-0.38-0.09c-0.09-0.05-0.16-0.15-0.23-0.29l-3.32-6.52c-0.05-0.1-0.12-0.15-0.23-0.15l-0.12,0
			c-0.13,0-0.2,0.06-0.2,0.19l-0.2,6.72l-2.3-0.07l0.26-8.58c0.01-0.25,0.12-0.36,0.35-0.36L202.31,197.37z"/>
	</g>
	
		<ellipse transform="matrix(0.7071 -0.7071 0.7071 0.7071 -59.4577 247.5165)" class="st3" cx="269.05" cy="195.53" rx="155.02" ry="155.02"/>
	<g class="st1">
		
			<linearGradient id="SVGID_3_" gradientUnits="userSpaceOnUse" x1="139.8369" y1="275.2009" x2="139.8369" y2="204.0119" gradientTransform="matrix(0.906 -0.4233 0.4233 0.906 -75.0515 53.7421)">
			<stop  offset="0" style="stop-color:#DBCCFF"/>
			<stop  offset="1" style="stop-color:#D1BBFF"/>
		</linearGradient>
		<path class="st4" d="M155.1,185.61c-3.81-6.56-10.55-9.26-10.55-9.26l-2.35,1.1l5.29,9.6c-0.71,3.69-3.24,5.72-3.24,5.72
			l-0.01-0.02c0,0-3.18,0.64-6.47-1.19l-3.97-10.22l-2.35,1.1c0,0-2.25,6.9,0.33,14.04c0,0,1,2.31,1.18,2.52
			c0.93,1.09,3.36,2.34,8.06,2.05l16.2,30.91c-1.35,2.32-1.58,5.23-0.36,7.83c1.98,4.24,7.02,6.07,11.26,4.09
			c4.24-1.98,6.07-7.02,4.09-11.26c-1.22-2.61-3.6-4.3-6.24-4.75l-13.31-32.25c3.17-3.34,3.84-5.97,3.6-7.49
			C156.22,187.8,155.1,185.61,155.1,185.61z M168.42,238.92l-4.29,2.01l-3.88-2.71l0.41-4.72l4.29-2.01l3.88,2.71L168.42,238.92z"/>
		
			<linearGradient id="SVGID_4_" gradientUnits="userSpaceOnUse" x1="139.8327" y1="277.9781" x2="139.8327" y2="206.7891" gradientTransform="matrix(0.906 -0.4233 0.4233 0.906 -75.0515 53.7421)">
			<stop  offset="0" style="stop-color:#B5A6E7"/>
			<stop  offset="1" style="stop-color:#7760BF"/>
		</linearGradient>
		<path class="st5" d="M156.27,188.13c-3.81-6.56-10.55-9.26-10.55-9.26l-2.35,1.1l5.29,9.6c-0.71,3.69-3.24,5.72-3.24,5.72
			l-0.01-0.02c0,0-3.18,0.64-6.47-1.19l-3.97-10.22l-2.35,1.1c0,0-2.25,6.9,0.33,14.04c0,0,3.66,4.91,9.23,4.57l16.2,30.91
			c-1.35,2.32-1.58,5.23-0.36,7.83c1.98,4.24,7.02,6.07,11.26,4.09c4.24-1.98,6.07-7.02,4.09-11.26c-1.22-2.61-3.6-4.3-6.24-4.75
			l-13.31-32.25C157.69,194.09,156.27,188.13,156.27,188.13z M169.6,241.44l-4.29,2.01l-3.88-2.71l0.41-4.72l4.29-2.01l3.88,2.71
			L169.6,241.44z"/>
		
			<rect x="131.92" y="181.76" transform="matrix(0.906 -0.4233 0.4233 0.906 -65.0028 73.6072)" class="st6" width="2.59" height="2.78"/>
		
			<rect x="142.66" y="176.76" transform="matrix(0.906 -0.4233 0.4233 0.906 -61.8791 77.6858)" class="st6" width="2.59" height="2.78"/>
		
			<rect x="164.5" y="239.79" transform="matrix(0.906 -0.4233 0.4233 0.906 -86.4027 93.3051)" class="st6" width="4.74" height="2.78"/>
		<g>
			
				<linearGradient id="SVGID_5_" gradientUnits="userSpaceOnUse" x1="139.8326" y1="260.2796" x2="139.8326" y2="230.2723" gradientTransform="matrix(0.906 -0.4233 0.4233 0.906 -75.0515 53.7421)">
				<stop  offset="0" style="stop-color:#B5A6E7"/>
				<stop  offset="1" style="stop-color:#7760BF"/>
			</linearGradient>
			<path class="st7" d="M145.66,205.86l13.09,25.15c3.44,0.16,5.28-2.47,5.28-2.47l-10.65-26.29
				C148.6,202.08,145.66,205.86,145.66,205.86z M163.02,228.75c-0.38,0.33-0.96,0.77-1.69,1.11c-0.58,0.27-1.19,0.45-1.81,0.54
				l-13.11-24.63c0.64-0.57,1.74-1.41,3.15-2.07c1.06-0.49,2.14-0.81,3.24-0.96L163.02,228.75z"/>
			<path class="st6" d="M163.02,228.75l1.01-0.21c0,0-1.5,2.66-5.28,2.47l0.77-0.61C159.52,230.4,161.39,230.18,163.02,228.75z"/>
			
				<linearGradient id="SVGID_6_" gradientUnits="userSpaceOnUse" x1="135.5743" y1="230.8728" x2="144.091" y2="230.8728" gradientTransform="matrix(0.906 -0.4233 0.4233 0.906 -75.0515 53.7421)">
				<stop  offset="0" style="stop-color:#8B8BE0"/>
				<stop  offset="1" style="stop-color:#A177B7"/>
			</linearGradient>
			<path class="st8" d="M145.66,205.86l0.75-0.1c0,0,2.24-2.32,6.39-3.02l0.57-0.48c0,0-1.67-0.29-4.27,0.92
				C146.51,204.39,145.66,205.86,145.66,205.86z"/>
		</g>
		
			<linearGradient id="SVGID_7_" gradientUnits="userSpaceOnUse" x1="139.8327" y1="232.8499" x2="139.8327" y2="227.6944" gradientTransform="matrix(0.906 -0.4233 0.4233 0.906 -75.0515 53.7421)">
			<stop  offset="0" style="stop-color:#FFFFFF"/>
			<stop  offset="1" style="stop-color:#A177B7"/>
		</linearGradient>
		<path class="st9" d="M142.19,203.56c0,0,6.29-1.12,11.66-5.43l1.7,4.12c0,0-1.93-1.91-6.17-0.18c-4.95,2.02-4.68,6-4.68,6
			L142.19,203.56z"/>
		
			<linearGradient id="SVGID_8_" gradientUnits="userSpaceOnUse" x1="144.337" y1="263.3428" x2="144.337" y2="230.2624" gradientTransform="matrix(0.906 -0.4233 0.4233 0.906 -75.0515 53.7421)">
			<stop  offset="0" style="stop-color:#000000"/>
			<stop  offset="1" style="stop-color:#FFFFFF"/>
		</linearGradient>
		<path class="st10" d="M155.55,202.26c-1.21-0.87-2.59-0.89-2.59-0.89l12.67,30.6l1.53-1.58L155.55,202.26z"/>
		<path class="st11" d="M155.55,202.26c0,0-1.33,4.09,2.49,6.03L155.55,202.26z"/>
	</g>
	<g class="st1">
		<g>
			<linearGradient id="SVGID_9_" gradientUnits="userSpaceOnUse" x1="280.2997" y1="400" x2="280.2997" y2="310.79">
				<stop  offset="0" style="stop-color:#6456C0"/>
				<stop  offset="1" style="stop-color:#5F2C95"/>
			</linearGradient>
			<path class="st12" d="M346.23,400h-47c-4.92-27.32-16.36-62.87-16.36-62.87c-2.78-1.65-8.21,0.38-8.21,0.38L257.48,400h-42.94
				c-2.28-38.56,18.82-82.33,18.82-82.33l-0.01-0.01c-0.07-0.15-0.74-1.49-0.56-2.39c0.07-0.39,0.79-1.13,1.6-1.86
				c1.16-1.06,2.54-2.12,2.54-2.12l80.11-0.5c0,0,0.81,0.41,1.84,1.03h0.01c1.75,1.06,4.12,2.7,4.12,3.9c0,1.65-0.65,2.72-0.81,2.96
				l-0.04,0.05C339.34,351.15,346.23,400,346.23,400z"/>
			
				<radialGradient id="SVGID_10_" cx="232.4988" cy="368.6501" r="27.0277" gradientTransform="matrix(0.6462 0.1491 -0.3852 1.6696 228.6228 -282.2475)" gradientUnits="userSpaceOnUse">
				<stop  offset="0" style="stop-color:#4B474B"/>
				<stop  offset="1" style="stop-color:#000000"/>
			</radialGradient>
			<path class="st13" d="M254.33,371.95c-5.75,24.92-18.23,43.32-27.88,41.1s-12.8-24.23-7.05-49.15
				c5.75-24.92,18.23-43.32,27.88-41.1C256.92,325.02,260.08,347.02,254.33,371.95z"/>
			
				<radialGradient id="SVGID_11_" cx="351.3293" cy="352.8094" r="27.0272" gradientTransform="matrix(0.6386 -0.179 0.4623 1.6499 -67.4027 -151.7454)" gradientUnits="userSpaceOnUse">
				<stop  offset="0" style="stop-color:#4B474B"/>
				<stop  offset="1" style="stop-color:#000000"/>
			</radialGradient>
			<path class="st14" d="M337.32,362.63c6.9,24.63,4.77,46.76-4.76,49.43c-9.53,2.67-22.85-15.13-29.76-39.76
				c-6.9-24.63-4.77-46.76,4.76-49.43C317.1,320.2,330.42,338,337.32,362.63z"/>
			<g>
				<linearGradient id="SVGID_12_" gradientUnits="userSpaceOnUse" x1="251.4272" y1="368.6816" x2="274.8247" y2="368.6816">
					<stop  offset="0" style="stop-color:#9E8CEF"/>
					<stop  offset="1" style="stop-color:#CAAFEE"/>
				</linearGradient>
				<path class="st15" d="M251.92,400.04l-0.49-0.08c5.47-32.2,19.34-59.2,19.48-59.47l0.06-0.07l3.53-3.09l0.33,0.38l-3.5,3.06
					C270.7,341.97,257.27,368.51,251.92,400.04z"/>
			</g>
			<g>
				
					<linearGradient id="SVGID_13_" gradientUnits="userSpaceOnUse" x1="341.5261" y1="368.6826" x2="364.9255" y2="368.6826" gradientTransform="matrix(-1 0 0 1 647.6286 0)">
					<stop  offset="0" style="stop-color:#9E8CEF"/>
					<stop  offset="1" style="stop-color:#CAAFEE"/>
				</linearGradient>
				<path class="st16" d="M305.61,400.04c-5.36-31.55-19.16-58.35-19.78-59.54l-3.13-2.81l0.33-0.37l3.22,2.91
					c0.14,0.27,14.38,27.53,19.85,59.73L305.61,400.04z"/>
			</g>
			<linearGradient id="SVGID_14_" gradientUnits="userSpaceOnUse" x1="277.16" y1="400" x2="277.16" y2="310.79">
				<stop  offset="0" style="stop-color:#CCCCFF"/>
				<stop  offset="1" style="stop-color:#755CBB"/>
			</linearGradient>
			<path class="st17" d="M323.01,315.72c0,1.65-0.65,2.72-0.81,2.96l-0.04,0.05c-16.68,3.77-29.37,19.34-29.37,19.34
				c9.09,17.44,24.25,61.93,24.25,61.93h-17.81c-4.92-27.32-16.36-62.87-16.36-62.87c-2.78-1.65-8.21,0.38-8.21,0.38L257.48,400
				h-11.12c3.98-26.18,15.73-58.14,15.73-58.14c-11.55-13.45-28.73-24.19-28.73-24.19l-0.01-0.01l-2.04-1.28l1.48-1.11
				c7.43,7.13,31.39,16.44,32.13,16.73l-30.53-18.59c1.16-1.06,2.54-2.12,2.54-2.12l80.11-0.5c0,0,0.81,0.41,1.84,1.03L297,323.86
				L323.01,315.72z"/>
			<linearGradient id="SVGID_15_" gradientUnits="userSpaceOnUse" x1="287.5455" y1="355.395" x2="287.5455" y2="331.0632">
				<stop  offset="0" style="stop-color:#CCCCFF"/>
				<stop  offset="1" style="stop-color:#755CBB"/>
			</linearGradient>
			<polygon class="st18" points="282.87,337.13 292.22,331.06 290,337.13 288.37,355.39 			"/>
			<linearGradient id="SVGID_16_" gradientUnits="userSpaceOnUse" x1="259.3632" y1="346.4476" x2="259.3632" y2="322.6091">
				<stop  offset="0" style="stop-color:#CCCCFF"/>
				<stop  offset="1" style="stop-color:#755CBB"/>
			</linearGradient>
			<polygon class="st19" points="274.66,337.51 264.92,332 244.07,322.61 270.62,340.16 272.2,346.45 			"/>
		</g>
		<path class="st20" d="M301.46,149.65c0.06,0.43,0.11,0.66,0.11,0.66c-0.49,2.04-1.05,3.93-1.66,5.66
			c-1.96,5.63-4.4,9.63-6.23,12.12c-1.59,2.15-2.72,3.18-2.72,3.18c-14.59-4.58-21.78-18.85-24.54-25.95
			c-0.02-0.03-0.03-0.07-0.04-0.11c-0.53-1.34-0.88-2.42-1.1-3.12c0,0,0,0,0-0.01c-0.17-0.56-0.25-0.87-0.25-0.87
			c0.06-0.12,0.12-0.25,0.18-0.37l0.03-0.05c0.24-0.5,0.48-1.01,0.7-1.5c1.91-4.18,3.18-8.09,4-11.17c0.71-2.62,1.09-4.64,1.27-5.71
			c0.09-0.55,0.13-0.85,0.13-0.85l6.8,3.59l23.43,12.4c-0.35,2.15-0.49,4.17-0.5,5.94c-0.02,1.25,0.02,2.37,0.09,3.32
			c0.07,1.16,0.19,2.08,0.28,2.68v0.01C301.44,149.56,301.45,149.6,301.46,149.65z"/>
		<linearGradient id="SVGID_17_" gradientUnits="userSpaceOnUse" x1="283.5421" y1="176.45" x2="283.5421" y2="140.84">
			<stop  offset="0" style="stop-color:#D5CDF8"/>
			<stop  offset="1" style="stop-color:#F3EDFB"/>
		</linearGradient>
		<path class="st21" d="M294.96,172.84c-1.35,1.34-2.94,2.54-4.84,3.54c-0.04,0.03-0.08,0.05-0.12,0.07c0,0-0.05-0.03-0.14-0.08
			l-0.01-0.01c-0.51-0.31-2.25-1.38-4.59-3.14c-6.12-4.61-16.34-13.93-19.26-26.49c-0.01-0.02-0.01-0.03-0.02-0.05
			c-0.34-1.49-0.58-3.01-0.7-4.59c0,0,0,0,0-0.01c-0.03-0.41-0.06-0.82-0.07-1.24c0,0,2.03,4.77,5.55,9.92
			c4.14,6.06,10.35,12.67,17.77,12.71c6.42,0.04,9.71-4.35,11.38-8.4c0.71-1.72,1.13-3.37,1.35-4.6c0.01-0.01,0.01-0.02,0.01-0.02
			c0.07-0.36,0.12-0.68,0.17-0.95v-0.01c0.02-0.14,0.04-0.26,0.05-0.37c0.06-0.45,0.08-0.71,0.08-0.71S304.03,163.77,294.96,172.84z
			"/>
		<linearGradient id="SVGID_18_" gradientUnits="userSpaceOnUse" x1="265.21" y1="158.61" x2="301.8742" y2="158.61">
			<stop  offset="0" style="stop-color:#CCCCFF"/>
			<stop  offset="1" style="stop-color:#755CBB"/>
		</linearGradient>
		<path class="st22" d="M294.96,172.84c-1.35,1.34-2.94,2.54-4.84,3.54H290l-0.14-0.01l-0.01-0.01c-0.51-0.31-2.25-1.38-4.59-3.14
			c-6.12-4.61-16.34-13.93-19.26-26.49c-0.01-0.02-0.01-0.03-0.02-0.05c-0.34-1.49-0.58-3.01-0.7-4.59c0,0,0,0,0-0.01
			c-0.03-0.41-0.06-0.82-0.07-1.24c0,0,2.03,4.77,5.55,9.92c0,0,4.04,11.1,12.78,16.6c4.38,2.75,7.7,2.35,10.14,0.73
			c2.44-1.61,4.02-4.42,4.95-6.54c0.93-2.13,1.23-4.12,1.28-5.58c0.01-0.33,0.01-0.63,0-0.9c0.71-1.72,1.13-3.37,1.35-4.6
			c0.01-0.01,0.01-0.02,0.01-0.02c0.07-0.36,0.12-0.68,0.17-0.95v-0.01c0.02-0.14,0.04-0.26,0.05-0.37
			c0.06-0.45,0.08-0.71,0.08-0.71S304.03,163.77,294.96,172.84z"/>
		<linearGradient id="SVGID_19_" gradientUnits="userSpaceOnUse" x1="273.0582" y1="318.7292" x2="273.0582" y2="139.29">
			<stop  offset="0" style="stop-color:#9E8CEF"/>
			<stop  offset="1" style="stop-color:#CAAFEE"/>
		</linearGradient>
		<path class="st23" d="M351.12,263.53c-0.11,0.05-0.16,0.08-0.16,0.08c-0.82,0.1-3.37-0.46-6.71-3.35l-0.01-0.01
			c0-0.01-0.01-0.02-0.03-0.03c-0.01-0.01-0.02-0.03-0.04-0.04c-2.8-2.45-6.16-6.54-9.51-13.24c-6.7-13.39-8.62-22.33-8.93-23.89
			l-0.04-0.24l-3.91,6.2c-2.65,7.97-7.67,40.95-7.58,42.37c0.09,1.42,4.45,8.34,4.36,9.19c0,0,0,0.01-0.01,0.02
			c-0.12,0.86-2.08,2.75-2.64,4.81c-0.38,1.37,2.28,5.69,4.15,8.92v0.01c0.97,1.68,1.72,3.06,1.72,3.58c0,1.51-4.74,8.9-4.74,8.9
			v3.98l-0.07,0.07l-0.22,0.2l-0.18,0.15c-1.8,1.42-9.43,6.07-33.27,7.35c-28.25,1.51-47.07-7.58-47.07-7.58l1.42-3.89
			c0,0-1.32-1.13-1.42-1.7c-0.09-0.57,1.04-1.9,1.04-1.9s-2.84-1.51-2.84-3.41c0-1.89,5.69-7.76,5.5-12.79
			c-0.19-5.02-4.55-9.47-5.12-12.31c-0.57-2.84,7.39-9.85,7.39-9.85c-6.82-21.6-8.15-50.59-8.15-50.59l-1.32-1.52
			c0,0-8.15,18.57-15.54,27.66c-0.88,1.08-1.81,2.15-2.77,3.18c-2.06,2.23-4.25,4.32-6.36,6.15c-5.12,4.46-9.77,7.39-10.95,7.16
			c-1.9-0.38-9.48-15.35-9.13-30.7c0.16-7.3,4.56-15.47,9.13-22.02c0.49-0.7,0.98-1.39,1.48-2.06c3.24-4.41,6.35-7.87,7.84-9.45
			c0.58-0.62,0.91-0.95,0.91-0.95s-1.04-3.35-1.75-6.26c-0.01-0.07-0.03-0.14-0.05-0.21c0-0.03-0.01-0.07-0.02-0.1
			c-0.01-0.05-0.02-0.07-0.02-0.07c-0.42-1.79-0.68-3.34-0.44-3.72c0.63-1.01,4.3-2.15,4.93-2.9c0.63-0.76,3.28-13.52,5.3-14.91
			c1.94-1.33,5.35-2.3,16.72-6.77c0.56-0.22,1.13-0.44,1.73-0.68c12.75-5.05,25.26-11.18,25.26-11.18l4.8-5.9h2.14l-0.7,1.5
			l-0.03,0.05c0.34,1.52,0.73,2.98,1.17,4.37c0.01,0.04,0.02,0.08,0.04,0.11c6.6,20.82,23.58,27.53,23.58,27.53
			c11.8-8.71,11.57-22.54,11.57-22.54v-1.9l2.21,0.66l1.51,3.6c0,0,2.56,3.98,12.7,8.44c1.75,0.77,3.63,1.74,5.57,2.85
			c9.28,5.27,19.6,13.42,20.39,15.15c0.08,0.18,0.17,0.46,0.27,0.86v0.01c1.09,4.28,3.33,20.31,5.41,26.03
			c1.3,3.57,3.35,5.54,4.86,6.56c0.01,0.01,0.01,0.01,0.02,0.01c1.12,0.77,1.94,1.01,1.94,1.01c0.16,0.88,0.31,1.75,0.45,2.61
			C361.25,243.62,352.98,262.23,351.12,263.53z"/>
		<linearGradient id="SVGID_20_" gradientUnits="userSpaceOnUse" x1="198.59" y1="206.915" x2="242.29" y2="206.915">
			<stop  offset="0" style="stop-color:#CCCCFF"/>
			<stop  offset="1" style="stop-color:#755CBB"/>
		</linearGradient>
		<path class="st24" d="M242.29,211.77l-8.24,2.77l-1.32-1.52c0,0-8.15,18.57-15.54,27.66c-0.88,1.08-1.81,2.15-2.77,3.18
			c-2.06,2.23-4.25,4.32-6.36,6.15l-6.28-27.07l-3.19-20.55c3.24-4.41,6.35-7.87,7.84-9.45c0.58-0.62,0.91-0.95,0.91-0.95
			s-1.04-3.35-1.75-6.26c-0.01-0.07-0.03-0.14-0.05-0.21c0-0.03-0.01-0.07-0.02-0.1c-0.01-0.05-0.02-0.07-0.02-0.07
			c-0.42-1.79-0.68-3.34-0.44-3.72c0.63-1.01,4.3-2.15,4.93-2.9c0.63-0.76,3.28-13.52,5.3-14.91c0,0-1.32,12.25,5.69,27.79l3.41,4.8
			l9.98,8.02C234.37,204.43,238.16,209.46,242.29,211.77z"/>
		<linearGradient id="SVGID_21_" gradientUnits="userSpaceOnUse" x1="197.2384" y1="257.17" x2="197.2384" y2="173.26">
			<stop  offset="0" style="stop-color:#9E8CEF"/>
			<stop  offset="1" style="stop-color:#DAC7F3"/>
		</linearGradient>
		<path class="st25" d="M218.45,233.93c-1.77,13.13-21.34,23.24-21.34,23.24c-4.36,0-9.23-7.58-13.65-16.93
			c-4.42-9.35-4.69-36.21-4.92-37.87c-0.24-1.66-2.7-4.98-2.85-6.4c-0.14-1.42,3.98-4.36,3.98-4.36l-0.03-0.07l-0.03-0.07
			c-0.43-0.92-2.85-6.11-2.68-7.06c0.19-1.04,4.82-3.31,4.82-3.31l0.29,5.11c0,0,10.78-2.04,14.43-10.39l0.64-2.56l1.8,1.2v10.99
			c0,0,0.37,1.71,0.94,1.71c0.57,0,4.77-2.1,5.65-1.81c0.89,0.29,1.76,6.17,2.94,6.92c1.17,0.76,4.3,2.94,4.77,3.98
			c0.21,0.47,0.23,2.16,0.25,4.15c0.03,2.44,0.05,5.32,0.41,6.94C214.54,210.27,220.22,220.79,218.45,233.93z"/>
		<linearGradient id="SVGID_22_" gradientUnits="userSpaceOnUse" x1="341.5302" y1="232.9861" x2="397.8355" y2="232.9861">
			<stop  offset="0" style="stop-color:#A999F1"/>
			<stop  offset="1" style="stop-color:#DAC7F3"/>
		</linearGradient>
		<path class="st26" d="M397.44,222.68c-0.88,1.39-5.3,4.3-6.44,5.44c-1.14,1.13,0,4.87,0,4.87
			c-18.57,19.71-37.93,29.58-39.88,30.54c-0.11,0.05-0.16,0.08-0.16,0.08c-11.66-7.84-10.66-20.75-6.79-31.63
			c3.7-10.44,10.04-19.01,10.32-19.38l0.01-0.01c0,0,0,0,0.01-0.01c0.21-0.08,3.54-1.46,5.92-1.64c0.79-0.06,1.51,0.25,2.19,0.68
			c1.42,0.88,2.62,2.27,3.78,1.69c1.71-0.86,5.53-9.89,8.12-10.14c1.81-0.17,4.32,1.67,5.99,2.72c0.73,0.46,1.3,0.77,1.58,0.69
			c0.95-0.25,4.17-4.11,4.43-4.21c0.25-0.11,1.72,0.97,1.72,0.97l-1.03,1.28c1.58,9.1,6.76,15.22,6.76,15.22l3.47-5.08
			C397.44,214.76,398.33,221.29,397.44,222.68z"/>
		<path class="st27" d="M301.51,149.26c-0.02,0.13-0.04,0.26-0.05,0.39c-0.05,0.27-0.11,0.53-0.19,0.8c0,0,0,0.01-0.01,0.02
			c-1.19,4.41-6,8.92-12.07,6.75c-6.63-2.37-19.25-29.1-19.25-29.1l1.27-5.71l29.95,24.4l0.33,2.31L301.51,149.26z"/>
		<g>
			<path class="st28" d="M201.78,144.37c0,0-1.83-10.11-1.01-17.56c0.82-7.45-0.21-15.92-0.21-15.92s-1.81-0.76-3.14,0
				c-1.33,0.76-4.42,8.46-3.03,14.65c1.39,6.19,0.32,21.03,0.32,21.03h-2.08l-4.55-6.25l-2.21-0.63c0,0-12.73,12-12.54,19.14
				l1.66,6.35l15.67-0.54l10.23-11.68L201.78,144.37z"/>
			<linearGradient id="SVGID_23_" gradientUnits="userSpaceOnUse" x1="178.9231" y1="161.8185" x2="178.9231" y2="139.694">
				<stop  offset="0.016" style="stop-color:#FFC2A9"/>
				<stop  offset="1" style="stop-color:#FF9595"/>
			</linearGradient>
			<path class="st29" d="M185.86,139.69c0,0,0.33,7.96,2.11,14.78c0,0-0.3,2.79-3.57,2.98l-0.81-0.9c0,0-0.57,3.17-3.46,3.41
				l-2.75-2.75l0.71,2.27c0,0-0.99,2.42-3.6,2.32c0,0-4.36-3.41-4.64-7.86l4.31-3.65v-2.79l5.12-3.6l0.09-2.04
				C179.39,141.87,182.39,139.65,185.86,139.69z"/>
			<linearGradient id="SVGID_24_" gradientUnits="userSpaceOnUse" x1="192.855" y1="161.2947" x2="192.855" y2="124.6715">
				<stop  offset="0" style="stop-color:#FFEADB"/>
				<stop  offset="0.9944" style="stop-color:#C27CB6"/>
			</linearGradient>
			<path class="st30" d="M200.95,124.67c0,0-0.77,1.95-1.86,2.71c-1.09,0.76-4.25,1.34-4.25,1.34l-0.14,17.86h-2.08l-4.55-6.25
				c0,0,2.31,3.57,2.45,6.25l-1.8,0.88l-1.56-5.35l-0.74,3.85l0.74,4.79c0,0,2.7-2.32,7.58-2.41l0.73,1.33
				c0,0-8.83,7.31-10.86,11.62c0,0,4.36-5.54,14.31-11.65l0.95-2.94l1.26-7.01C201.11,139.69,199.92,129.59,200.95,124.67z"/>
			<linearGradient id="SVGID_25_" gradientUnits="userSpaceOnUse" x1="191.6668" y1="186.21" x2="191.6668" y2="129.75">
				<stop  offset="0.016" style="stop-color:#FFC2A9"/>
				<stop  offset="1" style="stop-color:#FF9595"/>
			</linearGradient>
			<path class="st31" d="M208.35,155.8c-0.82,2.46-9.41,12.69-10.36,14.91c-0.95,2.21-1.52,5.11-1.52,5.11
				c-4.22,9.13-14.43,10.39-14.43,10.39l-0.47-8.24c0,0-5.49-3.16-6.42-4.89l-0.01-0.03l-0.11-0.29c-0.28-1.61-0.04-7.58-0.04-7.58
				l9.61-3.89c4.17-5.4,14.31-11.65,14.31-11.65l0.47-2.83c-7.28-3.58-6.06-14.41-4.83-15.74c1.23-1.32,3.5-1.32,3.5-1.32
				s2.66,8.71,4.36,12.79C204.12,146.61,209.17,153.34,208.35,155.8z"/>
			<path class="st32" d="M179.39,141.87c0,0,1.07,9.95,4.22,14.68c0,0-3.99-4.96-4.31-12.65L179.39,141.87z"/>
			<path class="st32" d="M174.18,147.51c0,0,1.04,8.01,5.97,12.46c0,0-4.36-2.18-5.97-9.66V147.51z"/>
			<linearGradient id="SVGID_26_" gradientUnits="userSpaceOnUse" x1="181.57" y1="177.3993" x2="199.322" y2="177.3993">
				<stop  offset="0.016" style="stop-color:#D1A1D6"/>
				<stop  offset="0.9944" style="stop-color:#BD89C4"/>
			</linearGradient>
			<path class="st33" d="M199.32,168.59c0,0-10.83,10.52-17.75,9.38l0.47,8.24c0,0,11.37-0.99,15.07-12.95
				C197.11,173.26,198.44,169.82,199.32,168.59z"/>
		</g>
		<g>
			<linearGradient id="SVGID_27_" gradientUnits="userSpaceOnUse" x1="398.9961" y1="220.6" x2="398.9961" y2="145.0987">
				<stop  offset="0.016" style="stop-color:#FFC2A9"/>
				<stop  offset="1" style="stop-color:#FF9595"/>
			</linearGradient>
			<path class="st34" d="M428.36,182.89c0,0-9.95,18.19-21.6,23.78h-3.98l-9.19,13.93c0,0-5.94-3.73-6.38-15.98
				c0,0,2.08-2.17,2.59-4.62c0,0-3.28-2.58-4.17-4.47c-0.88-1.9-1.2-7.58-1.83-9.92c-0.63-2.34-6-7.2-7.2-7.83
				c-1.2-0.63-6.63-0.95-6.63-0.95s-0.76-1.96,0-2.9c0.76-0.95,9.22-4.24,13.83-1.08c0,0,0.32,2.4,0.82,3.67
				c0.51,1.26,4.55,5.74,5.18,5.74c0.63,0,3.35-2.27,4.55-4.04c1.15-1.7,7.26-14.87,8.74-19.32c0.01-0.05,0.02-0.09,0.04-0.13
				c0.02-0.07,0.05-0.14,0.06-0.2c0.02-0.05,0.03-0.09,0.04-0.13c0.01-0.02,0.02-0.03,0.02-0.05c1.14-3.85,7.77-11.24,11.31-13.26
				c0,0,1.51-0.38,2.33,1.51c0,0-2.84,8.09-5.81,12.89c-0.5,0.81-1.04,1.76-1.6,2.78c0,0,0,0-0.01,0
				c-2.53,4.65-5.38,10.74-5.79,11.63l-0.05,0.11l1.58,0.81l4.27-4.05l4.38-4.15l10.05,10.61l-0.99,1.26l-3.14,4.03l1.59,0.29
				l3.7-4.09L428.36,182.89z"/>
			<linearGradient id="SVGID_28_" gradientUnits="userSpaceOnUse" x1="407.9158" y1="196.41" x2="407.9158" y2="158.9">
				<stop  offset="0" style="stop-color:#FFEADB"/>
				<stop  offset="0.9944" style="stop-color:#C27CB6"/>
			</linearGradient>
			<path class="st35" d="M426.03,186.76l-3.18,4.67c0,0-17.45-13.46-21.24-14.6c-3.79-1.14-5.18-0.38-5.18-0.38l-3.91,4.99
				c0,0,7.2,6.38,7.83,14.97c0,0-2.4-10.86-10.55-14.15c0.63,0,3.35-2.27,4.55-4.04c1.15-1.7,7.26-14.87,8.74-19.32
				c-0.2,0.76-0.46,2.24,0.16,3.41c0.86,1.59,5.92,0.09,6.22,0c0.01,0,0.01,0,0.01,0l-5.8,11.63l-0.05,0.11l1.58,0.81l4.27-4.05
				l-2.14,4.97l15.58,2.75l-3.14,4.03l1.59,0.29L426.03,186.76z"/>
			<linearGradient id="SVGID_29_" gradientUnits="userSpaceOnUse" x1="415.3158" y1="183.4632" x2="415.3158" y2="166.6482">
				<stop  offset="0" style="stop-color:#FFB0B0"/>
				<stop  offset="0.984" style="stop-color:#FFC2A9"/>
			</linearGradient>
			<path class="st36" d="M413.86,166.66c0,0,3.03-0.44,4.99,3.47l-0.44,1.26c0,0,2.95,0.58,5.81,5.37c0,0-2.53,4.61-8.78,6.69
				c0,0-2.91-0.82-3.41-3.28l0.57-1.58l-2.27,1.71c0,0-2.72,0.82-3.92-3.22L413.86,166.66z"/>
			<linearGradient id="SVGID_30_" gradientUnits="userSpaceOnUse" x1="425.0686" y1="186.0526" x2="425.0686" y2="176.8316">
				<stop  offset="0" style="stop-color:#FFB0B0"/>
				<stop  offset="0.984" style="stop-color:#FFC2A9"/>
			</linearGradient>
			<path class="st37" d="M429.27,181.63c0,0,0.63-2.91-2.46-4.8l-6,6.63c0,0,0.18,2.13,2.78,2.59
				C423.59,186.05,427.69,184.66,429.27,181.63z"/>
			<linearGradient id="SVGID_31_" gradientUnits="userSpaceOnUse" x1="385.63" y1="204.4312" x2="402.78" y2="204.4312">
				<stop  offset="0.016" style="stop-color:#D1A1D6"/>
				<stop  offset="0.9944" style="stop-color:#BD89C4"/>
			</linearGradient>
			<path class="st38" d="M385.63,195.53c0,0,6.95,7.76,17.15,11.14l-4.4,6.66l-9.17-11.65l0.59-1.68
				C389.8,200,386.13,197.24,385.63,195.53z"/>
			<path class="st32" d="M418.41,171.4c0,0-2.91,4.8-5.81,7.2l-0.57,1.58c0,0,5.64-3.81,7.71-8.2
				C419.75,171.98,419.07,171.49,418.41,171.4z"/>
		</g>
		<linearGradient id="SVGID_32_" gradientUnits="userSpaceOnUse" x1="361.7628" y1="263.6212" x2="361.7628" y2="179.11">
			<stop  offset="0" style="stop-color:#CCCCFF"/>
			<stop  offset="1" style="stop-color:#755CBB"/>
		</linearGradient>
		<path class="st39" d="M397.44,222.68c-0.88,1.39-5.3,4.3-6.44,5.44c-1.14,1.13,0,4.87,0,4.87
			c-18.57,19.71-37.93,29.58-39.88,30.54c-0.11,0.05-0.16,0.08-0.16,0.08c-1.52,0.19-8.91-1.89-16.3-16.67
			c-6.7-13.39-8.62-22.33-8.93-23.89l-0.04-0.24l1.63-2.21l2.42-27.28l1.7,5.49c6.44-7.77,12.51-19.7,12.51-19.7l0.27,0.86v0.01
			c1.09,4.28,3.33,20.31,5.41,26.03c1.3,3.57,3.35,5.54,4.86,6.56l0.01,0.02l-0.01,0.01c-5.93,5.41-8.87,13.19-10.32,19.38
			c-1.33,5.68-1.42,10.03-1.42,10.03s1.64-7.7,6.82-16.96c1.88-3.37,4.62-6.38,7.33-8.85c2.04-1.86,4.07-3.42,5.72-4.58
			c1.42,0.88,2.62,2.27,3.78,1.69c-7.8,11.71-7.61,34.89-0.28,30.47c7.32-4.42,9-13.8,9-13.8c-1.73-11.43-1.21-24.32,0.18-26.77
			c1.69,0.06,6.52,3.45,6.8,3.37c-0.44,13.45,5.88,22.43,5.88,22.43l4.17-6.45c-6.07-10.23-5.62-20.19-5.62-20.19
			c0.25-0.11,1.72,0.97,1.72,0.97l-1.03,1.28c1.58,9.1,6.76,15.22,6.76,15.22l3.47-5.08C397.44,214.76,398.33,221.29,397.44,222.68z
			"/>
		<linearGradient id="SVGID_33_" gradientUnits="userSpaceOnUse" x1="175.69" y1="246.5946" x2="317.04" y2="246.5946">
			<stop  offset="0" style="stop-color:#CCCCFF"/>
			<stop  offset="1" style="stop-color:#755CBB"/>
		</linearGradient>
		<path class="st40" d="M317.04,306.81v3.98l-0.07,0.07l-0.22,0.2l-0.18,0.15c-1.8,1.42-9.43,6.07-33.27,7.35
			c-28.25,1.51-47.07-7.58-47.07-7.58l1.42-3.89c0,0-1.32-1.13-1.42-1.7c-0.09-0.57,1.04-1.9,1.04-1.9s-2.84-1.51-2.84-3.41
			c0-1.71,4.64-6.66,5.39-11.31c0.09-0.5,0.13-0.99,0.11-1.48c-0.19-5-4.51-9.43-5.11-12.27c-0.01-0.03-0.01-0.04-0.01-0.04
			c-0.57-2.84,7.39-9.85,7.39-9.85c-6.82-21.6-8.15-50.59-8.15-50.59l-1.32-1.52c0,0-8.15,18.57-15.54,27.66
			c-7.39,9.1-18.19,16.87-20.08,16.49c-4.36,0-9.23-7.58-13.65-16.93c-4.42-9.35-4.69-36.21-4.92-37.87
			c-0.24-1.66-2.7-4.98-2.85-6.4c4.74,8.15,12.29,5.75,12.29,5.75c-5.47,0.12-8.31-10.11-8.31-10.11l-0.03-0.07l-0.03-0.07
			l-2.67-7.05c0.3,0.34,6.55,7.33,12.59,3.02c6.19-4.42,9.38-12.98,9.38-12.98v10.99c0,0,0.37,1.71,0.94,1.71
			c-0.37,5.06-1.44,11.22-2.74,17.29c-2.81,13.13-6.66,25.81-6.66,25.81s10.44-5.68,14.11-20.08c1.75-6.89,2.04-12.88,1.87-17.24
			c-0.15-3.73-0.64-6.28-0.84-7.21c-0.01-0.07-0.03-0.14-0.05-0.21c0-0.03-0.01-0.07-0.02-0.1c0-0.02-0.01-0.04-0.01-0.05l1.01,2.14
			l1.92,4.76c2.23,18.48-2.37,46.33-2.37,46.33c6.7-8.34,8.09-26.78,7.8-31.26c-0.13-2.14-0.3-4.78-0.41-6.94
			c-0.15-2.36-0.25-4.15-0.25-4.15l13.71,8.18l-2.53-8.02l9.98,8.02c0,0,8.97,10.8,18.19,12.06c9.22,1.27,43.07,0.51,43.07,0.51
			s-29.43,1.89-38.02,4.42c-8.59,2.53-10.23,5.43-10.23,5.43c6.21,31.59,40.58,42.24,41.65,42.56
			c-31.18-4.68-45.69-31.19-45.69-31.19s-0.51,14.91,1.89,20.59c2.4,5.68,16.55,19.58,34.74,22.48c1.53,0.24,3.04,0.39,4.53,0.46
			c15.34,0.72,28.04-7.12,29.34-7.96c0.07-0.05,0.11-0.07,0.11-0.07s-0.01,0.02-0.03,0.05c-0.49,0.75-6.78,9.59-32.18,10.56
			c-1.54,0.06-3.04,0.05-4.5-0.01c-0.01,0-0.02,0-0.02,0c-23.54-0.99-35.53-16.67-35.53-16.67s-8.71,4.68-3.15,11.62
			c0.06,0.07,0.12,0.15,0.18,0.22c1.64,1.89,5.25,4.2,9.52,6.58c0.12,0.07,0.24,0.14,0.35,0.2c5.16,2.85,11.21,5.79,15.89,8.22
			c0.03,0.01,0.05,0.02,0.07,0.03c2.86,1.49,5.21,2.77,6.52,3.73c0.01,0,0.01,0.01,0.01,0.01c1.32,0.96,1.59,1.58,0.3,1.73
			c-6.57,0.76-31.45-4.67-32.46-3.16c-1.01,1.52,1.23,5.43,1.23,5.43c22.84,11.32,71.71,5.74,73.25,5.57
			c-40.9,10.47-74.36-2.79-74.36-2.79l1.11,3.92c0,0,18.22,6.31,39.69,6.82c21.48,0.5,34.87-4.99,34.87-4.99L317.04,306.81z"/>
		<linearGradient id="SVGID_34_" gradientUnits="userSpaceOnUse" x1="300.3053" y1="222.9415" x2="327.3233" y2="222.9415">
			<stop  offset="0" style="stop-color:#CCEDFF"/>
			<stop  offset="1" style="stop-color:#755CBB"/>
		</linearGradient>
		<path class="st41" d="M300.31,216.87c0,0,16.27,0.88,27.02,3.73l-5.54,8.41C321.78,229.01,313.44,221.67,300.31,216.87z"/>
		<linearGradient id="SVGID_35_" gradientUnits="userSpaceOnUse" x1="275.8" y1="270.358" x2="315.5061" y2="270.358">
			<stop  offset="0" style="stop-color:#CCEDFF"/>
			<stop  offset="1" style="stop-color:#755CBB"/>
		</linearGradient>
		<path class="st42" d="M315.51,261.71c0,0-10.15,8.47-20.13,12.38c-9.98,3.92-19.58,4.29-19.58,4.29s5.74,1.71,19.85-0.57
			c14.12-2.27,18.95-9.92,18.95-9.92L315.51,261.71z"/>
		<linearGradient id="SVGID_36_" gradientUnits="userSpaceOnUse" x1="277.6388" y1="288.3118" x2="320.06" y2="288.3118">
			<stop  offset="0" style="stop-color:#CCEDFF"/>
			<stop  offset="1" style="stop-color:#755CBB"/>
		</linearGradient>
		<path class="st43" d="M320.06,294.32L320.06,294.32c-18.78,4.86-42.62-2.1-42.42-2.95c0.2-0.85,6.53,0.38,21.21-2.56
			c14.23-2.85,19.39-7.91,19.7-8.22c-0.12,0.86-2.08,2.75-2.64,4.81C315.53,286.77,318.19,291.09,320.06,294.32z"/>
		<linearGradient id="SVGID_37_" gradientUnits="userSpaceOnUse" x1="241.13" y1="243.86" x2="241.13" y2="196.25">
			<stop  offset="0" style="stop-color:#CCEDFF"/>
			<stop  offset="1" style="stop-color:#755CBB"/>
		</linearGradient>
		<path class="st44" d="M269.05,219.42c-16.04,1.63-20.36,6.1-20.36,6.1c-4.51,0.57-14.64-10.98-14.64-10.98l-1.32-1.52
			c0,0-8.15,18.57-15.54,27.66c-0.88,1.08-1.81,2.15-2.77,3.18l1.05-2.36c0,0,1.72-0.82,2.22-9.85c0.51-9.02-3.79-22.48-3.82-24.31
			s-0.66-11.09-0.66-11.09l13.71,8.18l-2.53-8.02l9.98,8.02c0,0,3.91,5.88,13.78,10.78C257.46,219.84,267.9,219.47,269.05,219.42z"
			/>
		<linearGradient id="SVGID_38_" gradientUnits="userSpaceOnUse" x1="244.9629" y1="247.8622" x2="244.9629" y2="211.7722">
			<stop  offset="0" style="stop-color:#CCEDFF"/>
			<stop  offset="1" style="stop-color:#755CBB"/>
		</linearGradient>
		<path class="st45" d="M232.73,213.02l9.56-1.25c0,0,3.82,2.53,11.49,5.65l-6.39,9.43c0,0,2.54,13.44,9.82,21.01
			c0,0-19.32-10.73-22.04-19.75L232.73,213.02z"/>
		<linearGradient id="SVGID_39_" gradientUnits="userSpaceOnUse" x1="187.925" y1="201.7273" x2="187.925" y2="174.46">
			<stop  offset="0" style="stop-color:#CCEDFF"/>
			<stop  offset="1" style="stop-color:#755CBB"/>
		</linearGradient>
		<path class="st46" d="M176.94,184.42l2.73,7.19c0,0,2.78,9.7,8.31,10.11c5.53,0.41,10.93-16.27,10.93-16.27v-10.99
			c0,0-5.88,12.6-12.23,14.02C180.34,189.91,176.94,184.42,176.94,184.42z"/>
		<linearGradient id="SVGID_40_" gradientUnits="userSpaceOnUse" x1="209.99" y1="177.7153" x2="220.9789" y2="177.7153">
			<stop  offset="0" style="stop-color:#CCEDFF"/>
			<stop  offset="1" style="stop-color:#755CBB"/>
		</linearGradient>
		<path class="st47" d="M209.99,178.73c0,0,4.93,9.85,10.99,12.88c0,0-7.21-17.5-5.69-27.79
			C215.29,163.82,212.64,165.47,209.99,178.73z"/>
		<linearGradient id="SVGID_41_" gradientUnits="userSpaceOnUse" x1="329.4473" y1="243.86" x2="329.4473" y2="193.32">
			<stop  offset="0" style="stop-color:#CCCCFF"/>
			<stop  offset="1" style="stop-color:#755CBB"/>
		</linearGradient>
		<path class="st48" d="M329.74,193.32l1.7,5.49l1.72,45.05c0,0-4.37-8.57-7.43-20.81l1.59-2.45
			C327.32,220.6,330,203.62,329.74,193.32z"/>
		<linearGradient id="SVGID_42_" gradientUnits="userSpaceOnUse" x1="386.2679" y1="232.99" x2="386.2679" y2="206.58">
			<stop  offset="0" style="stop-color:#CCCCFF"/>
			<stop  offset="1" style="stop-color:#755CBB"/>
		</linearGradient>
		<path class="st49" d="M382.09,206.58c0,0-0.96,22.13,8.44,24.04l0.47,2.37C391,232.99,378.83,232.54,382.09,206.58z"/>
		<linearGradient id="SVGID_43_" gradientUnits="userSpaceOnUse" x1="356.3158" y1="231.81" x2="356.3158" y2="211.62">
			<stop  offset="0" style="stop-color:#CCCCFF"/>
			<stop  offset="1" style="stop-color:#755CBB"/>
		</linearGradient>
		<path class="st50" d="M366.4,213.31c0,0-0.36,0.79-3.78-1.69c0,0-11.83,8.38-16.39,20.19c0,0,7.29-10.85,11.17-12.02
			c3.88-1.17,4.82,3.16,4.82,3.16S363.76,216.84,366.4,213.31z"/>
		<linearGradient id="SVGID_44_" gradientUnits="userSpaceOnUse" x1="182.2174" y1="203.4679" x2="182.2174" y2="195.97">
			<stop  offset="0" style="stop-color:#CCEDFF"/>
			<stop  offset="1" style="stop-color:#755CBB"/>
		</linearGradient>
		<path class="st51" d="M175.69,195.97c0,0,4.55,8.39,13.08,5.76c0,0-5.11,3.44-10.23,0.64
			C178.54,202.37,175.36,196.92,175.69,195.97z"/>
		<linearGradient id="SVGID_45_" gradientUnits="userSpaceOnUse" x1="202.2462" y1="226.3269" x2="202.2462" y2="185.35">
			<stop  offset="0" style="stop-color:#CCCCFF"/>
			<stop  offset="1" style="stop-color:#755CBB"/>
		</linearGradient>
		<path class="st52" d="M205.5,185.35c0,0,6.26,23.4-10.07,40.98c0,0,10.6-5.44,13.01-18.04
			C210.84,195.68,205.5,185.35,205.5,185.35z"/>
		<linearGradient id="SVGID_46_" gradientUnits="userSpaceOnUse" x1="307.6695" y1="197.4842" x2="307.6695" y2="166.6482">
			<stop  offset="0" style="stop-color:#CCEDFF"/>
			<stop  offset="1" style="stop-color:#755CBB"/>
		</linearGradient>
		<path class="st53" d="M317.64,166.65c0,0-0.7,10.56-5.77,18.14c-5.06,7.58-15.1,12.69-15.1,12.69s12.6-4.64,18.38-11.18
			C320.93,179.77,317.64,166.65,317.64,166.65z"/>
		<linearGradient id="SVGID_47_" gradientUnits="userSpaceOnUse" x1="267.2717" y1="193.3158" x2="267.2717" y2="150.7562">
			<stop  offset="0" style="stop-color:#CCEDFF"/>
			<stop  offset="1" style="stop-color:#755CBB"/>
		</linearGradient>
		<path class="st54" d="M253.19,150.76c0,0,0,8.83,2.84,17.83c2.84,9,27.51,24.73,27.51,24.73s-25.43-10.56-30.35-20.06
			C248.26,163.76,253.19,150.76,253.19,150.76z"/>
		<linearGradient id="SVGID_48_" gradientUnits="userSpaceOnUse" x1="252.901" y1="201.0999" x2="323.9855" y2="201.0999">
			<stop  offset="0" style="stop-color:#8642A0"/>
			<stop  offset="1" style="stop-color:#6456C0"/>
		</linearGradient>
		<path class="st55" d="M252.9,192.82v14.38c0,0,33.11-0.27,70.24,2.19l0.85-12.95C323.99,196.45,291.71,192.62,252.9,192.82z"/>
		<g>
			<path class="st56" d="M259.04,196.1c0.01-0.25,0.13-0.36,0.35-0.36l6.71,0.2c0.66,0.02,1.23,0.12,1.69,0.3
				c0.46,0.18,0.83,0.43,1.11,0.75s0.47,0.69,0.59,1.14c0.12,0.44,0.17,0.93,0.15,1.47l-0.06,1.84c-0.02,0.54-0.1,1.03-0.24,1.46
				c-0.14,0.43-0.36,0.8-0.66,1.1c-0.3,0.3-0.68,0.52-1.15,0.68c-0.47,0.15-1.04,0.22-1.7,0.2l-3.61-0.11l-0.75-2.11l-0.1,0
				l-0.06,2.09l-2.53-0.08L259.04,196.1z M261.38,202.43l4.29,0.13c0.48,0.01,0.83-0.08,1.04-0.29c0.21-0.21,0.32-0.58,0.34-1.12
				l0.05-1.5c0.02-0.56-0.07-0.94-0.27-1.15c-0.2-0.21-0.54-0.32-1.02-0.33l-4.1-0.12c-0.06,0-0.1,0.02-0.14,0.05
				c-0.03,0.04-0.05,0.08-0.05,0.13L261.38,202.43z"/>
			<path class="st56" d="M273.27,199.93l-0.09,0l-0.08,2.68c0,0.11,0.05,0.17,0.17,0.18l7.54,0.23l-0.07,2.32l-9.89-0.3
				c-0.24-0.01-0.35-0.13-0.35-0.38l0.25-8.21c0.01-0.25,0.13-0.36,0.37-0.36l9.61,0.29c0.25,0.01,0.37,0.13,0.36,0.38l-0.07,2.32
				l-2.37,0.8l-0.1,0l0.04-1.19c0-0.09-0.04-0.14-0.12-0.14l-5.07-0.15c-0.07,0-0.11,0.02-0.13,0.05c-0.02,0.04-0.03,0.08-0.03,0.12
				l-0.03,1.12l4.18,0.13l-0.06,1.82l-3.5-0.11L273.27,199.93z"/>
			<path class="st56" d="M290.04,199.77l-0.1,0l0.03-0.98c0-0.1-0.04-0.15-0.14-0.15l-4.72-0.14c-0.17,0-0.29,0.03-0.36,0.1
				c-0.07,0.07-0.1,0.18-0.11,0.32l-0.01,0.22c-0.01,0.17,0.02,0.28,0.08,0.33c0.06,0.05,0.17,0.09,0.33,0.12l5.53,0.94
				c0.35,0.06,0.65,0.15,0.89,0.25c0.24,0.11,0.44,0.25,0.59,0.42c0.15,0.17,0.25,0.38,0.31,0.63c0.06,0.25,0.08,0.54,0.07,0.88
				l-0.02,0.71c-0.01,0.37-0.07,0.69-0.17,0.97c-0.1,0.28-0.25,0.51-0.46,0.7c-0.21,0.19-0.49,0.32-0.82,0.41
				c-0.34,0.09-0.75,0.12-1.24,0.11l-7.96-0.24l0.07-2.32l7.14,0.22c0.21,0.01,0.36-0.03,0.43-0.1c0.07-0.08,0.11-0.21,0.12-0.41
				l0.01-0.25c0-0.16-0.02-0.27-0.07-0.33c-0.05-0.06-0.15-0.11-0.31-0.13l-5.34-0.84c-0.36-0.06-0.67-0.14-0.92-0.25
				c-0.25-0.11-0.46-0.24-0.62-0.41c-0.16-0.17-0.27-0.37-0.34-0.61c-0.07-0.24-0.09-0.52-0.08-0.85l0.02-0.63
				c0.02-0.65,0.21-1.14,0.56-1.49c0.36-0.35,0.93-0.51,1.74-0.48l7.95,0.24c0.25,0.01,0.38,0.14,0.37,0.4l-0.06,1.84L290.04,199.77
				z"/>
			<path class="st56" d="M293.4,205.72l0.27-8.94l2.53,0.08l-0.27,8.94L293.4,205.72z"/>
			<path class="st56" d="M305.32,202.25c0-0.13,0-0.27-0.01-0.41c-0.01-0.14-0.02-0.27-0.03-0.38l0-0.11l2.51,0.08l-0.13,4.39
				c-0.01,0.23-0.11,0.34-0.32,0.33l-6.73-0.2c-0.66-0.02-1.23-0.12-1.69-0.3c-0.46-0.18-0.83-0.43-1.11-0.75
				c-0.28-0.32-0.48-0.69-0.59-1.14c-0.12-0.44-0.17-0.93-0.15-1.47l0.06-1.84c0.02-0.54,0.1-1.03,0.24-1.46
				c0.14-0.43,0.36-0.8,0.66-1.1c0.3-0.3,0.68-0.52,1.15-0.68c0.47-0.15,1.04-0.22,1.7-0.2l6.69,0.2c0.24,0.01,0.35,0.13,0.35,0.38
				l-0.06,1.93l-2.37,0.79l-0.1,0l0.03-0.86c0-0.08-0.03-0.12-0.11-0.13l-4.27-0.13c-0.25-0.01-0.45,0.01-0.62,0.05
				c-0.17,0.04-0.31,0.11-0.42,0.22c-0.11,0.11-0.19,0.25-0.25,0.44c-0.05,0.18-0.09,0.41-0.1,0.68l-0.05,1.57
				c-0.02,0.54,0.07,0.92,0.27,1.14c0.2,0.22,0.54,0.34,1.02,0.35l4.24,0.13c0.09,0,0.14-0.04,0.14-0.14L305.32,202.25z"/>
			<path class="st56" d="M313.14,197.37c0.19,0.01,0.32,0.04,0.4,0.1c0.08,0.06,0.14,0.15,0.21,0.28l3.2,6.53
				c0.05,0.1,0.13,0.15,0.23,0.15l0.13,0c0.13,0,0.2-0.06,0.2-0.19l0.2-6.73l2.3,0.07l-0.26,8.59c-0.01,0.24-0.12,0.35-0.35,0.34
				l-3.64-0.11c-0.17,0-0.3-0.03-0.38-0.09c-0.08-0.05-0.16-0.15-0.23-0.29l-3.32-6.52c-0.05-0.1-0.12-0.15-0.23-0.15l-0.12,0
				c-0.13,0-0.2,0.06-0.2,0.19l-0.2,6.72l-2.3-0.07l0.26-8.58c0.01-0.25,0.12-0.36,0.35-0.36L313.14,197.37z"/>
		</g>
		<linearGradient id="SVGID_49_" gradientUnits="userSpaceOnUse" x1="259.03" y1="160.08" x2="305.29" y2="160.08">
			<stop  offset="0" style="stop-color:#CCCCFF"/>
			<stop  offset="1" style="stop-color:#755CBB"/>
		</linearGradient>
		<path class="st57" d="M305.29,152.67c-0.78,9.3-3.61,15.78-6.63,20.15c-4.16,6-8.66,8.05-8.66,8.05c-4.5-1.96-8.4-4.4-11.76-7.09
			c-14.26-11.4-18.86-27.2-19.21-28.5c6.02,14.54,14.86,23.35,21.56,28.31c5.4,4.01,9.41,5.52,9.41,5.52v-4.65
			c-1.07-0.4-2.11-0.86-3.1-1.36c-11.8-5.95-18-18.35-20.9-26.37c-0.01-0.02-0.01-0.03-0.02-0.05c-1.57-4.34-2.18-7.39-2.18-7.39
			h2.14l-0.7,1.5l-0.03,0.05c0.34,1.52,0.73,2.98,1.17,4.37c0.01,0.04,0.02,0.08,0.04,0.11c6.6,20.82,23.58,27.53,23.58,27.53
			c11.8-8.71,11.57-22.54,11.57-22.54v-1.9l2.21,0.66L305.29,152.67z"/>
		<linearGradient id="SVGID_50_" gradientUnits="userSpaceOnUse" x1="377.9513" y1="229.9789" x2="377.9513" y2="203.2074">
			<stop  offset="0" style="stop-color:#CCCCFF"/>
			<stop  offset="1" style="stop-color:#755CBB"/>
		</linearGradient>
		<path class="st58" d="M375.29,203.21c0,0-3.21,10.48-0.18,26.77c0,0,1.52-20.65,2.65-22.45c1.14-1.8,4.32-0.95,4.32-0.95
			S377.08,203.81,375.29,203.21z"/>
		<linearGradient id="SVGID_51_" gradientUnits="userSpaceOnUse" x1="340.11" y1="260.18" x2="340.11" y2="179.11">
			<stop  offset="0" style="stop-color:#CCCCFF"/>
			<stop  offset="1" style="stop-color:#755CBB"/>
		</linearGradient>
		<path class="st59" d="M344.17,260.18c-2.8-2.45-6.16-6.54-9.51-13.24c-6.7-13.39-8.62-22.33-8.93-23.89l1.59-2.45l2.13-20.6
			l1.99-1.19c0,0,7.11-7.85,12.51-19.7c0.08,0.18,0.17,0.46,0.27,0.86v0.01c1.09,4.28,3.33,20.31,5.41,26.03
			c1.3,3.57,3.35,5.54,4.86,6.56c0,0-12.31,18.26-12.91,31.29C341.05,255.72,343.69,259.58,344.17,260.18z"/>
		<linearGradient id="SVGID_52_" gradientUnits="userSpaceOnUse" x1="252.95" y1="298.26" x2="252.95" y2="275.02">
			<stop  offset="0" style="stop-color:#CCCCFF"/>
			<stop  offset="1" style="stop-color:#755CBB"/>
		</linearGradient>
		<path class="st60" d="M271.08,298.26c0,0-22.19-3.64-31.25-9.48c0,0-0.01,0-0.01-0.01c0.09-0.5,0.13-0.99,0.11-1.48
			c-0.19-5-4.51-9.43-5.11-12.27c0.1,0.27,0.75,1.77,3.9,4.47c1.99,1.71,5,3.91,9.52,6.58c0.12,0.07,0.24,0.14,0.35,0.2
			c6.4,3.78,11.91,6.34,15.89,8.22c0.03,0.01,0.05,0.02,0.07,0.03c3.58,1.68,5.9,2.79,6.52,3.73
			C271.08,298.25,271.08,298.26,271.08,298.26z"/>
		<linearGradient id="SVGID_53_" gradientUnits="userSpaceOnUse" x1="298.095" y1="291.8761" x2="298.095" y2="280.59">
			<stop  offset="0" style="stop-color:#CCCCFF"/>
			<stop  offset="1" style="stop-color:#755CBB"/>
		</linearGradient>
		<path class="st61" d="M318.55,280.59c-0.12,0.86-2.08,2.75-2.64,4.81c0,0-8.14,8.62-38.27,5.97c0.2-0.85,6.53,0.38,21.21-2.56
			C313.08,285.96,318.24,280.9,318.55,280.59z"/>
		<path class="st62" d="M323.56,163.96l-19.26,6.24l-5.64,2.62l-0.03,0.01l-3.67,0.01l-4.96,0.01l-3.1,0.25l-1.64,0.12l-4.67,0.37
			l-2.35,0.19l-23.1-8.36l-4.13-1.49l-19-6.88c0.56-0.22,1.13-0.44,1.73-0.68c12.75-5.05,25.26-11.18,25.26-11.18l4.8-5.9h2.14
			c1.91-4.18,3.18-8.09,4-11.17l1.27-5.71c0.09-0.55,0.13-0.85,0.13-0.85l6.8,3.59l22.93,18.34c-0.02,1.25,0.02,2.37,0.09,3.32
			l0.33,2.31c0.06-0.45,0.08-0.71,0.08-0.71l2.21,0.66l1.51,3.6c0,0,2.56,3.98,12.7,8.44C319.74,161.88,321.62,162.85,323.56,163.96
			z"/>
		<g>
			<linearGradient id="SVGID_54_" gradientUnits="userSpaceOnUse" x1="297.5975" y1="146.8119" x2="297.5975" y2="69.6049">
				<stop  offset="0.016" style="stop-color:#FFC2A9"/>
				<stop  offset="1" style="stop-color:#FF9595"/>
			</linearGradient>
			<path class="st63" d="M308.89,146.39c0,0-8.98,2.02-18.89-2.78s-18.24-18.95-18.75-22.48c-0.5-3.54,3.79-12.76,3.79-19.96
				c0-7.2-3.53-19.58,2.4-26.28c5.94-6.69,33.22-7.7,42.07,0.89c0,0,2.74,6.88,2.74,10.77c0,0.94-0.17,2.32-0.42,3.91
				c-0.08,0.59-0.19,1.22-0.29,1.87c-0.79,4.71-1.88,10.46-1.37,12.98c0.18,0.88,0.46,1.69,0.79,2.46v0.01
				c1.09,2.52,2.71,4.53,3,6.71C324.34,117.34,320.52,137.55,308.89,146.39z"/>
			<linearGradient id="SVGID_55_" gradientUnits="userSpaceOnUse" x1="268.8155" y1="115.6572" x2="268.8155" y2="92.8947">
				<stop  offset="0.016" style="stop-color:#FFC2A9"/>
				<stop  offset="1" style="stop-color:#FF9595"/>
			</linearGradient>
			<path class="st64" d="M274.97,99.14c0,0-2.45-6.15-8.61-6.24c0,0-3.6,1.42-4.17,4.17c0,0,1.33,9.95,2.84,14.59
				c1.52,4.64,7.07,3.97,7.07,3.97S276.94,108.22,274.97,99.14z"/>
			<linearGradient id="SVGID_56_" gradientUnits="userSpaceOnUse" x1="308.3286" y1="124.2652" x2="309.283" y2="119.296">
				<stop  offset="0" style="stop-color:#E1616A"/>
				<stop  offset="1" style="stop-color:#FF8883"/>
			</linearGradient>
			<path class="st65" d="M298.63,119.39c0,0,2.05-0.16,2.93,0.5c0.88,0.66,4.11,3.79,8.18,4.64c4.07,0.85,6.81-2.62,7.67-2.79
				c0.87-0.18,1.82,1.05,1.82,1.05s-0.37-1.42-2.5-2.06c0,0-0.86,3.27-6.76,2.15c-5.9-1.12-8.42-3.74-8.42-3.74l-0.3-0.54
				C301.27,118.6,299.6,118.95,298.63,119.39z"/>
			<linearGradient id="SVGID_57_" gradientUnits="userSpaceOnUse" x1="299.7135" y1="120.4631" x2="299.7135" y2="70.7263">
				<stop  offset="0" style="stop-color:#FFEADB"/>
				<stop  offset="0.9944" style="stop-color:#C27CB6"/>
			</linearGradient>
			<path class="st66" d="M289.92,88.8l0.08-0.63c0,0,5.89-10.34,17.54-10.62c11.65-0.28,14.28,7.02,14.28,7.02l2.16-3.28l-4.92-9.99
				l-34.24-0.57l-8.34,6.73l-1.05,16.47l3.71,21.74l9.02,4.81l2.55-2.26c-0.94-7.28-6.35-13.93-6.35-13.93l3.95-2.74
				c0,0,10.14,4.91,15.99,3.44c0,0,4.41-12.86,4.15-22.38C308.45,82.59,293.44,84.81,289.92,88.8z"/>
			<path class="st67" d="M289.4,89.56c0,0,0.57-3.72,6.85-5.21c7-1.66,12.69-3.06,12.69-3.06s-1.24,4.08-3.57,5.61
				c0,0-7.41-0.27-11.15,0.58C290.46,88.34,289.4,89.56,289.4,89.56z"/>
			<path class="st67" d="M321.83,84.57c0,0-3.55,2.74-5.97,9.28c0,0,2.32-3.03,4.45-2.98c1.46,0.03,1.23,1.48,1.23,1.48
				S322.99,88.43,321.83,84.57z"/>
			<linearGradient id="SVGID_58_" gradientUnits="userSpaceOnUse" x1="297.2895" y1="100.0947" x2="297.2895" y2="90.2421">
				<stop  offset="0" style="stop-color:#CF6074"/>
				<stop  offset="1" style="stop-color:#F37270"/>
			</linearGradient>
			<path class="st68" d="M291.75,100.09c0,0,0.38-7.86,8.05-9.85c0,0,2.75,3.55,3.03,7.58C302.83,97.82,298.76,97.06,291.75,100.09z
				"/>
			<linearGradient id="SVGID_59_" gradientUnits="userSpaceOnUse" x1="316.9416" y1="103.2211" x2="316.9416" y2="94.6474">
				<stop  offset="0" style="stop-color:#CF6074"/>
				<stop  offset="1" style="stop-color:#FF817F"/>
			</linearGradient>
			<path class="st69" d="M313.73,103.22c0,0,0.62-6.26,4.22-8.57c0,0,2.45,1.84,2.2,7.08C320.14,101.72,317.99,100.95,313.73,103.22
				z"/>
			<path class="st70" d="M291.75,100.09c0,0,2.49,3.06,9.47,3.66c0,0,1.33-2.02,1.2-5.99C302.42,97.77,296.01,97.16,291.75,100.09z"
				/>
			<path class="st70" d="M313.73,103.22v0.92c0,0,1.07,2.24,4.93,2.62c0,0,1.24-1.93,1.35-5.07
				C320,101.69,317.55,101.07,313.73,103.22z"/>
			<path class="st71" d="M299.21,97.61c0,0-1.77,2.15-1.61,5.55c0,0,2.32,0.55,3.62,0.6c0,0,1.53-2.13,1.2-5.99
				C302.42,97.77,300.39,97.34,299.21,97.61z"/>
			<path class="st71" d="M317.38,101.79c0,0-1,1.07-1.19,4.36c0,0,1.37,0.6,2.46,0.6c0,0,1.4-1.99,1.35-5.07
				C320,101.69,319.02,101.31,317.38,101.79z"/>
			<path class="st67" d="M298.63,103.39c0,0-0.63-4.25,1.8-5.87l1.99,0.25c0,0,0.66,3.36-1.2,5.99
				C301.22,103.76,299.24,103.53,298.63,103.39z"/>
			<path class="st67" d="M318.26,101.61c0,0-0.9,1.89-1.32,4.83c0,0,0.69,0.28,1.71,0.32c0,0,1.36-1.67,1.35-5.07
				C320,101.69,318.96,101.41,318.26,101.61z"/>
			<path class="st72" d="M291.75,100.09c0,0,4.64-2.7,12.55-1.16l-1.47-1.11C302.83,97.82,297.19,96.07,291.75,100.09z"/>
			<path class="st72" d="M313.73,103.22c0,0,3.72-1.98,8.06-0.93l-1.79-1.32C320,100.97,317.09,100.52,313.73,103.22z"/>
			<path class="st11" d="M296.77,100.09c0,0,1.26-0.28,2.4,0.87C299.17,100.97,297.61,101.42,296.77,100.09z"/>
			<path class="st11" d="M315.43,103.76c0,0,1.98-0.38,2.66,0.52C318.1,104.28,317.04,105,315.43,103.76z"/>
			<path class="st73" d="M292.21,100.55c0,0,3.61,3.57,9.39,4.42l0.15-2.1l-0.53,0.89C301.22,103.76,295.67,103.43,292.21,100.55z"
				/>
			<path class="st73" d="M313.73,104.14c0,0,0.64,2.31,5.34,3.35l-0.15-1.13l-0.26,0.4C318.65,106.76,315.31,106.33,313.73,104.14z"
				/>
			<path class="st74" d="M304.3,113.36c0,0,1.75-0.38,4.97,0c3.22,0.38,6.84,1.26,8.82,0c0,0-2.63,2.63-4.91,3.03
				c-2.28,0.4-5.75-1.6-5.75-1.6l-1.52,0.03C305.93,114.82,304.76,114.24,304.3,113.36z"/>
			<path class="st75" d="M306.15,114.81c0,0,0.79-0.51,1.45-0.38c0.66,0.13,1.34,1.09,1.34,1.09S307.54,114.78,306.15,114.81z"/>
			<path class="st76" d="M318.1,113.36c0.84-0.82-3.52-8.58-5.6-8.87c-2.08-0.29-4.04,8.7-4.04,8.7s2.9,0.41,5.71,0.78
				C316.97,114.35,318.1,113.36,318.1,113.36z"/>
			<linearGradient id="SVGID_60_" gradientUnits="userSpaceOnUse" x1="317.7484" y1="108.21" x2="317.7484" y2="88.9167">
				<stop  offset="0" style="stop-color:#FFEADB"/>
				<stop  offset="0.9944" style="stop-color:#C27CB6"/>
			</linearGradient>
			<path class="st77" d="M321.21,88.92c-1.18-0.15-5.35,4.92-5.35,4.92s-2.65,8.21-2.13,10.64c0.52,2.44,6.96,3.73,6.96,3.73
				l0.27-0.43v-0.01c-0.33-0.77-0.61-1.58-0.79-2.46c-0.51-2.52,0.58-8.27,1.37-12.98c0,0,0.26-0.97,0.29-1.87
				C321.86,89.7,321.75,88.98,321.21,88.92z"/>
			<linearGradient id="SVGID_61_" gradientUnits="userSpaceOnUse" x1="298.6336" y1="147.7828" x2="298.6336" y2="54.15">
				<stop  offset="0" style="stop-color:#2E33A0"/>
				<stop  offset="1" style="stop-color:#0665A5"/>
			</linearGradient>
			<path class="st78" d="M321.02,122.26c-1.33-2.78-0.51-4.23-12.06-5.74c-16.35-2.15-17.75,2.84-20.53,2.08
				c-0.1-0.03-0.22-0.07-0.33-0.12c-3.01-1.17-10.1-8.14-10.28-17.53c-0.19-9.76,6.35-16.68,6.35-16.68
				c-2.37-1.99-3.32-7.76-0.76-10.23c2.56-2.46,6.92-1.89,17.62-0.76c10.71,1.14,10.71,0.48,10.71,0.48c3.4,0.87,5.35,4.06,5.9,5.08
				c0.11,0.2,0.16,0.32,0.16,0.32l1.33-1.23c3.6,5.21,2.94,10.89,2.94,10.89s5.87-11.94,5.2-13.63c-1.22-3.12-4.61-7.67-4.82-7.96
				l-0.01-0.01c0,0-0.95-9.09-3.79-9.09s-14.97,2.74-14.97,2.74c1.33-3.12,1.14-6.72,1.14-6.72s-0.02,0.02-0.05,0.05
				c-3.96,3.55-7.83,3.94-13.31,6.48c-2.76,1.29-4.06,2.48-5.13,3.72l-0.37,0.44l-0.39,0.47c-0.38,0.48-0.77,0.97-1.24,1.47
				c-0.02,0.03-0.05,0.05-0.06,0.06c-0.02,0.02-0.03,0.03-0.03,0.03c-0.44,0.48-0.96,0.97-1.59,1.49
				c-3.6,2.93-11.52,4.89-12.47,7.99c-0.95,3.09,1.2,7.32,2.34,11.68c1.13,4.36,0.61,8.21,0.61,8.21s3.77,4.86,2.52,11.97
				c-1.11,6.37-3.54,7.41-3.54,7.41c-1.71,3.51-0.9,6.79-0.9,6.79c3.5,13.92,17.98,22.21,17.98,22.21
				c12.88,4.8,21.35,2.71,21.35,2.71s0,0,0.01-0.01c9.37-6.11,12.58-26.33,12.72-27.27C323.11,120.3,321.37,123,321.02,122.26z
				 M315.24,135.15c-2.27-0.38-2.75-6.13-3.5-6.89c-0.76-0.75-4.87-0.44-4.87-0.44s-3.79,4.3-5.3,4.42
				c-1.52,0.13-9.6-3.16-7.85-8.08c1.74-4.93,7.85-5.56,7.85-5.56s3.16,2.65,7.89,2.96c4.74,0.31,6.45-0.56,7.01-0.81
				c0.57-0.26,3.62,1.13,3.54,5.43C319.96,129.17,317.52,135.53,315.24,135.15z"/>
			<path class="st79" d="M314.65,106.21c0,0,4.08,5.07,3.69,6.98c-0.43,2.09-5.16,3.2-5.16,3.2s3.79-1.31,4.57-3.2
				C317.76,113.19,316.78,109.35,314.65,106.21z"/>
			<linearGradient id="SVGID_62_" gradientUnits="userSpaceOnUse" x1="323.2267" y1="88.82" x2="323.2267" y2="67.22">
				<stop  offset="0" style="stop-color:#FFEADB"/>
				<stop  offset="0.9944" style="stop-color:#8860C7"/>
			</linearGradient>
			<path class="st80" d="M322.07,88.82c0,0,0.66-5.68-2.94-10.89c2.89-5.16,3.31-10.71,3.31-10.71l0.01,0.01
				c0.98,2.41,1.54,7.1,1.54,7.1l3.28,0.86C327.94,76.88,322.07,88.82,322.07,88.82z"/>
			<linearGradient id="SVGID_63_" gradientUnits="userSpaceOnUse" x1="293.792" y1="147.7828" x2="293.792" y2="54.15">
				<stop  offset="0" style="stop-color:#CCC2DB"/>
				<stop  offset="0.9944" style="stop-color:#8860C7"/>
			</linearGradient>
			<path class="st81" d="M317.64,78.84c-0.55-1.02-2.5-4.21-5.9-5.08c0,0,0,0.66-10.71-0.48c-10.7-1.13-15.06-1.7-17.62,0.76
				c-2.56,2.47-1.61,8.24,0.76,10.23c0,0-6.54,6.92-6.35,16.68c0.18,9.39,7.27,16.36,10.28,17.53l-0.14,1.04
				c0,0,0.53,21.5,5.76,23.21c5.22,1.7,16.06,0.82,17.07,1.83c0.96,0.96-0.14,2.61-0.24,2.76c-0.01,0.01-0.01,0.01-0.01,0.01
				s-8.47,2.09-21.35-2.71c0,0-14.48-8.29-17.98-22.21c0,0-0.81-3.28,0.9-6.79c0,0,2.43-1.04,3.54-7.41
				c1.25-7.11-2.52-11.97-2.52-11.97s0.52-3.85-0.61-8.21c-1.14-4.36-3.29-8.59-2.34-11.68c6.06,0.95,10.04-2.21,10.04-2.21
				s1.06-1.47,5.75-2.23c4.69-0.76,23.54,1.14,23.54,1.14s-1.89-1.57-5.87-2.61c-3.76-0.99-16.6,0.16-17.98,0.27
				c1.47-0.26,16.03-2.76,17.69-2.26c1.76,0.52,8.06,3.41,8.06,3.41c-0.57-2.89-6.21-9.85-6.21-9.85s-7.96,0.14-13.17,1.23
				c-4.65,0.97-7.2,3.1-7.7,3.54l1.24-1.47l0.39-0.47l0.37-0.44l1.82-0.31l9.14-3.69c3.07-1.64,7-5.7,7.48-6.2
				c0.03-0.03,0.05-0.05,0.05-0.05s0.19,3.6-1.14,6.72c7.72-0.95,10.33-0.47,10.33-0.47C317.52,65.37,317.64,78.84,317.64,78.84z"/>
			<linearGradient id="SVGID_64_" gradientUnits="userSpaceOnUse" x1="300.0704" y1="147.7607" x2="300.0704" y2="143.7378">
				<stop  offset="0" style="stop-color:#776D7E"/>
				<stop  offset="1" style="stop-color:#9D68C2"/>
			</linearGradient>
			<path class="st82" d="M289.19,144.62c0,0,4.73-1.12,11.87-0.83c7.14,0.29,11.25,0.32,9.48,3.54
				C310.54,147.33,301.57,149.36,289.19,144.62z"/>
			<linearGradient id="SVGID_65_" gradientUnits="userSpaceOnUse" x1="311.8728" y1="60.87" x2="311.8728" y2="57.8813">
				<stop  offset="0" style="stop-color:#1F77D1"/>
				<stop  offset="1" style="stop-color:#0686C9"/>
			</linearGradient>
			<path class="st83" d="M314.01,60.4c0,0,4.34-1.69,6.06-1.42c0,0-0.68-0.91-1.39-1.1c-0.71-0.19-15,2.98-15,2.98
				S312.59,59.83,314.01,60.4z"/>
			<linearGradient id="SVGID_66_" gradientUnits="userSpaceOnUse" x1="292.8336" y1="70.71" x2="292.8336" y2="61.8734">
				<stop  offset="0" style="stop-color:#1F77D1"/>
				<stop  offset="1" style="stop-color:#0686C9"/>
			</linearGradient>
			<path class="st84" d="M305.2,62.01c0,0-0.34,4.73-1.85,6.44l-17.69,2.26l-5.19-0.92c0,0,2.01-0.86,4.22-3.43
				C286.89,63.78,298.43,61.25,305.2,62.01z"/>
			<linearGradient id="SVGID_67_" gradientUnits="userSpaceOnUse" x1="324.855" y1="75.19" x2="324.855" y2="67.22">
				<stop  offset="0" style="stop-color:#1F77D1"/>
				<stop  offset="1" style="stop-color:#0686C9"/>
			</linearGradient>
			<path class="st85" d="M322.44,67.22c0,0,1.44,4.65,1.55,7.11l3.28,0.86C327.27,75.19,326.27,71.67,322.44,67.22z"/>
			<linearGradient id="SVGID_68_" gradientUnits="userSpaceOnUse" x1="272.1304" y1="110.2623" x2="261.9347" y2="97.7712">
				<stop  offset="0" style="stop-color:#FFEADB"/>
				<stop  offset="0.9944" style="stop-color:#B060F4"/>
			</linearGradient>
			<path class="st86" d="M274.24,107.48c0,0-1.24-5.97-4.29-8.92c-3.05-2.95-6.52-2.01-6.52-2.01s0.95,11.07,1.94,13.77
				c0.99,2.7,2.51,3.41,2.51,3.41s-2.13-1.87-2.42-5.53c-0.28-3.66-0.38-8.82,0.43-9.44c0.81-0.62,4.06,1.79,4.06,1.79
				s-1.03,1.26-1.64,4.52c-0.62,3.26,1.66,5.63,2.51,5.58c0.85-0.05-0.05-3.77,0.09-4.85C271.05,104.74,272.94,104.97,274.24,107.48
				z"/>
			<linearGradient id="SVGID_69_" gradientUnits="userSpaceOnUse" x1="273.1978" y1="108.6533" x2="268.1812" y2="102.5073">
				<stop  offset="0" style="stop-color:#FFEADB"/>
				<stop  offset="0.9944" style="stop-color:#B060F4"/>
			</linearGradient>
			<path class="st87" d="M271.19,100.07c0,0-3.33,2.19-2.97,6.67c0.36,4.49,2.92,4.29,2.93,3.35c0.01-0.94-0.49-3.37-0.23-4.74
				c0.26-1.37,2.47-0.75,2.47-0.75S271.95,101.04,271.19,100.07z"/>
			<path class="st88" d="M323.27,120.05c0,0-4.14,18.87-12.73,27.28C310.54,147.33,320.34,143.48,323.27,120.05z"/>
			<path class="st88" d="M318.68,57.89c0,0,2.18,1.7,2.6,7.59c0.41,5.9-2.14,12.45-2.14,12.45s3.28-4.9,3.6-10.27
				C323.04,62.29,320.41,58.57,318.68,57.89z"/>
		</g>
		<linearGradient id="SVGID_70_" gradientUnits="userSpaceOnUse" x1="292.2432" y1="71.5004" x2="309.51" y2="71.5004">
			<stop  offset="0" style="stop-color:#1F77D1"/>
			<stop  offset="1" style="stop-color:#0686C9"/>
		</linearGradient>
		<path class="st89" d="M292.24,70.24c0,0,5.05,1.72,10.59,2.21s6.68,0.6,6.68,0.6s-2.23-2.16-6.97-2.81
			C297.8,69.59,292.24,70.24,292.24,70.24z"/>
		<linearGradient id="SVGID_71_" gradientUnits="userSpaceOnUse" x1="316.5974" y1="123.1387" x2="321.8345" y2="123.1387">
			<stop  offset="0" style="stop-color:#1F77D1"/>
			<stop  offset="1" style="stop-color:#0686C9"/>
		</linearGradient>
		<path class="st90" d="M316.64,120.46c0,0,2.42,0,3.37,3.03c0.76,2.42,0.97,4.5,0.97,4.5l0.86-3.32c0,0-1.12-4.21-2.28-5.16
			c-0.84-0.68-2.28-1.37-2.96-1.21L316.64,120.46z"/>
		<linearGradient id="SVGID_72_" gradientUnits="userSpaceOnUse" x1="310.1316" y1="119.2445" x2="315.7802" y2="119.2445">
			<stop  offset="0" style="stop-color:#1F77D1"/>
			<stop  offset="1" style="stop-color:#0686C9"/>
		</linearGradient>
		<path class="st91" d="M310.13,117.43l0.41,3.6c0,0,2.94,0.24,4.89-0.57l0.35-2.18C315.78,118.28,312.03,117.34,310.13,117.43z"/>
		<path class="st88" d="M323.56,163.96c0,0,17.23,12.58,19.46,16.91c2.24,4.33,3.14,17.9,6.16,23.78c0,0-2.07-9.61-3.52-17.14
			c-1.45-7.53-1.1-7.64-1.91-9.49C342.96,176.17,330.09,167.24,323.56,163.96z"/>
		<path class="st88" d="M320.47,234c0,0-8.3,35.54-7.93,37.94c0.38,2.4,5.75,7.3,6,8.64c0,0-4.11,5.5-3.92,6.72s7.2,8.92,7.01,11.31
			c-0.05,0.69-4.6,8.19-4.6,8.19s5.14-7.37,5.39-8.55c0.25-1.18-6.3-11.03-6.49-12.03c-0.5-2.59,3.27-4.5,3.39-6.2
			c0.13-1.71-5.09-5.87-5.14-8.65C314.16,268.6,320.47,234,320.47,234z"/>
		<path class="st88" d="M322.16,318.73c0,0,17.95,40.63,24.07,81.27C346.23,400,345.21,360.34,322.16,318.73z"/>
		<path class="st76" d="M208.35,155.8c0,0-4.64-0.99-6.57-5.04c-1.93-4.05-0.67-9.92-0.67-9.92s3.64,6.98,5.45,9.36
			C208.37,152.58,208.86,155.29,208.35,155.8z"/>
	</g>
	<g class="st1">
		<path class="st92" d="M351.66,134.62l3.22,91.8c0.13,3.64,3.12,6.53,6.76,6.53h158.13c3.67,0,6.67-2.93,6.76-6.6l2.21-92.87
			c0.09-3.82-2.99-6.95-6.81-6.93l-163.56,1.07C354.56,127.64,351.52,130.81,351.66,134.62z"/>
		<g>
			<path class="st93" d="M519.77,233.19H361.64c-3.8,0-6.88-2.97-7.01-6.77l-3.22-91.8c-0.07-1.91,0.62-3.72,1.95-5.1
				c1.32-1.38,3.1-2.15,5.02-2.16l163.57-1.07c1.9,0.01,3.71,0.73,5.05,2.1c1.34,1.37,2.06,3.17,2.01,5.08l-2.21,92.87
				C526.69,230.18,523.61,233.19,519.77,233.19z M521.98,126.79c-0.01,0-0.03,0-0.04,0l-163.57,1.07c-1.78,0.01-3.43,0.72-4.66,2
				c-1.23,1.28-1.87,2.96-1.81,4.74l3.22,91.8c0.12,3.53,2.98,6.29,6.51,6.29h158.13c3.51,0,6.43-2.85,6.51-6.36l2.21-92.87
				c0.04-1.78-0.62-3.45-1.87-4.72C525.39,127.48,523.75,126.79,521.98,126.79z"/>
		</g>
		<linearGradient id="SVGID_73_" gradientUnits="userSpaceOnUse" x1="351.7959" y1="132.9462" x2="528.8544" y2="132.9462">
			<stop  offset="0" style="stop-color:#9D68C2"/>
			<stop  offset="1" style="stop-color:#AEC2FF"/>
		</linearGradient>
		<path class="st94" d="M351.89,139.29h176.66l0.28-4.84c0.25-4.28-3.17-7.88-7.46-7.85l-163.5,1.29c-3.41,0.03-6.15,2.84-6.08,6.25
			L351.89,139.29z"/>
		<linearGradient id="SVGID_74_" gradientUnits="userSpaceOnUse" x1="387.814" y1="199.8196" x2="387.814" y2="146.4174">
			<stop  offset="0" style="stop-color:#CCEDFF"/>
			<stop  offset="1" style="stop-color:#9D68C2"/>
		</linearGradient>
		<polygon class="st95" points="360.78,146.7 360.78,199.82 414.85,199.82 414.85,146.42 		"/>
		<linearGradient id="SVGID_75_" gradientUnits="userSpaceOnUse" x1="478.8728" y1="173.7835" x2="478.8728" y2="150.2609">
			<stop  offset="0" style="stop-color:#CCEDFF"/>
			<stop  offset="1" style="stop-color:#9D68C2"/>
		</linearGradient>
		<rect x="467.11" y="150.26" class="st96" width="23.52" height="23.52"/>
		<linearGradient id="SVGID_76_" gradientUnits="userSpaceOnUse" x1="506.6263" y1="173.7835" x2="506.6263" y2="150.2609">
			<stop  offset="0" style="stop-color:#CCEDFF"/>
			<stop  offset="1" style="stop-color:#9D68C2"/>
		</linearGradient>
		<rect x="494.86" y="150.26" class="st97" width="23.52" height="23.52"/>
		<linearGradient id="SVGID_77_" gradientUnits="userSpaceOnUse" x1="450.6556" y1="173.7835" x2="450.6556" y2="150.2609">
			<stop  offset="0" style="stop-color:#CCEDFF"/>
			<stop  offset="1" style="stop-color:#9D68C2"/>
		</linearGradient>
		<rect x="438.89" y="150.26" class="st98" width="23.52" height="23.52"/>
		<rect x="458.23" y="187.5" class="st99" width="60.15" height="5.63"/>
		<rect x="443.19" y="196.07" class="st99" width="75.2" height="1.74"/>
		<rect x="443.9" y="176.78" class="st99" width="14.39" height="1.74"/>
		<rect x="471.68" y="176.78" class="st99" width="14.39" height="1.74"/>
		<rect x="499.43" y="176.78" class="st99" width="14.39" height="1.74"/>
		<rect x="438.89" y="198.91" class="st99" width="24.19" height="1.74"/>
		<rect x="443.19" y="201.71" class="st99" width="75.2" height="1.74"/>
		<rect x="438.89" y="204.51" class="st99" width="79.49" height="1.74"/>
		<rect x="438.89" y="207.31" class="st99" width="79.49" height="1.74"/>
		<rect x="443.19" y="218.63" class="st99" width="75.2" height="1.74"/>
		<rect x="438.89" y="221.43" class="st99" width="79.49" height="1.74"/>
		<rect x="438.89" y="224.23" class="st99" width="79.49" height="1.74"/>
		<rect x="438.89" y="210.11" class="st99" width="76.3" height="1.74"/>
		<rect x="443.19" y="212.91" class="st99" width="75.2" height="1.74"/>
		<rect x="438.89" y="215.71" class="st99" width="64.41" height="1.74"/>
		<g>
			<path class="st100" d="M375.93,189.17c-8.48,0-15.38-6.9-15.38-15.38c0-8.48,6.9-15.38,15.38-15.38c8.48,0,15.38,6.9,15.38,15.38
				C391.31,182.27,384.41,189.17,375.93,189.17z M375.93,159.4c-7.93,0-14.38,6.45-14.38,14.38c0,7.93,6.45,14.38,14.38,14.38
				c7.93,0,14.38-6.45,14.38-14.38C390.31,165.85,383.86,159.4,375.93,159.4z"/>
		</g>
		<circle class="st11" cx="375.93" cy="173.78" r="8.36"/>
		<g>
			<path class="st100" d="M414.85,161.8c-8.48,0-15.38-6.9-15.38-15.38c0-8.48,6.9-15.38,15.38-15.38c8.48,0,15.38,6.9,15.38,15.38
				C430.24,154.9,423.33,161.8,414.85,161.8z M414.85,132.03c-7.93,0-14.38,6.45-14.38,14.38c0,7.93,6.45,14.38,14.38,14.38
				c7.93,0,14.38-6.45,14.38-14.38C429.24,138.49,422.78,132.03,414.85,132.03z"/>
		</g>
		
			<ellipse transform="matrix(0.1554 -0.9878 0.9878 0.1554 205.7285 533.4673)" class="st11" cx="414.85" cy="146.42" rx="7.87" ry="7.87"/>
		<g>
			<polygon class="st11" points="358.08,132.08 359.21,130.38 365.29,135.7 364.35,137 			"/>
			<polygon class="st11" points="365.44,132.08 364.32,130.38 358.24,135.7 359.17,137 			"/>
		</g>
		<rect x="469.84" y="131.53" class="st11" width="54.44" height="2.73"/>
	</g>
	<g class="st1">
		<linearGradient id="SVGID_78_" gradientUnits="userSpaceOnUse" x1="197.668" y1="115.9874" x2="197.668" y2="91.3654">
			<stop  offset="0" style="stop-color:#D93DE3"/>
			<stop  offset="1" style="stop-color:#FF6DBA"/>
		</linearGradient>
		<polygon class="st101" points="183.35,92.12 183.35,115.75 211.61,115.99 211.99,91.37 		"/>
		<linearGradient id="SVGID_79_" gradientUnits="userSpaceOnUse" x1="212.7179" y1="115.9874" x2="212.7179" y2="91.3654">
			<stop  offset="0" style="stop-color:#A242EA"/>
			<stop  offset="1" style="stop-color:#FE117E"/>
		</linearGradient>
		<polygon class="st102" points="211.99,91.37 213.83,94.47 212.91,115.96 211.61,115.99 		"/>
		<polygon class="st11" points="188.4,100.1 191.01,96.31 205.11,108.15 202.95,111.04 		"/>
		<polygon class="st11" points="205.48,100.1 202.87,96.31 188.76,108.15 190.92,111.04 		"/>
	</g>
	<g class="st1">
		<linearGradient id="SVGID_80_" gradientUnits="userSpaceOnUse" x1="193.3956" y1="375.37" x2="206.7105" y2="269.3559">
			<stop  offset="0" style="stop-color:#067EFF"/>
			<stop  offset="1" style="stop-color:#3E37A0"/>
		</linearGradient>
		<path class="st103" d="M249.27,370.18h-96.69c-4.3,0-7.82-3.44-7.92-7.74l-1.81-79.31c-0.1-4.44,3.47-8.1,7.92-8.1h100.67
			c4.46,0,8.04,3.68,7.92,8.14l-2.18,79.31C257.07,366.77,253.56,370.18,249.27,370.18z"/>
		<g>
			<path class="st104" d="M249.27,370.43h-96.69c-4.4,0-8.07-3.58-8.17-7.98l-1.81-79.31c-0.05-2.22,0.78-4.31,2.33-5.9
				c1.55-1.58,3.62-2.46,5.84-2.46h100.67c2.22,0,4.3,0.88,5.85,2.47c1.55,1.59,2.37,3.7,2.31,5.92l-2.18,79.31
				C257.31,366.94,253.73,370.43,249.27,370.43z M150.78,275.29c-2.08,0-4.03,0.82-5.48,2.31c-1.46,1.49-2.23,3.46-2.18,5.54
				l1.81,79.31c0.09,4.13,3.53,7.49,7.67,7.49h96.69c4.18,0,7.55-3.28,7.67-7.46l2.18-79.31c0.06-2.09-0.71-4.06-2.17-5.56
				c-1.46-1.5-3.41-2.32-5.5-2.32H150.78z"/>
		</g>
		<g>
			<rect x="168.92" y="291.26" class="st11" width="50.85" height="2.18"/>
			<rect x="168.92" y="296.55" class="st11" width="25.42" height="2.18"/>
			<rect x="168.92" y="300.98" class="st11" width="25.42" height="2.18"/>
			<rect x="197.2" y="300.98" class="st11" width="20.23" height="2.18"/>
			<rect x="168.92" y="305.4" class="st11" width="40.99" height="2.18"/>
			<rect x="168.92" y="309.82" class="st11" width="14.59" height="2.18"/>
			<rect x="186.51" y="323.08" class="st11" width="25.23" height="2.18"/>
			<rect x="168.92" y="314.24" class="st11" width="45.73" height="2.18"/>
			<rect x="168.92" y="318.66" class="st11" width="35.18" height="2.18"/>
			<rect x="168.92" y="323.08" class="st11" width="16.55" height="2.18"/>
			<rect x="168.92" y="327.5" class="st11" width="25.42" height="2.18"/>
			<rect x="168.92" y="331.92" class="st11" width="7.29" height="2.18"/>
			<rect x="179.22" y="331.92" class="st11" width="26.46" height="2.18"/>
			<rect x="186.51" y="336.21" class="st11" width="25.23" height="2.18"/>
			<rect x="168.92" y="336.21" class="st11" width="16.55" height="2.18"/>
			<rect x="168.92" y="340.63" class="st11" width="25.42" height="2.18"/>
			<rect x="168.92" y="345.05" class="st11" width="7.29" height="2.18"/>
			<rect x="179.22" y="345.05" class="st11" width="26.46" height="2.18"/>
		</g>
	</g>
	<linearGradient id="SVGID_81_" gradientUnits="userSpaceOnUse" x1="504.249" y1="113.3083" x2="504.249" y2="104.3711">
		<stop  offset="0" style="stop-color:#459FFF"/>
		<stop  offset="1" style="stop-color:#A96DFF"/>
	</linearGradient>
	<path class="st105" d="M508.72,108.84c0,2.47-2,4.47-4.47,4.47c-2.47,0-4.47-2-4.47-4.47s2-4.47,4.47-4.47
		C506.72,104.37,508.72,106.37,508.72,108.84z"/>
	<linearGradient id="SVGID_82_" gradientUnits="userSpaceOnUse" x1="84.2557" y1="218.0383" x2="84.2557" y2="206.915">
		<stop  offset="0" style="stop-color:#459FFF"/>
		<stop  offset="1" style="stop-color:#A96DFF"/>
	</linearGradient>
	<path class="st106" d="M89.82,212.48c0,3.07-2.49,5.56-5.56,5.56s-5.56-2.49-5.56-5.56s2.49-5.56,5.56-5.56
		S89.82,209.41,89.82,212.48z"/>
	<linearGradient id="SVGID_83_" gradientUnits="userSpaceOnUse" x1="517.3742" y1="113.3083" x2="517.3742" y2="104.3711">
		<stop  offset="0" style="stop-color:#B31A8F"/>
		<stop  offset="1" style="stop-color:#FE117E"/>
	</linearGradient>
	<circle class="st107" cx="517.37" cy="108.84" r="4.47"/>
	<linearGradient id="SVGID_84_" gradientUnits="userSpaceOnUse" x1="229.2033" y1="142.7256" x2="229.2033" y2="136.406">
		<stop  offset="0" style="stop-color:#B31A8F"/>
		<stop  offset="1" style="stop-color:#FE117E"/>
	</linearGradient>
	<circle class="st108" cx="229.2" cy="139.57" r="3.16"/>
	<linearGradient id="SVGID_85_" gradientUnits="userSpaceOnUse" x1="440.8599" y1="282.1632" x2="440.8599" y2="275.8436">
		<stop  offset="0" style="stop-color:#8642A0"/>
		<stop  offset="1" style="stop-color:#6456C0"/>
	</linearGradient>
	<circle class="st109" cx="440.86" cy="279" r="3.16"/>
	<linearGradient id="SVGID_86_" gradientUnits="userSpaceOnUse" x1="112.3383" y1="313.3327" x2="112.3383" y2="307.6831">
		<stop  offset="0" style="stop-color:#8642A0"/>
		<stop  offset="1" style="stop-color:#6456C0"/>
	</linearGradient>
	<circle class="st110" cx="112.34" cy="310.51" r="2.82"/>
	<g class="st1">
		<linearGradient id="SVGID_87_" gradientUnits="userSpaceOnUse" x1="136.0431" y1="282.7714" x2="136.0431" y2="236.1088">
			<stop  offset="0" style="stop-color:#D906E3"/>
			<stop  offset="1" style="stop-color:#FF6DF9"/>
		</linearGradient>
		<path class="st111" d="M160.49,282.77h-48.8c-3.93,0-7.15-3.11-7.28-7.04l-1.08-32.1c-0.14-4.12,3.16-7.53,7.28-7.53h50.86
			c4.11,0,7.41,3.4,7.28,7.51l-0.98,32.1C167.65,279.64,164.43,282.77,160.49,282.77z"/>
		<g>
			<path class="st112" d="M160.49,283.02h-48.8c-4.08,0-7.39-3.2-7.53-7.28l-1.08-32.1c-0.07-2.06,0.68-4.01,2.11-5.49
				c1.43-1.48,3.36-2.3,5.42-2.3h50.86c2.06,0,3.98,0.81,5.41,2.29c1.43,1.48,2.19,3.42,2.12,5.48l-0.98,32.1
				C167.9,279.81,164.59,283.02,160.49,283.02z M110.61,236.36c-1.92,0-3.72,0.76-5.06,2.14s-2.04,3.2-1.97,5.13l1.08,32.1
				c0.13,3.81,3.22,6.8,7.03,6.8h48.8c3.82,0,6.91-3,7.03-6.82l0.98-32.1c0.06-1.92-0.65-3.73-1.98-5.11
				c-1.34-1.38-3.13-2.14-5.05-2.14H110.61z"/>
		</g>
		<g>
			<polygon class="st11" points="124.7,247.64 112.67,261.59 124.93,271.99 124.93,266.62 117.84,260.48 124.42,253.04 			"/>
		</g>
		<g>
			<polygon class="st11" points="145.85,248.27 157.89,262.21 145.63,272.61 145.63,267.25 152.72,261.11 144.83,252.76 			"/>
		</g>
		<g>
			<polygon class="st11" points="127.33,271.99 137.81,248.89 142.74,248.89 130.86,271.99 			"/>
		</g>
	</g>
	<g class="st1">
		<linearGradient id="SVGID_88_" gradientUnits="userSpaceOnUse" x1="458.2341" y1="348.8215" x2="458.2341" y2="290.4473">
			<stop  offset="0" style="stop-color:#D906E3"/>
			<stop  offset="1" style="stop-color:#FF6DF9"/>
		</linearGradient>
		<path class="st113" d="M488.82,348.82h-61.05c-4.91,0-8.94-3.89-9.11-8.8l-1.36-40.15c-0.17-5.15,3.95-9.42,9.11-9.42h63.63
			c5.14,0,9.26,4.25,9.11,9.39l-1.23,40.15C497.78,344.91,493.75,348.82,488.82,348.82z"/>
		<g>
			<path class="st112" d="M488.82,349.07h-61.05c-5.08,0-9.18-3.97-9.36-9.04l-1.36-40.15c-0.09-2.56,0.85-4.98,2.63-6.82
				c1.78-1.84,4.17-2.85,6.73-2.85h63.63c2.55,0,4.94,1.01,6.72,2.84c1.78,1.83,2.72,4.25,2.64,6.8L498.18,340
				C498.02,345.08,493.91,349.07,488.82,349.07z M426.42,290.7c-2.42,0-4.69,0.96-6.37,2.7c-1.68,1.74-2.57,4.04-2.49,6.46
				l1.36,40.15c0.16,4.8,4.05,8.56,8.86,8.56h61.05c4.82,0,8.71-3.77,8.86-8.59l1.23-40.15c0.07-2.42-0.81-4.71-2.5-6.44
				c-1.68-1.74-3.94-2.69-6.36-2.69H426.42z"/>
		</g>
		<rect x="429.55" y="296.91" class="st99" width="55.91" height="33.21"/>
		<polygon class="st11" points="452.55,305.15 452.55,321.88 466.84,312.75 		"/>
		<rect x="429.55" y="336.24" class="st99" width="55.91" height="3.04"/>
		<rect x="429.55" y="336.24" class="st11" width="14.47" height="3.04"/>
	</g>
	<g class="st1">
		<g>
			
				<linearGradient id="SVGID_89_" gradientUnits="userSpaceOnUse" x1="404.3205" y1="275.2039" x2="399.3466" y2="232.5129" gradientTransform="matrix(0.9656 0.26 -0.26 0.9656 63.6333 -54.681)">
				<stop  offset="0" style="stop-color:#1852A0"/>
				<stop  offset="1" style="stop-color:#067ED3"/>
			</linearGradient>
			<path class="st114" d="M388.58,286.42l-2.92,8.35C387.28,290.15,389.6,287.16,388.58,286.42z M385.67,294.76l-2.92,8.35
				C383.48,302.89,384.05,299.38,385.67,294.76z M388.58,286.42l-2.92,8.35C387.28,290.15,389.6,287.16,388.58,286.42z
				 M385.67,294.76l-2.92,8.35C383.48,302.89,384.05,299.38,385.67,294.76z M394.09,302l2.83,1.61l3.06-8.35l-3.28-0.55
				c0.06-0.31,0.12-0.62,0.16-0.93c0.24-1.43,0.32-2.83,0.28-4.16l3.43-2.15l-1.56-7.36l-3.29,3.14c-0.46-0.94-1.02-1.76-1.68-2.45
				c-0.18-0.2-0.37-0.38-0.57-0.55l2.01-4.64l-5.35-1.74l0,0l-1.28,4.68c-1.2,0-2.41,0.3-3.62,0.85l-0.59-4.42l-5.89,4.46l1.36,3.92
				c-1.06,1.21-2.03,2.61-2.87,4.18l-2.84-1.6l-3.06,8.35l3.28,0.55c-0.35,1.76-0.48,3.47-0.43,5.09l-3.43,2.15l1.56,7.36l3.29-3.14
				c0.59,1.2,1.34,2.22,2.25,3l-2.01,4.65l5.26,2.05l0.81-2.96l0.55-2.02c1.2,0,2.42-0.3,3.63-0.84l0.58,4.42l5.89-4.46l-1.36-3.92
				c0.83-0.95,1.61-2.02,2.32-3.2C393.73,302.66,393.91,302.33,394.09,302z M385.67,294.76c-1.62,4.61,0,9.37-2.92,8.35
				c-2.93-1.03-4-5.6-2.38-10.2c1.62-4.61,5.3-7.51,8.22-6.49C391.52,287.44,387.28,290.15,385.67,294.76z M388.58,286.42
				l-2.92,8.35C387.28,290.15,389.6,287.16,388.58,286.42z M385.67,294.76l-2.92,8.35C383.48,302.89,384.05,299.38,385.67,294.76z"
				/>
		</g>
		
			<linearGradient id="SVGID_90_" gradientUnits="userSpaceOnUse" x1="399.4991" y1="275.3656" x2="399.4991" y2="231.6211" gradientTransform="matrix(0.9656 0.26 -0.26 0.9656 63.6333 -54.681)">
			<stop  offset="0" style="stop-color:#1852A0"/>
			<stop  offset="1" style="stop-color:#067ED3"/>
		</linearGradient>
		<path class="st115" d="M396.93,303.6l3.06-8.35l-3.12-1.48l-0.5-0.24l0.33-4.6l3.46-1.69l-1.14-7.14l-7.55-2.46l1.39,3.31
			l2.63-5.36l-5.35-1.74l-2.2-0.72l-5.27-2.05l-0.98,3.6l-4.59-2.18l-5.89,4.46l1.79,4.82l-5.51,15.26l-2.72,9.91l5.23,0.57
			l-1.7,3.93l5.27,2.05l7.54,2.46l-1.21-2.42l-0.76-1.45l2.79,0.91l4.76,1.55l5.89-4.46l-3.64-4.29l4.6-2.83L396.93,303.6z
			 M380.36,292.91c1.62-4.61,5.3-7.51,8.22-6.49l-2.92,8.35l-2.92,8.35C379.81,302.08,378.74,297.51,380.36,292.91z"/>
		<g>
			
				<linearGradient id="SVGID_91_" gradientUnits="userSpaceOnUse" x1="361.9373" y1="289.2716" x2="358.72" y2="261.6577" gradientTransform="matrix(0.9438 0.3306 -0.5202 1.4851 181.3359 -235.9143)">
				<stop  offset="0" style="stop-color:#188DC1"/>
				<stop  offset="1" style="stop-color:#06BFE7"/>
			</linearGradient>
			<path class="st116" d="M389.38,301.14l3.06-8.35l-3.28-0.55c0.35-1.76,0.48-3.47,0.44-5.08l3.43-2.15l-1.56-7.36l-3.29,3.14
				c-0.58-1.2-1.34-2.22-2.25-3l2.01-4.64l-5.27-2.05l-1.36,4.99c-1.2,0.01-2.42,0.3-3.62,0.84l-0.58-4.42l-5.89,4.45l1.36,3.92
				c-1.06,1.21-2.03,2.62-2.87,4.19l-2.84-1.6l-3.06,8.35l3.28,0.55c-0.35,1.76-0.48,3.47-0.44,5.08l-3.43,2.15l1.56,7.36l3.29-3.14
				c0.58,1.2,1.34,2.22,2.25,3l-2.01,4.64l5.27,2.05l1.36-4.99c1.2-0.01,2.42-0.3,3.62-0.84l0.58,4.42l5.89-4.45l-1.36-3.92
				c1.06-1.21,2.03-2.62,2.87-4.19L389.38,301.14z M375.19,300.65c-2.93-1.03-3.99-5.59-2.38-10.2c1.61-4.61,5.3-7.51,8.23-6.49
				c2.93,1.03,3.99,5.59,2.38,10.2C381.81,298.77,378.12,301.67,375.19,300.65z"/>
		</g>
		<polygon class="st117" points="400.57,287.46 393.03,285.01 389.6,287.16 397.14,289.61 		"/>
		<polygon class="st118" points="392.58,310.1 385.03,307.64 383.67,303.73 391.22,306.19 		"/>
		<polygon class="st117" points="385.92,277.79 390.06,278.99 391.46,277.65 394.21,278.54 395.48,275.6 387.94,273.15 		"/>
		<path class="st117" d="M374.93,308.53l3.95,1.64l-0.33-2.49C378.56,307.68,376.43,308.81,374.93,308.53z"/>
		<path class="st117" d="M375.54,285.9l6.65,3.52c0,0,0.96-1.29,1.71-1.81C383.91,287.61,382.17,280.27,375.54,285.9z"/>
	</g>
	<polygon class="st119" points="222.79,36.96 229.2,49.81 224.92,51.76 218.92,39.96 	"/>
	<polygon class="st120" points="78.34,336.3 84.28,342.82 86.61,340.13 81,333.96 	"/>
	<polygon class="st121" points="380.11,115.37 374.13,119 371.74,114.45 378.28,110.64 	"/>
	<polygon class="st121" points="409.56,345.08 400.99,351.17 398.59,346.63 406.91,341.77 	"/>
	<g class="st1">
		<linearGradient id="SVGID_92_" gradientUnits="userSpaceOnUse" x1="412.3512" y1="88.0975" x2="423.6827" y2="46.0142">
			<stop  offset="0" style="stop-color:#188DC1"/>
			<stop  offset="1" style="stop-color:#06BFE7"/>
		</linearGradient>
		<polygon class="st122" points="398.24,84.3 396.79,50.64 440.86,50.64 439.05,84.2 		"/>
		<linearGradient id="SVGID_93_" gradientUnits="userSpaceOnUse" x1="392.8735" y1="83.2426" x2="401.3237" y2="51.8603">
			<stop  offset="0" style="stop-color:#1852A0"/>
			<stop  offset="1" style="stop-color:#067ED3"/>
		</linearGradient>
		<polygon class="st123" points="396.79,50.64 395.47,52.62 396.79,84.3 398.24,84.3 		"/>
		<polygon class="st11" points="411.42,57.36 404.51,56.62 405.45,79.68 411.42,79.1 411.42,76.71 407.96,76.79 407.57,59.01 
			411.42,59.12 		"/>
		<polygon class="st11" points="425.59,57.36 432.5,56.62 431.55,79.68 425.59,79.1 425.59,76.71 429.04,76.79 429.44,59.01 
			425.59,59.12 		"/>
	</g>
	<g class="st1">
		
			<linearGradient id="SVGID_94_" gradientUnits="userSpaceOnUse" x1="121.9244" y1="160.5708" x2="129.6494" y2="131.8817" gradientTransform="matrix(-1 0 0 1 206.6559 0)">
			<stop  offset="0" style="stop-color:#188DC1"/>
			<stop  offset="1" style="stop-color:#06BFE7"/>
		</linearGradient>
		<polygon class="st124" points="94.35,157.98 95.34,135.03 65.3,135.03 66.53,157.91 		"/>
		
			<linearGradient id="SVGID_95_" gradientUnits="userSpaceOnUse" x1="108.646" y1="157.2612" x2="114.4067" y2="135.8671" gradientTransform="matrix(-1 0 0 1 206.6559 0)">
			<stop  offset="0" style="stop-color:#1852A0"/>
			<stop  offset="1" style="stop-color:#067ED3"/>
		</linearGradient>
		<polygon class="st125" points="95.34,135.03 96.24,136.39 95.34,157.98 94.35,157.98 		"/>
		<path class="st11" d="M83.77,139.65c0,0,3.29-0.13,3.88,0.14c0.58,0.27-0.15,5.64-0.15,5.64l1.31,1.21l-1.23,1.19
			c0,0,0.06,5.44-0.71,5.89c-0.78,0.45-3.42,0-3.42,0v-1.36c0,0,2.16,0.14,2.52-0.15c0.36-0.29,0.32-5.04,0.32-5.04l0.58-0.64
			l-0.58-0.69c0,0,0.11-3.39,0.04-4.32c-0.04-0.62-2.56-0.65-2.56-0.65V139.65z"/>
		<path class="st11" d="M76.22,139.65c0,0-3.29-0.13-3.88,0.14c-0.58,0.27,0.15,5.64,0.15,5.64l-1.31,1.21l1.23,1.19
			c0,0-0.06,5.44,0.71,5.89c0.77,0.45,3.42,0,3.42,0v-1.36c0,0-2.16,0.14-2.52-0.15s-0.32-5.04-0.32-5.04l-0.58-0.64l0.58-0.69
			c0,0-0.11-3.39-0.04-4.32c0.04-0.62,2.56-0.65,2.56-0.65V139.65z"/>
	</g>
	<g class="st1">
		<g>
			<path class="st93" d="M347.86,87.33l-7.36-19.27l19.09,3.99L347.86,87.33z M341.29,68.74l6.72,17.58l10.7-13.94L341.29,68.74z"/>
		</g>
		<g>
			
				<rect x="398.19" y="355.71" transform="matrix(0.5912 -0.8065 0.8065 0.5912 -122.0756 471.0798)" class="st93" width="10.94" height="0.5"/>
		</g>
		<g>
			<polygon class="st93" points="339.92,279.16 332.97,270.51 333.36,270.2 340.31,278.85 			"/>
		</g>
		<g>
			<polygon class="st93" points="125.59,339.88 111.72,329.82 112.01,329.42 125.88,339.48 			"/>
		</g>
		<g>
			
				<rect x="110.23" y="334.4" transform="matrix(0.606 -0.7955 0.7955 0.606 -219.3983 226.3649)" class="st93" width="17.13" height="0.5"/>
		</g>
		<g>
			
				<rect x="98.59" y="184.72" transform="matrix(0.4651 -0.8852 0.8852 0.4651 -115.1451 189.0111)" class="st93" width="0.5" height="10.14"/>
		</g>
		<g>
			<polygon class="st93" points="448.05,71.37 447.68,71.04 458.05,59.21 458.42,59.54 			"/>
		</g>
		<g>
			
				<rect x="248.43" y="99.55" transform="matrix(0.8953 -0.4454 0.4454 0.8953 -20.6279 121.7271)" class="st93" width="0.5" height="10.41"/>
		</g>
		<g>
			
				<rect x="171.13" y="261.73" transform="matrix(0.767 -0.6416 0.6416 0.767 -126.4147 175.8215)" class="st93" width="15.54" height="0.5"/>
		</g>
	</g>
</g>
</svg>
