<?xml version="1.0" encoding="utf-8"?>
<!-- Generator: Adobe Illustrator 24.0.1, SVG Export Plug-In . SVG Version: 6.00 Build 0)  -->
<svg version="1.1" xmlns="http://www.w3.org/2000/svg" xmlns:xlink="http://www.w3.org/1999/xlink" x="0px" y="0px"
	 viewBox="0 0 3710 3710" style="enable-background:new 0 0 3710 3710;" xml:space="preserve">
<style type="text/css">
	.st0{fill:#FFFFFF;}
	.st1{fill:url(#SVGID_1_);}
	.st2{fill:#91B3FA;}
	.st3{fill:#BDD0FB;}
	.st4{fill:url(#SVGID_2_);}
	.st5{fill:url(#SVGID_3_);}
	.st6{fill:url(#SVGID_4_);}
	.st7{opacity:0.44;fill:#FFFFFF;}
	.st8{opacity:0.43;fill:#FFFFFF;}
	.st9{opacity:0.46;fill:#FFFFFF;}
	.st10{opacity:0.38;fill:#FFFFFF;}
	.st11{opacity:0.42;fill:#FFFFFF;}
	.st12{opacity:0.58;fill:#FFFFFF;}
	.st13{opacity:0.28;fill:#FFFFFF;}
	.st14{opacity:0.47;fill:#FFFFFF;}
	.st15{fill:url(#SVGID_5_);}
	.st16{opacity:0.69;fill:#FFFFFF;}
	.st17{fill:url(#SVGID_6_);}
	.st18{fill:url(#SVGID_7_);}
	.st19{fill:url(#SVGID_8_);}
	.st20{fill:url(#SVGID_9_);}
	.st21{fill:url(#SVGID_10_);}
	.st22{fill:url(#SVGID_11_);}
	.st23{fill:url(#SVGID_12_);}
	.st24{fill:url(#SVGID_13_);}
	.st25{fill:url(#SVGID_14_);}
	.st26{fill:url(#SVGID_15_);}
	.st27{fill:url(#SVGID_16_);}
	.st28{fill:url(#SVGID_17_);}
	.st29{fill:url(#SVGID_18_);}
	.st30{fill:url(#SVGID_19_);}
	.st31{fill:url(#SVGID_20_);}
	.st32{fill:url(#SVGID_21_);}
	.st33{opacity:0.76;fill:#FFFFFF;}
	.st34{fill:url(#SVGID_22_);}
	.st35{fill:#7D97F4;}
	.st36{fill:url(#SVGID_23_);}
	.st37{fill:url(#SVGID_24_);}
	.st38{fill:url(#SVGID_25_);}
	.st39{fill:url(#SVGID_26_);}
	.st40{fill:url(#SVGID_27_);}
	.st41{fill:url(#SVGID_28_);}
	.st42{fill:url(#SVGID_29_);}
	.st43{fill:url(#SVGID_30_);}
	.st44{fill:url(#SVGID_31_);}
	.st45{fill:url(#SVGID_32_);}
	.st46{fill:url(#SVGID_33_);}
	.st47{fill:url(#SVGID_34_);}
	.st48{fill:url(#SVGID_35_);}
	.st49{fill:url(#SVGID_36_);}
	.st50{fill:url(#SVGID_37_);}
	.st51{opacity:0.64;}
	.st52{fill:url(#SVGID_38_);}
	.st53{fill:url(#SVGID_39_);}
	.st54{fill:url(#SVGID_40_);}
	.st55{fill:url(#SVGID_41_);}
	.st56{fill:url(#SVGID_42_);}
	.st57{fill:url(#SVGID_43_);}
	.st58{fill:url(#SVGID_44_);}
	.st59{fill:url(#SVGID_45_);}
	.st60{fill:url(#SVGID_46_);}
	.st61{fill:url(#SVGID_47_);}
	.st62{fill:url(#SVGID_48_);}
	.st63{fill:url(#SVGID_49_);}
	.st64{fill:url(#SVGID_50_);}
	.st65{fill:url(#SVGID_51_);}
</style>
<g id="Background">
	<g>
		<g>
			<rect class="st0" width="3710" height="3710"/>
		</g>
	</g>
</g>
<g id="Illustration">
	<g>
		<linearGradient id="SVGID_1_" gradientUnits="userSpaceOnUse" x1="3559.8333" y1="4035.9988" x2="1126.7306" y2="1014.2381">
			<stop  offset="0" style="stop-color:#DAE3FE"/>
			<stop  offset="1" style="stop-color:#E9EFFD"/>
		</linearGradient>
		<path class="st1" d="M2890.47,2844.33c-55.89,58.84-108.77,96.78-150.55,126.76c-491.11,352.38-1072.22,249.66-1195.73,224.58
			c-182.38-37.04-534.9-108.64-789.77-408.36c-385.6-453.46-325.56-1167.86-26.46-1639.45c54.71-86.26,343.7-565.04,931.07-641.82
			c355.47-46.47,769.84,47.25,1069.91,298.65C3358.83,1332.39,3313.99,2398.46,2890.47,2844.33z"/>
		<g>
			<path class="st2" d="M482.75,468.83c-2.59-11.02,12.92-18.35,22.41-10.65c96.42,78.19,328.09,312.32,270.35,721.49
				c-72.44,513.36,51.4,700.68,205.56,814.94c0,0-211.7-53.73-344.9-243.81C309.16,1284.12,528.8,664.83,482.75,468.83z"/>
			<path class="st0" d="M556.13,629.18c12.06,57.15,22.81,114.47,31.12,172.06c8.66,57.53,15.29,115.27,19.83,173.1
				c4.28,57.84,7.31,115.74,7.48,173.67c0.47,57.92-1.93,115.8-4.59,173.9c-2.28,58.08-4.95,116.58-0.7,175.49
				c4.18,58.79,16.56,118.1,41.11,173.69c6.14,13.86,12.59,27.67,19.93,41.02c7.05,13.47,14.79,26.67,22.81,39.75
				c16.18,26.09,34.4,51.31,54.69,75.24c40.74,47.78,89.88,90.16,144.01,126.03c5.7,3.78,13.86,2.85,18.23-2.07
				c4.29-4.83,3.33-11.71-2.1-15.54l-0.04-0.03c-12.88-9.05-25.62-18.21-37.85-27.83c-6.2-4.73-12.15-9.68-18.21-14.54
				c-5.83-5.05-11.9-9.9-17.54-15.1c-22.99-20.46-44.28-42.29-63.6-65.37c-38.86-45.94-69.97-97.14-93.54-150.22
				c-11.44-26.66-20.59-54-27.26-81.86c-6.65-27.86-10.84-56.21-13.15-84.78c-4.64-57.18-2.54-115.1-0.75-173.19
				c1.71-58.1,2.96-116.5,1.42-174.86c-0.68-29.17-1.96-58.34-3.84-87.46c-0.85-14.57-2.02-29.12-3.16-43.67
				c-1.3-14.54-2.7-29.07-4.23-43.59c-6.26-58.07-14.57-115.95-24.98-173.52c-10.73-57.53-23.23-114.79-38.26-171.54
				c-0.43-1.62-2.3-2.64-4.18-2.27C556.96,626.06,555.8,627.6,556.13,629.18z"/>
		</g>
		<g>
			<g>
				<path class="st3" d="M732.53,1736.45c-11.82,12.54-32.61,8.94-39.72-6.76c-39.24-86.63-128.04-341.61,18.62-635.36
					c123.85-248.06,167.43-394.33,182.61-462.11c3.21-14.33,22.85-16.23,28.78-2.8C988.21,777.67,1160.91,1281.93,732.53,1736.45z"
					/>
				<path class="st0" d="M711.05,1727.31c-0.42,0.08-0.85,0.11-1.3,0.1c-3.72-0.06-6.68-3.12-6.63-6.83
					c0.06-4.21,8.26-425.31,164.88-778c1.51-3.39,5.48-4.93,8.88-3.42c3.4,1.51,4.93,5.48,3.42,8.88
					c-155.48,350.12-163.66,768.56-163.73,772.74C716.54,1724.06,714.16,1726.75,711.05,1727.31z"/>
			</g>
		</g>
		<g>
			<linearGradient id="SVGID_2_" gradientUnits="userSpaceOnUse" x1="1937.8929" y1="2454.1865" x2="1937.8929" y2="3665.5378">
				<stop  offset="0" style="stop-color:#09005D"/>
				<stop  offset="1" style="stop-color:#1A0F91"/>
			</linearGradient>
			<polygon class="st4" points="1650.26,2508.27 1590.35,3045.59 2285.44,3045.59 2194.9,2508.27 			"/>
			<linearGradient id="SVGID_3_" gradientUnits="userSpaceOnUse" x1="1853.9139" y1="509.1488" x2="1874.1047" y2="2588.6309">
				<stop  offset="0" style="stop-color:#09005D"/>
				<stop  offset="1" style="stop-color:#1A0F91"/>
			</linearGradient>
			<path class="st5" d="M482.63,1184.42v1230.61c0,101.23,80.67,184.02,181.87,186.63c449.48,11.59,2021.54,39.69,2449.41,33.39
				c73.54-1.08,133.11-59.93,135.24-133.45c8.25-285.89,21.65-973.35-27.94-1292.51c-10.44-67.21-67.18-117.47-135.16-119.65
				c-376.61-12.05-2043.09-50.3-2470.77-40.7C541.53,1050.39,482.63,1110.64,482.63,1184.42z"/>
			<path class="st2" d="M559.85,1178.43v1169.16c0,59.11,47.45,107.27,106.55,108.15l2385.96,29.48
				c58.59,0.88,106.62-46.26,106.84-104.86l3.99-1158.72c0.16-41.9-33.22-76.23-75.11-77.25l-2442.78-49.35
				C598.44,1093.9,559.85,1131.56,559.85,1178.43z"/>
			<path class="st2" d="M3177.16,2533.49c-0.02,0-0.04,0-0.06,0L559.78,2488.9c-2.02-0.04-3.64-1.7-3.6-3.72
				c0.03-2.03,1.64-3.57,3.73-3.6l2617.31,44.59c2.02,0.04,3.64,1.7,3.6,3.72C3180.79,2531.89,3179.15,2533.49,3177.16,2533.49z"/>
			<linearGradient id="SVGID_4_" gradientUnits="userSpaceOnUse" x1="2010.7751" y1="2110.1526" x2="1923.2897" y2="3159.9868">
				<stop  offset="0" style="stop-color:#09005D"/>
				<stop  offset="1" style="stop-color:#1A0F91"/>
			</linearGradient>
			<path class="st6" d="M2435.16,3155.52H1417.85c-27.64,0-48.39-19.68-43.05-40.81l13.05-51.63c3.93-15.53,21.01-26.92,41.29-27.56
				l980.73-30.6c21.19-0.66,39.96,10.59,44.58,26.72l23.53,82.23C2484.1,3135.25,2463.24,3155.52,2435.16,3155.52z"/>
			<path class="st2" d="M1965.48,3049.87c-2,0-3.63-1.61-3.66-3.61c-0.03-2.03,1.59-3.69,3.61-3.72l42.03-0.61h0.06
				c2,0,3.63,1.61,3.66,3.61c0.03,2.02-1.59,3.69-3.61,3.72l-42.03,0.61C1965.52,3049.87,1965.5,3049.87,1965.48,3049.87z"/>
			<path class="st2" d="M1412.47,3127.41c-0.19,0-0.39-0.01-0.58-0.05c-2-0.32-3.36-2.2-3.04-4.19l5.99-37.55
				c3.25-20.35,20.56-35.33,41.16-35.64l445.74-6.51c1.93-0.08,3.69,1.59,3.72,3.61c0.03,2.02-1.59,3.69-3.61,3.72l-445.74,6.52
				c-17.03,0.25-31.34,12.64-34.03,29.46l-5.99,37.55C1415.79,3126.13,1414.23,3127.41,1412.47,3127.41z"/>
		</g>
		<g>
			<path class="st7" d="M2643.49,1538.84h-265.21c-16.65,0-30.14-13.49-30.14-30.14c0-16.65,13.5-30.14,30.14-30.14h265.21
				c16.65,0,30.14,13.49,30.14,30.14C2673.63,1525.34,2660.14,1538.84,2643.49,1538.84z"/>
			<path class="st8" d="M2741.1,1491.4h286.25c17.97,0,32.53,53.54,32.53,119.58v704.19c0,66.04-14.56,119.58-32.53,119.58H2741.1
				c-17.97,0-32.53-53.54-32.53-119.58v-704.19C2708.56,1544.94,2723.13,1491.4,2741.1,1491.4z"/>
			<path class="st9" d="M2378.28,1572.33h265.21c16.65,0,30.14,13.49,30.14,30.14v177.5c0,16.65-13.5,30.14-30.14,30.14h-265.21
				c-16.65,0-30.14-13.49-30.14-30.14v-177.5C2348.14,1585.82,2361.63,1572.33,2378.28,1572.33z"/>
			<path class="st10" d="M2378.28,1863.32h265.21c16.65,0,30.14,32.52,30.14,72.64v427.79c0,40.12-13.5,72.65-30.14,72.65h-265.21
				c-16.65,0-30.14-32.52-30.14-72.65v-427.79C2348.14,1895.85,2361.63,1863.32,2378.28,1863.32z"/>
			<path class="st11" d="M3056.56,1441.25H680.75c-27.5,0-49.79-22.29-49.79-49.79V1193.3c0-27.99,23.07-50.49,51.05-49.78
				l2375.81,60.08c27,0.68,48.53,22.77,48.53,49.78v138.08C3106.35,1418.95,3084.06,1441.25,3056.56,1441.25z"/>
			<path class="st12" d="M2261.75,2255.97h-800.5c-20.17,0-36.52-16.35-36.52-36.52v-682.79c0-20.17,16.35-36.52,36.52-36.52h800.5
				c20.17,0,36.52,16.35,36.52,36.52v682.79C2298.27,2239.62,2281.92,2255.97,2261.75,2255.97z"/>
			<path class="st13" d="M2296.01,2448.91l-1645.99-13.85c-19.96-0.17-36.05-16.39-36.05-36.35v-58.07
				c0-27.76,22.5-50.27,50.27-50.27h1629.54c10.72,0,19.41,8.69,19.41,19.41v122.1C2313.19,2441.34,2305.48,2448.99,2296.01,2448.91
				z"/>
			<path class="st14" d="M1339.55,2238.53H648.38c-19,0-34.41-15.4-34.41-34.41v-691.17c0-19,15.4-34.41,34.41-34.41h691.17
				c19,0,34.41,15.4,34.41,34.41v691.17C1373.96,2223.13,1358.55,2238.53,1339.55,2238.53z"/>
		</g>
		<g>
			<g>
				<g>
					<linearGradient id="SVGID_5_" gradientUnits="userSpaceOnUse" x1="1773.8389" y1="2203.6516" x2="2655.4338" y2="1584.5159">
						<stop  offset="0" style="stop-color:#FF928E"/>
						<stop  offset="1" style="stop-color:#FE7062"/>
					</linearGradient>
					<path class="st15" d="M1847.26,1557.2l778.48-6.98c15.27-0.14,27.69,12.25,27.6,27.51l-3.41,597.37
						c-0.09,15.37-12.78,27.65-28.15,27.19c-140.75-4.2-765.66-22.71-793.25-21.56c-27.26,1.14-12.45-478.74-8.38-597.14
						C1820.67,1568.96,1832.61,1557.33,1847.26,1557.2z"/>
					<path class="st16" d="M2622.62,2179.78l-0.16,0c-111.82-3.34-674.86-20.06-778.65-21.52l-1.39-0.02l-0.24-1.37
						c-9.76-55.05-9.56-279.77,0.5-572.49c0.09-2.58,2.19-4.62,4.78-4.65l778.48-6.98c1.71,0,2.83,0.78,3.47,1.43
						c0.92,0.92,1.41,2.11,1.4,3.43l-3.41,597.38C2627.39,2177.62,2625.25,2179.78,2622.62,2179.78z M1845.26,2154.91
						c107.36,1.59,665.98,18.18,777.3,21.5l0.11,0c0.73,0,1.36-0.65,1.37-1.46l3.41-597.37c0-0.42-0.13-0.74-0.42-1.04
						c-0.29-0.29-0.64-0.43-1.07-0.43l-778.46,6.98c-0.79,0.01-1.42,0.62-1.45,1.39
						C1836.07,1874.62,1835.78,2097.79,1845.26,2154.91z"/>
				</g>
				<path class="st0" d="M1941.21,2102.97h510.31c15.89,0,25.76-17.26,17.7-30.95l-202.03-343.45
					c-8.43-14.32-29.49-13.23-36.39,1.89l-97.55,213.75c-5.79,12.69-22.28,16.04-32.56,6.61l-39.46-36.17
					c-9.17-8.4-23.64-6.8-30.74,3.42l-106.14,152.64C1914.88,2084.33,1924.62,2102.97,1941.21,2102.97z"/>
				
					<ellipse transform="matrix(0.9239 -0.3827 0.3827 0.9239 -471.443 1066.2959)" class="st0" cx="2444.59" cy="1718.2" rx="73.36" ry="73.36"/>
			</g>
			<g>
				<g>
					
						<linearGradient id="SVGID_6_" gradientUnits="userSpaceOnUse" x1="2864.9922" y1="2554.2798" x2="3110.3662" y2="1957.9476" gradientTransform="matrix(0.9998 -0.0189 0.0189 0.9998 -59.5478 19.4772)">
						<stop  offset="0" style="stop-color:#09005D"/>
						<stop  offset="1" style="stop-color:#1A0F91"/>
					</linearGradient>
					<path class="st17" d="M3112.59,2272.98c-17.91-66.25-73.26-120.68-134.94-134.44c-11.33-2.53-17.89-14.07-15.23-25.37
						c0.02-0.08,0.04-0.16,0.06-0.24c8.94-38.53-15.76-69.23-53.01-77.87c-37.25-8.64-72.94,8.05-81.88,46.58
						c-6.03,26,1.69,55.25,18.8,74.2c7.05,7.81,7.61,19.46,0.79,27.46c-37.58,44.03-52.87,111.23-36.62,171.35
						c23.94,88.54,107.19,128.09,190.6,105.54C3084.55,2437.64,3136.52,2361.52,3112.59,2272.98z"/>
					<path class="st2" d="M3086.65,2357.48l-1.62-1.14c14.93-21.19,16.85-51.78,5-79.83c-9.41-22.28-26.25-42.65-52.99-64.11
						c-9.96-8-20.53-15.59-30.74-22.93c-12.3-8.84-25.02-17.97-36.81-27.91c-10.6-8.94-21.76-20.03-24.1-34.53
						c-1.17-7.23-0.08-14.94,0.98-22.38c1.65-11.66,3.21-22.67-3.62-31.1l1.54-1.25c7.38,9.1,5.68,21.06,4.04,32.63
						c-1.03,7.3-2.1,14.85-0.99,21.79c2.24,13.87,13.1,24.63,23.42,33.33c11.73,9.88,24.42,19,36.69,27.81
						c10.24,7.36,20.83,14.96,30.83,22.99c27.01,21.68,44.03,42.29,53.57,64.88C3103.96,2304.41,3101.97,2335.73,3086.65,2357.48z"
						/>
					<path class="st2" d="M3046.99,2370.27l-1.86-0.67c10.16-28.1,7.19-62.63-8.16-94.74c-15.21-31.82-40.08-57.77-60.05-76.82
						l1.37-1.43c20.09,19.16,45.12,45.29,60.47,77.4C3054.33,2306.59,3057.33,2341.67,3046.99,2370.27z"/>
				</g>
				<linearGradient id="SVGID_7_" gradientUnits="userSpaceOnUse" x1="2633.8401" y1="1920.7799" x2="2845.0955" y2="2397.7812">
					<stop  offset="0" style="stop-color:#FEBBBA"/>
					<stop  offset="1" style="stop-color:#FF928E"/>
				</linearGradient>
				<path class="st18" d="M2647.02,2006.8l-0.69-22.88l23.92-47.49c4.38-8.69,4.41-18.93,0.09-27.64l-27.09-54.7
					c0,0-15.65,118.74-19.76,128.61c-4.12,9.87,11.16,27.6,11.16,27.6L2647.02,2006.8z"/>
				<linearGradient id="SVGID_8_" gradientUnits="userSpaceOnUse" x1="2637.5935" y1="1919.1177" x2="2848.8489" y2="2396.1189">
					<stop  offset="0" style="stop-color:#FEBBBA"/>
					<stop  offset="1" style="stop-color:#FF928E"/>
				</linearGradient>
				<path class="st19" d="M2646.33,1983.92c0,0,72.75,198.32,196.7,260.3c0,0-41.26,67.32-62.79,71.4
					c0,0-132.42-169.48-145.92-308.33L2646.33,1983.92z"/>
				<linearGradient id="SVGID_9_" gradientUnits="userSpaceOnUse" x1="3164.469" y1="2883.8752" x2="3178.9971" y2="3242.2373">
					<stop  offset="0" style="stop-color:#4F52FF"/>
					<stop  offset="1" style="stop-color:#4042E2"/>
				</linearGradient>
				<path class="st20" d="M3144.84,3176.85l3.66,30.08c3.81,14.29,22.21,50.31,45.83,47.96c14.53-1.44,16.28-43.9,14.26-50.26
					c-3.69-11.61-10.44-29.04-20.18-39.3h-33.36C3148.88,3165.33,3144.1,3170.73,3144.84,3176.85z"/>
				<linearGradient id="SVGID_10_" gradientUnits="userSpaceOnUse" x1="2872.9814" y1="3445.9207" x2="2965.5432" y2="2364.105">
					<stop  offset="0" style="stop-color:#FEBBBA"/>
					<stop  offset="1" style="stop-color:#FF928E"/>
				</linearGradient>
				<path class="st21" d="M2883.53,2824.53l-5.63,33.13c0,0,18.86,191.01,22.21,267.42c0.53,11.98-2.57,23.82-8.86,34.03
					l-32.79,53.25l83.34-49.18l1.66-10.17l-13.64-18.76l17.87-213.98c1.05-12.57-1.54-25.18-7.47-36.31l-17.24-32.38
					L2883.53,2824.53z"/>
				<linearGradient id="SVGID_11_" gradientUnits="userSpaceOnUse" x1="2916.4575" y1="2855.4067" x2="2894.665" y2="3250.0901">
					<stop  offset="0" style="stop-color:#4F52FF"/>
					<stop  offset="1" style="stop-color:#4042E2"/>
				</linearGradient>
				<path class="st22" d="M2852.97,3220.07h26.59c4.98,0,9.67-2.29,12.71-6.23c8.29-10.77,25.47-31.79,33.68-32.34
					c11.06-0.74,9.64,38.57,9.64,38.57h6.2l7.85-48.84c1.98-12.29-4.14-24.46-15.17-30.22l0,0c0,0-2.53,18.69-16.23,26.96
					c-13.7,8.27-55.77,37.88-55.77,37.88s-5.15-0.73-10.81,0.29C2843.27,3207.64,2844.45,3220.07,2852.97,3220.07z"/>
				<linearGradient id="SVGID_12_" gradientUnits="userSpaceOnUse" x1="3059.1748" y1="3462.0171" x2="3151.7607" y2="2379.9177">
					<stop  offset="0" style="stop-color:#FEBBBA"/>
					<stop  offset="1" style="stop-color:#FF928E"/>
				</linearGradient>
				<path class="st23" d="M2997.68,2840.27c0,0,110.47,209.56,128.04,257.41c17.56,47.85,23.71,87.76,23.95,91.54
					c0.37,5.91,7.71,11.57,27.96,11.57c10.45,0,15.57-4.19,18.07-8.24c2.14-3.46,2.25-7.79,0.45-11.43
					c-6.39-12.93-26.67-54.26-34.18-73.01c-8.97-22.38-28.26-123.81-38.84-159.07c-10.58-35.27-22.54-73.52-68.61-108.76
					C3054.52,2840.27,3022.9,2809.29,2997.68,2840.27z"/>
				<linearGradient id="SVGID_13_" gradientUnits="userSpaceOnUse" x1="3024.6038" y1="2165.1802" x2="2745.1008" y2="2555.7673">
					<stop  offset="0" style="stop-color:#FF928E"/>
					<stop  offset="1" style="stop-color:#FE7062"/>
				</linearGradient>
				<path class="st24" d="M2927.89,2496.89c-16.18-68.56,0.1-120.21,17.19-152.05c13.64-25.4,4.05-56.81-21.53-70.11
					c-39.97-20.79-80.52-30.51-80.52-30.51s-79.2,57.9-69.8,103.22c5.51,26.56,55.67,159.1,55.67,159.1
					S2875.28,2528.48,2927.89,2496.89z"/>
				<linearGradient id="SVGID_14_" gradientUnits="userSpaceOnUse" x1="3179.1428" y1="2357.0522" x2="2681.2092" y2="3028.509">
					<stop  offset="0" style="stop-color:#4F52FF"/>
					<stop  offset="1" style="stop-color:#4042E2"/>
				</linearGradient>
				<path class="st25" d="M2991.07,2556.67c-11.6-34.94-63.18-59.78-63.18-59.78c-52.6,31.59-98.99,9.64-98.99,9.64
					s-10.4,39.76-3.22,76.71c7.18,36.95,52.22,274.42,52.22,274.42c70.97,14.38,180.13-14.47,180.13-14.47
					C3012.82,2762.93,3002.67,2591.61,2991.07,2556.67z"/>
				<linearGradient id="SVGID_15_" gradientUnits="userSpaceOnUse" x1="2862.8303" y1="2379.575" x2="2880.2178" y2="2252.3726">
					<stop  offset="0" style="stop-color:#FEBBBA"/>
					<stop  offset="1" style="stop-color:#FF928E"/>
				</linearGradient>
				<path class="st26" d="M2894.81,2164.42l23.17,104.07c2.22,9.17-6.14,7.67-15.41,5.92c-15.18-2.86-34.74-8.75-41.28-20.56
					c-0.67-1.2-1-2.56-1.19-3.92l-9.95-72.16c-0.79-5.73,2.31-11.28,7.59-13.63l19.21-8.52
					C2884.35,2152.33,2892.9,2156.55,2894.81,2164.42z"/>
				<linearGradient id="SVGID_16_" gradientUnits="userSpaceOnUse" x1="2770.9216" y1="2082.1519" x2="2754.5742" y2="2484.5427">
					<stop  offset="0" style="stop-color:#FEBBBA"/>
					<stop  offset="1" style="stop-color:#FF928E"/>
				</linearGradient>
				<path class="st27" d="M2605.22,2095.68c0,0,60.98,211.84,306.88,191.93c15.73-1.27,29.55,10.38,30.77,26.12l0.66,8.5
					c1.77,22.8-16.83,42.01-39.67,40.86c-81.79-4.14-257.43-36.26-317.63-230.58L2605.22,2095.68z"/>
				<linearGradient id="SVGID_17_" gradientUnits="userSpaceOnUse" x1="2588.2427" y1="2078.688" x2="2573.0137" y2="2453.5513">
					<stop  offset="0" style="stop-color:#FEBBBA"/>
					<stop  offset="1" style="stop-color:#FF928E"/>
				</linearGradient>
				<path class="st28" d="M2586.24,2132.5c0,0-11.72-34.48-14.66-56.04s7.89-69.93,17.2-83.53c9.31-13.6,10.87,19.74,15.06,35.41
					c4.19,15.67-2.91,38.03-2.91,38.03l4.28,29.31L2586.24,2132.5z"/>
				<g>
					
						<linearGradient id="SVGID_18_" gradientUnits="userSpaceOnUse" x1="-5429.1294" y1="2967.6506" x2="-5312.6914" y2="3101.5237" gradientTransform="matrix(0.9653 0.2612 -0.2612 0.9653 8856.9795 649.0368)">
						<stop  offset="0" style="stop-color:#FEBBBA"/>
						<stop  offset="1" style="stop-color:#FF928E"/>
					</linearGradient>
					<path class="st29" d="M2847.3,2078.56c0,0-58.58,85.35-22.15,109.13c36.43,23.78,78.14-36.87,78.14-36.87
						s13.09-46.35-1.8-61.71C2886.59,2073.74,2847.3,2078.56,2847.3,2078.56z"/>
					
						<linearGradient id="SVGID_19_" gradientUnits="userSpaceOnUse" x1="2742.2405" y1="2510.6812" x2="2989.8013" y2="1909.0344" gradientTransform="matrix(0.9998 -0.0189 0.0189 0.9998 -59.5478 19.4772)">
						<stop  offset="0" style="stop-color:#09005D"/>
						<stop  offset="1" style="stop-color:#1A0F91"/>
					</linearGradient>
					<path class="st30" d="M2871.88,2057.85c0,0-25.49,6.55-28.86,18.2c-3.37,11.65,36.73,21.64,47.92,21.96l9.89,46.58
						c0,0,25.8-44.48,14.77-69.67C2904.57,2049.71,2871.88,2057.85,2871.88,2057.85z"/>
					
						<linearGradient id="SVGID_20_" gradientUnits="userSpaceOnUse" x1="-5400.0376" y1="2942.3469" x2="-5283.6011" y2="3076.218" gradientTransform="matrix(0.9653 0.2612 -0.2612 0.9653 8856.9795 649.0368)">
						<stop  offset="0" style="stop-color:#FEBBBA"/>
						<stop  offset="1" style="stop-color:#FF928E"/>
					</linearGradient>
					<path class="st31" d="M2891.5,2144.84c0,0,22.91-27.57,32.56-10.06c9.65,17.51-20.5,31.36-31.18,22.87L2891.5,2144.84z"/>
				</g>
			</g>
		</g>
		<g>
			<g>
				<g>
					<path class="st2" d="M700.05,2962.97l932.69,0v-151.48l-932.69,0C720.01,2811.49,720.01,2962.97,700.05,2962.97z"/>
					<linearGradient id="SVGID_21_" gradientUnits="userSpaceOnUse" x1="1171.2394" y1="1925.7365" x2="1181.3337" y2="2447.2898">
						<stop  offset="0" style="stop-color:#FF928E"/>
						<stop  offset="1" style="stop-color:#FE7062"/>
					</linearGradient>
					<path class="st32" d="M1632.74,2925.06v-69.33c0-24.44-18.43-44.25-41.17-44.25H703.98c-17.88,0-32.37-11.76-32.37-26.27
						c0-4.41,4.4-7.98,9.84-7.98h970.07c22.25,0,57.57,28.38,57.57,63.39v96.82c0,33.01-34.29,59.77-55.27,59.77H686.54
						c-8.25,0-14.94-5.43-14.94-12.12c0-12.22,12.21-22.13,27.27-22.13h898.6C1616.95,2962.97,1632.74,2946,1632.74,2925.06z"/>
				</g>
				<path class="st33" d="M1606.87,2845.94H732.35c-1.86,0-3.36-1.51-3.36-3.36c0-1.86,1.51-3.36,3.36-3.36h874.53
					c1.86,0,3.36,1.51,3.36,3.36C1610.24,2844.43,1608.73,2845.94,1606.87,2845.94z"/>
				<path class="st33" d="M1606.87,2868.42H732.35c-1.86,0-3.36-1.51-3.36-3.36s1.51-3.36,3.36-3.36h874.53
					c1.86,0,3.36,1.51,3.36,3.36S1608.73,2868.42,1606.87,2868.42z"/>
				<path class="st33" d="M1606.87,2890.91H732.35c-1.86,0-3.36-1.51-3.36-3.36s1.51-3.36,3.36-3.36h874.53
					c1.86,0,3.36,1.51,3.36,3.36S1608.73,2890.91,1606.87,2890.91z"/>
				<path class="st33" d="M1606.87,2913.39H732.35c-1.86,0-3.36-1.51-3.36-3.36c0-1.86,1.51-3.36,3.36-3.36h874.53
					c1.86,0,3.36,1.51,3.36,3.36C1610.24,2911.88,1608.73,2913.39,1606.87,2913.39z"/>
				<path class="st33" d="M1606.87,2935.87H732.35c-1.86,0-3.36-1.51-3.36-3.36c0-1.86,1.51-3.36,3.36-3.36h874.53
					c1.86,0,3.36,1.51,3.36,3.36C1610.24,2934.37,1608.73,2935.87,1606.87,2935.87z"/>
			</g>
			<g>
				<linearGradient id="SVGID_22_" gradientUnits="userSpaceOnUse" x1="1160.4968" y1="3911.1245" x2="1131.0215" y2="3310.2842">
					<stop  offset="0" style="stop-color:#4F52FF"/>
					<stop  offset="1" style="stop-color:#4042E2"/>
				</linearGradient>
				<path class="st34" d="M1729.69,3252.45H514.26c-8.11,0-14.68-6.57-14.68-14.68v-223.75c0-8.11,6.57-14.68,14.68-14.68h1215.43
					c8.11,0,14.68,6.57,14.68,14.68v223.75C1744.37,3245.88,1737.8,3252.45,1729.69,3252.45z"/>
				<path class="st35" d="M762.13,3223.36h-97.5c-13.46,0-24.37-10.91-24.37-24.37v-146.2c0-13.46,10.91-24.37,24.37-24.37h97.5
					c13.46,0,24.37,10.91,24.37,24.37V3199C786.49,3212.45,775.59,3223.36,762.13,3223.36z"/>
				<path class="st35" d="M843.05,3223.36h-15.23c-10.95,0-19.82-8.87-19.82-19.82v-155.29c0-10.95,8.87-19.82,19.82-19.82h15.23
					c10.95,0,19.82,8.87,19.82,19.82v155.29C862.87,3214.49,854,3223.36,843.05,3223.36z"/>
			</g>
		</g>
		<g>
			<g>
				
					<linearGradient id="SVGID_23_" gradientUnits="userSpaceOnUse" x1="1460.1759" y1="1315.9187" x2="1341.8503" y2="1559.814" gradientTransform="matrix(0.987 0.1608 -0.1608 0.987 126.9837 357.2448)">
					<stop  offset="0" style="stop-color:#09005D"/>
					<stop  offset="1" style="stop-color:#1A0F91"/>
				</linearGradient>
				<path class="st36" d="M1129.28,2096.09c-0.6,1.14-38.66,29.15-38.66,29.15s8.4,60.12,42.53,83.86
					c37.52,26.1,90.5-21.5,90.5-21.5s42.17,10.02,64.59-77.75c5.14-20.14-24.55-21.84-60.39-18.13
					C1181.63,2096.5,1129.28,2096.09,1129.28,2096.09z"/>
				<linearGradient id="SVGID_24_" gradientUnits="userSpaceOnUse" x1="1523.9419" y1="1641.4044" x2="1241.2927" y2="2334.5681">
					<stop  offset="0" style="stop-color:#FF928E"/>
					<stop  offset="1" style="stop-color:#FE7062"/>
				</linearGradient>
				<path class="st37" d="M1058.16,2301.19c14.89-10.24,31.34-17.95,48.79-22.7c6.55-1.78,41.94,8.5,63.82,8
					c30.03-0.69,60.59-14.36,85.35-8.19c24.59,6.13,44.71,14.13,56.33,22.39c34.78,24.74,55.2,70.86,67.64,116.55
					c-23.56,24.19-53.21,34.94-53.21,34.94l-5.48,222.07l-131.32,67.19l-149.88-75.25l5.37-217.02c0,0-47.6-22.16-51.09-30.23
					C990.98,2410.89,1016.17,2330.07,1058.16,2301.19z"/>
				<linearGradient id="SVGID_25_" gradientUnits="userSpaceOnUse" x1="964.1046" y1="2370.4368" x2="1213.6436" y2="2973.2195">
					<stop  offset="0" style="stop-color:#FEBBBA"/>
					<stop  offset="1" style="stop-color:#FF928E"/>
				</linearGradient>
				<path class="st38" d="M996.69,2417.98c0,0-63.78,176.82,81.66,249.5c30.2-4.01,18.58-54.16,18.58-54.16
					s-63.2-13.99-44.22-161.49C1035.25,2437.45,996.69,2417.98,996.69,2417.98z"/>
				
					<linearGradient id="SVGID_26_" gradientUnits="userSpaceOnUse" x1="-5573.5527" y1="2369.1409" x2="-5324.0137" y2="2971.9238" gradientTransform="matrix(-1 0 0 1 -4167.0742 0)">
					<stop  offset="0" style="stop-color:#FEBBBA"/>
					<stop  offset="1" style="stop-color:#FF928E"/>
				</linearGradient>
				<path class="st39" d="M1377.02,2417.98c0,0,43.89,184.58-81.66,249.5c-30.2-4.01-18.58-54.16-18.58-54.16
					s50.93-25.08,44.22-161.49C1338.46,2437.45,1377.02,2417.98,1377.02,2417.98z"/>
				<linearGradient id="SVGID_27_" gradientUnits="userSpaceOnUse" x1="1185.7622" y1="2448.3408" x2="1172.7909" y2="2973.686">
					<stop  offset="0" style="stop-color:#09005D"/>
					<stop  offset="1" style="stop-color:#1A0F91"/>
				</linearGradient>
				<path class="st40" d="M1318.09,2679.9H1046.8c-4.58,0-8.33-3.75-8.33-8.33v-177.8c0-4.58,3.75-8.33,8.33-8.33h271.29
					c4.58,0,8.33,3.75,8.33,8.33v177.8C1326.43,2676.15,1322.68,2679.9,1318.09,2679.9z"/>
				<g>
					
						<linearGradient id="SVGID_28_" gradientUnits="userSpaceOnUse" x1="1347.0853" y1="2737.2583" x2="1483.4496" y2="2737.2583" gradientTransform="matrix(1 7.700000e-03 -7.700000e-03 1 9.5247 16.8137)">
						<stop  offset="0" style="stop-color:#09005D"/>
						<stop  offset="1" style="stop-color:#1A0F91"/>
					</linearGradient>
					<path class="st41" d="M1452.73,2737.55c-32.95-7.56-109.12-3.5-109.12-3.5l-3.1,8.39l-5.13,41.7c0,0,72.54,13.07,108.29,13.04
						c3.65,0,6.98-0.55,10.03-1.5c1.09-0.98,2.16-1.99,3.16-3.09C1472.04,2776.03,1467.65,2751.69,1452.73,2737.55z"/>
					<linearGradient id="SVGID_29_" gradientUnits="userSpaceOnUse" x1="1425.5385" y1="2518.5737" x2="1281.5964" y2="2908.4565">
						<stop  offset="0" style="stop-color:#FEBBBA"/>
						<stop  offset="1" style="stop-color:#FF928E"/>
					</linearGradient>
					<path class="st42" d="M1321.72,2731.7l12.9,0.55c6.93,0.3,13.46,3.67,18.12,9.37c4.66,5.7,7.06,13.23,6.65,20.91
						c-0.33,6.12-2.84,11.85-6.98,15.91c-4.14,4.06-9.57,6.12-15.09,5.73l-19.73-1.4L1321.72,2731.7z"/>
				</g>
				<g>
					
						<linearGradient id="SVGID_30_" gradientUnits="userSpaceOnUse" x1="-5873.7095" y1="2697.6765" x2="-5737.2876" y2="2697.6765" gradientTransform="matrix(-0.9998 -0.02 -0.02 0.9998 -4813.9961 -50.8396)">
						<stop  offset="0" style="stop-color:#09005D"/>
						<stop  offset="1" style="stop-color:#1A0F91"/>
					</linearGradient>
					<path class="st43" d="M888.04,2733.54c33.13-6.55,109.17-0.15,109.17-0.15l2.89,8.48l4.09,41.84c0,0-72.83,10.84-108.57,9.71
						c-3.65-0.12-6.97-0.77-9.99-1.81c-1.07-1.01-2.1-2.06-3.08-3.19C867.79,2771.41,872.77,2747.22,888.04,2733.54z"/>
					<linearGradient id="SVGID_31_" gradientUnits="userSpaceOnUse" x1="1137.1478" y1="2401.0825" x2="993.1301" y2="2791.1702">
						<stop  offset="0" style="stop-color:#FEBBBA"/>
						<stop  offset="1" style="stop-color:#FF928E"/>
					</linearGradient>
					<path class="st44" d="M1019.15,2731.72l-12.91,0.15c-6.93,0.08-13.55,3.26-18.35,8.81c-4.8,5.55-7.38,13.01-7.17,20.7
						c0.17,6.13,2.54,11.93,6.58,16.12c4.04,4.19,9.42,6.42,14.94,6.19l19.76-0.8L1019.15,2731.72z"/>
				</g>
				<linearGradient id="SVGID_32_" gradientUnits="userSpaceOnUse" x1="1486.5491" y1="2511.0481" x2="1112.3525" y2="2792.1428">
					<stop  offset="0" style="stop-color:#4F52FF"/>
					<stop  offset="1" style="stop-color:#4042E2"/>
				</linearGradient>
				<path class="st45" d="M1461.95,2606.82c-14.94-34.4-51.5-39.98-82.61-23.9c-0.54,0.71-197.57,101.69-371.33,145.95
					c4.97,15.95,7.53,32.92,8.09,49.59c0.1,3.72,0.04,7.38-0.18,11c133.25-6.84,277.86-51.28,402.12-90.33
					C1456.58,2686.7,1478.51,2644.94,1461.95,2606.82z"/>
				<linearGradient id="SVGID_33_" gradientUnits="userSpaceOnUse" x1="1148.1609" y1="2763.1624" x2="1050.0891" y2="2513.0801">
					<stop  offset="0" style="stop-color:#4F52FF"/>
					<stop  offset="1" style="stop-color:#4042E2"/>
				</linearGradient>
				<path class="st46" d="M1322.67,2781.08c-0.52-19.22,3.22-37.12,11.21-53.69c0.23-0.76,0.5-1.49,0.74-2.24
					c-9.92-3.07-22.74-7.24-39.58-12.95c-123.38-42.23-217.51-84.86-307.35-133.94c-34.9-19.07-74.58-6.29-85.75,35.01
					c-9.97,36.86,11.93,68.34,45.17,79.4c99.44,33.09,47.67,23.9,80.14,34.35c87.22,26.97,195.76,51.54,295.62,58.25
					C1322.8,2783.87,1322.72,2782.47,1322.67,2781.08z"/>
				<linearGradient id="SVGID_34_" gradientUnits="userSpaceOnUse" x1="1183.1641" y1="2420.2068" x2="1179.8439" y2="2131.3223">
					<stop  offset="0" style="stop-color:#FEBBBA"/>
					<stop  offset="1" style="stop-color:#FF928E"/>
				</linearGradient>
				<path class="st47" d="M1106.95,2278.49c0,0,13.27,57.5,77.69,56.31c65.62-1.19,71.47-56.5,71.47-56.5l-42.86-9.17l-3.58-47.76
					l-64.48,4.78l-1.19,45.37L1106.95,2278.49z"/>
				
					<linearGradient id="SVGID_35_" gradientUnits="userSpaceOnUse" x1="1338.8527" y1="1709.54" x2="1349.1956" y2="1458.1606" gradientTransform="matrix(0.987 0.1608 -0.1608 0.987 126.9837 357.2448)">
					<stop  offset="0" style="stop-color:#FEBBBA"/>
					<stop  offset="1" style="stop-color:#FF928E"/>
				</linearGradient>
				<path class="st48" d="M1154.24,2086.05c0,0-73.89,143.13,13.76,177.85c61.82,24.49,100.59-95.05,89.03-127.43
					c-17.88-50.06-29.65-44.12-29.65-44.12L1154.24,2086.05z"/>
				
					<linearGradient id="SVGID_36_" gradientUnits="userSpaceOnUse" x1="1461.0428" y1="1281.5929" x2="1327.9011" y2="1556.0277" gradientTransform="matrix(0.987 0.1608 -0.1608 0.987 126.9837 357.2448)">
					<stop  offset="0" style="stop-color:#09005D"/>
					<stop  offset="1" style="stop-color:#1A0F91"/>
				</linearGradient>
				<path class="st49" d="M1274.81,2073.03c36.5,10.03,5.31,89.2-49.65,70.48c-54.96-18.72-76.55-18.45-85.12-3.36
					c-8.56,15.09-10.4,68.68-28.99,42.19c-20.37-29.04-31.73-87.33-6.75-106.12c22.32-16.79,27.53-42.83,54.31-41.93
					c35.54,1.2,63.02-14.56,79.06-3.19C1256.1,2044.15,1247.95,2065.65,1274.81,2073.03z"/>
				
					<linearGradient id="SVGID_37_" gradientUnits="userSpaceOnUse" x1="822.2534" y1="2641.6304" x2="838.4618" y2="2247.6965" gradientTransform="matrix(0.9911 -0.1329 0.1329 0.9911 -26.0254 -216.2621)">
					<stop  offset="0" style="stop-color:#FEBBBA"/>
					<stop  offset="1" style="stop-color:#FF928E"/>
				</linearGradient>
				<path class="st50" d="M1136.66,2152.46c0,0-15.76-16.96-18.28,3.48c-2.52,20.44,5.58,46.76,15.06,32.33
					C1142.93,2173.84,1136.66,2152.46,1136.66,2152.46z"/>
			</g>
			<path class="st2" d="M1199.43,2567.39c1.53,10.32-4,19.68-14.32,21.21c-10.32,1.53-19.92-5.6-21.45-15.92
				c-1.53-10.32,3.2-20.56,13.51-22.09C1187.5,2549.07,1197.9,2557.08,1199.43,2567.39z"/>
		</g>
		<g>
			<circle class="st0" cx="1001.36" cy="1686.71" r="337.03"/>
			<g>
				<path class="st2" d="M723.58,1670.27l70.72-36.88v15.71c0,1.19-0.3,2.28-0.89,3.26c-0.6,0.98-1.58,1.83-2.95,2.54l-32.41,16.61
					c-1.37,0.71-2.81,1.33-4.33,1.83c-1.52,0.51-3.14,0.97-4.87,1.38c1.73,0.42,3.35,0.88,4.87,1.38c1.52,0.51,2.96,1.12,4.33,1.83
					l32.41,16.7c1.37,0.71,2.35,1.56,2.95,2.54c0.59,0.98,0.89,2.07,0.89,3.26v15.72l-70.72-36.97V1670.27z"/>
				<path class="st2" d="M826.54,1734.91v-132.69h22.06v50.99c3.57-3.39,7.5-6.13,11.79-8.21c4.29-2.08,9.32-3.12,15.09-3.12
					c5,0,9.44,0.85,13.31,2.55c3.87,1.69,7.1,4.08,9.69,7.14c2.59,3.07,4.55,6.73,5.89,10.98c1.34,4.26,2.01,8.94,2.01,14.06v58.31
					h-22.05v-58.31c0-5.6-1.3-9.93-3.88-12.99c-2.59-3.06-6.47-4.6-11.65-4.6c-3.81,0-7.38,0.86-10.72,2.59
					c-3.33,1.73-6.49,4.08-9.46,7.05v66.26H826.54z"/>
				<path class="st2" d="M958.16,1736.34c-7.92,0-14.02-2.25-18.3-6.74c-4.29-4.49-6.43-10.7-6.43-18.62v-51.16h-9.29
					c-1.19,0-2.22-0.39-3.08-1.16c-0.86-0.77-1.29-1.93-1.29-3.48v-8.75l14.73-2.41l4.64-25c0.24-1.19,0.79-2.11,1.65-2.77
					c0.86-0.65,1.95-0.98,3.26-0.98h11.43v28.84h24.11v15.72h-24.11v49.65c0,2.86,0.72,5.09,2.14,6.7c1.43,1.61,3.33,2.41,5.71,2.41
					c1.37,0,2.51-0.16,3.44-0.49c0.92-0.33,1.73-0.67,2.41-1.03c0.68-0.36,1.29-0.7,1.83-1.03c0.53-0.33,1.07-0.49,1.61-0.49
					c0.65,0,1.19,0.17,1.61,0.49c0.42,0.33,0.86,0.82,1.34,1.47l6.61,10.71c-3.21,2.68-6.91,4.7-11.07,6.07
					C966.94,1735.66,962.62,1736.34,958.16,1736.34z"/>
				<path class="st2" d="M997.18,1734.91v-91.61h13.48c2.86,0,4.73,1.34,5.62,4.02l1.43,6.79c1.61-1.79,3.29-3.42,5.05-4.91
					c1.75-1.49,3.63-2.77,5.62-3.84c1.99-1.07,4.14-1.92,6.43-2.54c2.29-0.62,4.81-0.94,7.55-0.94c5.77,0,10.52,1.56,14.24,4.69
					c3.72,3.12,6.5,7.28,8.35,12.46c1.43-3.03,3.21-5.64,5.36-7.81c2.14-2.17,4.5-3.94,7.05-5.31c2.56-1.37,5.28-2.38,8.17-3.03
					c2.89-0.65,5.79-0.98,8.71-0.98c5.06,0,9.55,0.77,13.48,2.32c3.93,1.55,7.23,3.81,9.91,6.78c2.68,2.98,4.72,6.61,6.12,10.89
					c1.4,4.29,2.1,9.2,2.1,14.73v58.31h-22.06v-58.31c0-5.83-1.28-10.22-3.84-13.17c-2.56-2.95-6.31-4.42-11.25-4.42
					c-2.26,0-4.36,0.39-6.29,1.16c-1.94,0.77-3.63,1.89-5.09,3.35c-1.46,1.46-2.6,3.29-3.44,5.49c-0.83,2.2-1.25,4.73-1.25,7.59
					v58.31h-22.14v-58.31c0-6.13-1.24-10.59-3.71-13.39c-2.47-2.8-6.12-4.2-10.94-4.2c-3.16,0-6.12,0.79-8.89,2.37
					c-2.77,1.58-5.34,3.74-7.72,6.48v67.06H997.18z"/>
				<path class="st2" d="M1171.03,1602.22v132.69h-22.06v-132.69H1171.03z"/>
				<path class="st2" d="M1204.6,1716.16v-15.72c0-1.19,0.3-2.28,0.89-3.26c0.59-0.98,1.58-1.83,2.95-2.54l32.41-16.7
					c2.62-1.31,5.68-2.38,9.2-3.21c-1.73-0.42-3.35-0.88-4.87-1.38c-1.52-0.51-2.96-1.12-4.33-1.83l-32.41-16.61
					c-1.37-0.72-2.35-1.56-2.95-2.54c-0.6-0.98-0.89-2.07-0.89-3.26v-15.71l70.72,36.88v8.93L1204.6,1716.16z"/>
			</g>
		</g>
		<g>
			<circle class="st0" cx="1774.45" cy="1469.01" r="296.87"/>
			<g>
				<path class="st2" d="M1617.5,1469.49l85.8-44.74v19.06c0,1.45-0.37,2.76-1.09,3.96c-0.72,1.19-1.91,2.22-3.58,3.09l-39.32,20.15
					c-1.66,0.86-3.41,1.61-5.25,2.22c-1.84,0.62-3.81,1.17-5.9,1.68c2.09,0.5,4.06,1.07,5.9,1.68c1.84,0.61,3.59,1.35,5.25,2.22
					l39.32,20.26c1.66,0.87,2.85,1.9,3.58,3.09c0.72,1.19,1.09,2.51,1.09,3.95v19.07l-85.8-44.85V1469.49z"/>
				<path class="st2" d="M1751.72,1548.25c-0.65,1.66-1.48,3.11-2.49,4.34c-1.01,1.23-2.17,2.26-3.47,3.09
					c-1.3,0.83-2.67,1.46-4.12,1.89c-1.45,0.44-2.86,0.65-4.22,0.65h-11.27l63.27-161.85c1.23-3.03,2.99-5.36,5.31-6.99
					c2.31-1.63,5.09-2.44,8.34-2.44h11.38L1751.72,1548.25z"/>
				<path class="st2" d="M1836.76,1525.18v-19.07c0-1.44,0.36-2.76,1.08-3.95c0.72-1.19,1.91-2.22,3.58-3.09l39.33-20.26
					c3.17-1.59,6.89-2.89,11.16-3.9c-2.09-0.5-4.06-1.06-5.9-1.68c-1.84-0.61-3.6-1.35-5.25-2.22l-39.33-20.15
					c-1.66-0.87-2.85-1.9-3.58-3.09c-0.72-1.19-1.08-2.51-1.08-3.96v-19.06l85.8,44.74v10.83L1836.76,1525.18z"/>
			</g>
		</g>
		<g>
			<g class="st51">
				<linearGradient id="SVGID_38_" gradientUnits="userSpaceOnUse" x1="3105.4875" y1="1634.6741" x2="3118.1479" y2="1634.6741">
					<stop  offset="0" style="stop-color:#4F52FF"/>
					<stop  offset="1" style="stop-color:#4042E2"/>
				</linearGradient>
				<path class="st52" d="M3108.85,1641.02c-0.87,0-1.75-0.34-2.41-1.01c-1.3-1.33-1.27-3.46,0.05-4.76
					c1.98-1.94,3.94-3.9,5.87-5.89c1.29-1.33,3.42-1.37,4.76-0.08c1.33,1.29,1.37,3.42,0.08,4.76c-1.97,2.03-3.97,4.04-6,6.03
					C3110.55,1640.7,3109.7,1641.02,3108.85,1641.02z"/>
				<linearGradient id="SVGID_39_" gradientUnits="userSpaceOnUse" x1="2576.6951" y1="1569.1674" x2="3100.0034" y2="1569.1674">
					<stop  offset="0" style="stop-color:#4F52FF"/>
					<stop  offset="1" style="stop-color:#4042E2"/>
				</linearGradient>
				<path class="st53" d="M2899,1729.62c-1.82,0-3.32-1.45-3.36-3.28c-0.04-1.86,1.43-3.4,3.28-3.44
					c5.45-0.13,10.98-0.41,16.45-0.84c1.85-0.12,3.47,1.24,3.62,3.09c0.14,1.85-1.24,3.47-3.09,3.62
					c-5.59,0.44-11.25,0.73-16.81,0.86C2899.05,1729.62,2899.03,1729.62,2899,1729.62z M2882.34,1729.57c-0.04,0-0.07,0-0.1,0
					c-5.59-0.16-11.24-0.48-16.81-0.95c-1.85-0.15-3.23-1.78-3.07-3.63c0.15-1.85,1.76-3.23,3.63-3.07
					c5.45,0.46,10.98,0.77,16.45,0.93c1.86,0.05,3.32,1.61,3.27,3.46C2885.64,1728.13,2884.15,1729.57,2882.34,1729.57z
					 M2932.19,1727.02c-1.66,0-3.11-1.23-3.33-2.92c-0.25-1.84,1.05-3.53,2.89-3.78c5.41-0.72,10.88-1.6,16.27-2.61
					c1.82-0.34,3.58,0.86,3.93,2.68c0.34,1.83-0.86,3.59-2.68,3.93c-5.5,1.04-11.09,1.93-16.62,2.66
					C2932.49,1727.01,2932.34,1727.02,2932.19,1727.02z M2849.15,1726.81c-0.15,0-0.31-0.01-0.46-0.03
					c-5.55-0.76-11.14-1.69-16.61-2.74c-1.82-0.35-3.02-2.12-2.66-3.94c0.35-1.82,2.11-3.01,3.94-2.67
					c5.35,1.03,10.82,1.93,16.26,2.68c1.84,0.25,3.13,1.95,2.87,3.79C2852.25,1725.59,2850.81,1726.81,2849.15,1726.81z
					 M2964.92,1720.86c-1.51,0-2.89-1.03-3.27-2.57c-0.44-1.81,0.67-3.63,2.47-4.07c5.29-1.29,10.64-2.76,15.89-4.34
					c1.78-0.54,3.66,0.47,4.2,2.25s-0.47,3.66-2.24,4.19c-5.37,1.62-10.83,3.12-16.24,4.44
					C2965.45,1720.83,2965.18,1720.86,2964.92,1720.86z M2816.45,1720.52c-0.27,0-0.54-0.03-0.81-0.1
					c-5.42-1.35-10.88-2.86-16.22-4.49c-1.78-0.54-2.78-2.43-2.23-4.2c0.54-1.78,2.43-2.78,4.2-2.24c5.23,1.6,10.57,3.08,15.88,4.4
					c1.8,0.45,2.9,2.27,2.45,4.08C2819.33,1719.49,2817.96,1720.52,2816.45,1720.52z M2996.79,1711.22c-1.38,0-2.67-0.85-3.16-2.22
					c-0.63-1.75,0.27-3.68,2.02-4.31c5.12-1.85,10.28-3.88,15.34-6.02c1.71-0.72,3.69,0.08,4.41,1.79c0.72,1.71-0.08,3.69-1.79,4.41
					c-5.17,2.19-10.44,4.25-15.67,6.15C2997.56,1711.16,2997.17,1711.22,2996.79,1711.22z M2784.61,1710.79
					c-0.38,0-0.77-0.07-1.15-0.21c-5.25-1.92-10.52-4-15.65-6.19c-1.71-0.73-2.5-2.71-1.77-4.42c0.73-1.71,2.72-2.5,4.42-1.77
					c5.02,2.14,10.17,4.18,15.32,6.06c1.74,0.64,2.65,2.57,2.01,4.31C2787.27,1709.94,2785.98,1710.79,2784.61,1710.79z
					 M3027.47,1698.25c-1.25,0-2.44-0.69-3.03-1.89c-0.81-1.67-0.12-3.69,1.55-4.5c4.93-2.4,9.84-4.96,14.62-7.6
					c1.62-0.9,3.67-0.31,4.57,1.31c0.9,1.62,0.31,3.67-1.31,4.57c-4.88,2.7-9.9,5.31-14.93,7.76
					C3028.46,1698.14,3027.96,1698.25,3027.47,1698.25z M2753.98,1697.73c-0.5,0-1-0.11-1.48-0.34c-5.01-2.46-10.03-5.09-14.91-7.82
					c-1.62-0.91-2.2-2.96-1.29-4.58c0.91-1.62,2.95-2.2,4.58-1.3c4.77,2.67,9.68,5.24,14.58,7.65c1.67,0.82,2.36,2.84,1.54,4.5
					C2756.42,1697.04,2755.22,1697.73,2753.98,1697.73z M3056.6,1682.11c-1.12,0-2.22-0.56-2.86-1.58
					c-0.99-1.58-0.51-3.65,1.07-4.64c4.64-2.91,9.26-5.97,13.72-9.11c1.52-1.07,3.62-0.7,4.69,0.82c1.07,1.52,0.7,3.62-0.82,4.69
					c-4.56,3.2-9.28,6.33-14.02,9.3C3057.82,1681.95,3057.21,1682.11,3056.6,1682.11z M2724.92,1681.49c-0.61,0-1.24-0.17-1.79-0.52
					c-4.72-2.98-9.42-6.13-13.98-9.36c-1.52-1.07-1.87-3.17-0.8-4.69c1.07-1.51,3.17-1.87,4.69-0.8c4.46,3.16,9.07,6.24,13.69,9.16
					c1.57,0.99,2.04,3.07,1.05,4.64C2727.13,1680.93,2726.04,1681.49,2724.92,1681.49z M3083.83,1662.97c-1,0-1.98-0.44-2.65-1.28
					c-1.15-1.46-0.9-3.58,0.57-4.73c4.31-3.39,8.58-6.93,12.67-10.53c1.39-1.22,3.52-1.09,4.75,0.31c1.23,1.4,1.08,3.52-0.31,4.75
					c-4.18,3.67-8.54,7.29-12.95,10.76C3085.3,1662.74,3084.56,1662.97,3083.83,1662.97z M2697.77,1662.25
					c-0.73,0-1.47-0.24-2.09-0.73c-4.38-3.48-8.72-7.11-12.89-10.8c-1.39-1.23-1.52-3.36-0.29-4.75c1.24-1.39,3.37-1.52,4.75-0.29
					c4.08,3.61,8.33,7.17,12.62,10.57c1.46,1.16,1.7,3.27,0.55,4.73C2699.75,1661.81,2698.77,1662.25,2697.77,1662.25z
					 M2672.86,1640.21c-0.85,0-1.71-0.32-2.36-0.97c-3.96-3.91-7.89-7.98-11.66-12.12c-1.25-1.37-1.15-3.5,0.22-4.75
					c1.38-1.25,3.5-1.15,4.75,0.22c3.69,4.05,7.53,8.04,11.41,11.86c1.32,1.3,1.34,3.43,0.04,4.76
					C2674.59,1639.88,2673.73,1640.21,2672.86,1640.21z M2650.46,1615.63c-0.98,0-1.94-0.42-2.61-1.24c-3.53-4.32-7-8.8-10.3-13.31
					c-1.09-1.5-0.77-3.61,0.73-4.7c1.5-1.1,3.6-0.77,4.7,0.73c3.23,4.41,6.61,8.8,10.07,13.03c1.18,1.44,0.96,3.56-0.48,4.74
					C2651.96,1615.38,2651.21,1615.63,2650.46,1615.63z M2630.81,1588.76c-1.1,0-2.18-0.54-2.82-1.53
					c-3.06-4.7-6.03-9.52-8.81-14.34c-0.93-1.61-0.38-3.67,1.23-4.6c1.6-0.93,3.66-0.38,4.6,1.23c2.72,4.71,5.62,9.43,8.62,14.03
					c1.02,1.56,0.57,3.64-0.98,4.66C2632.08,1588.59,2631.44,1588.76,2630.81,1588.76z M2614.14,1559.95c-1.23,0-2.41-0.67-3-1.84
					c-1.2-2.35-2.37-4.71-3.51-7.1c-1.29-2.69-2.54-5.39-3.74-8.1c-0.75-1.7,0.01-3.69,1.71-4.44c1.7-0.76,3.69,0.01,4.44,1.71
					c1.18,2.65,2.4,5.29,3.65,7.91c1.12,2.34,2.27,4.66,3.44,6.95c0.84,1.66,0.19,3.68-1.47,4.53
					C2615.18,1559.83,2614.65,1559.95,2614.14,1559.95z M2600.6,1529.53c-1.35,0-2.63-0.82-3.14-2.16c-2-5.21-3.88-10.55-5.6-15.87
					c-0.57-1.77,0.4-3.67,2.17-4.24c1.78-0.57,3.67,0.4,4.24,2.17c1.69,5.21,3.53,10.44,5.48,15.54c0.67,1.73-0.2,3.68-1.94,4.35
					C2601.41,1529.46,2601,1529.53,2600.6,1529.53z M2590.36,1497.84c-1.49,0-2.85-1-3.25-2.5c-1.42-5.37-2.72-10.89-3.87-16.38
					c-0.38-1.82,0.79-3.6,2.61-3.98c1.8-0.38,3.6,0.79,3.98,2.61c1.12,5.38,2.4,10.78,3.79,16.04c0.48,1.8-0.59,3.64-2.39,4.11
					C2590.93,1497.8,2590.64,1497.84,2590.36,1497.84z M2583.58,1465.24c-1.64,0-3.07-1.19-3.32-2.86
					c-0.84-5.52-1.54-11.14-2.09-16.71c-0.18-1.85,1.17-3.49,3.02-3.68c1.87-0.19,3.49,1.17,3.68,3.02
					c0.53,5.45,1.22,10.95,2.04,16.35c0.28,1.84-0.98,3.55-2.82,3.83C2583.92,1465.23,2583.75,1465.24,2583.58,1465.24z
					 M2580.35,1432.1c-1.79,0-3.28-1.41-3.36-3.22c-0.19-4.47-0.29-9.03-0.29-13.54l0.02-3.29c0.02-1.86,1.68-3.4,3.39-3.33
					c1.86,0.02,3.35,1.54,3.34,3.4l-0.02,3.23c0,4.41,0.1,8.87,0.29,13.25c0.08,1.86-1.36,3.43-3.22,3.51
					C2580.44,1432.1,2580.4,1432.1,2580.35,1432.1z"/>
				<linearGradient id="SVGID_40_" gradientUnits="userSpaceOnUse" x1="2577.3484" y1="1391.0601" x2="2584.7366" y2="1391.0601">
					<stop  offset="0" style="stop-color:#4F52FF"/>
					<stop  offset="1" style="stop-color:#4042E2"/>
				</linearGradient>
				<path class="st54" d="M2580.72,1398.62c-0.07,0-0.15,0-0.22-0.01c-1.85-0.12-3.26-1.72-3.14-3.58c0.18-2.83,0.4-5.65,0.66-8.47
					c0.17-1.85,1.78-3.22,3.66-3.04c1.85,0.17,3.21,1.81,3.04,3.66c-0.25,2.76-0.47,5.52-0.65,8.29
					C2583.96,1397.25,2582.48,1398.62,2580.72,1398.62z"/>
			</g>
			<g class="st51">
				<linearGradient id="SVGID_41_" gradientUnits="userSpaceOnUse" x1="2683.4858" y1="1177.7555" x2="2696.6338" y2="1177.7555">
					<stop  offset="0" style="stop-color:#4F52FF"/>
					<stop  offset="1" style="stop-color:#4042E2"/>
				</linearGradient>
				<path class="st55" d="M2686.85,1183.84c-0.94,0-1.87-0.39-2.54-1.16c-1.22-1.4-1.07-3.53,0.33-4.75
					c2.13-1.85,4.29-3.69,6.49-5.49c1.44-1.18,3.56-0.97,4.74,0.46c1.18,1.43,0.97,3.56-0.46,4.74c-2.15,1.76-4.26,3.56-6.35,5.37
					C2688.42,1183.56,2687.64,1183.84,2686.85,1183.84z"/>
				<linearGradient id="SVGID_42_" gradientUnits="userSpaceOnUse" x1="2703.4392" y1="1268.0646" x2="3205.842" y2="1268.0646">
					<stop  offset="0" style="stop-color:#4F52FF"/>
					<stop  offset="1" style="stop-color:#4042E2"/>
				</linearGradient>
				<path class="st56" d="M3202.01,1435.45c-0.06,0-0.12,0-0.19,0c-1.86-0.1-3.28-1.69-3.17-3.54c0.31-5.67,0.47-11.38,0.47-16.96
					c0-1.86,1.51-3.36,3.36-3.36s3.36,1.51,3.36,3.36c0,5.71-0.16,11.54-0.48,17.33
					C3205.27,1434.06,3203.78,1435.45,3202.01,1435.45z M3202,1401.16c-1.77,0-3.26-1.39-3.35-3.18c-0.31-5.63-0.79-11.32-1.41-16.9
					c-0.2-1.85,1.13-3.51,2.97-3.72c1.81-0.22,3.51,1.12,3.72,2.97c0.63,5.71,1.12,11.52,1.44,17.28c0.1,1.85-1.32,3.44-3.17,3.55
					C3202.12,1401.16,3202.06,1401.16,3202,1401.16z M3198.21,1367.08c-1.61,0-3.04-1.16-3.32-2.81
					c-0.93-5.54-2.03-11.14-3.28-16.64c-0.41-1.81,0.73-3.61,2.54-4.02c1.81-0.4,3.61,0.73,4.03,2.54
					c1.27,5.63,2.4,11.35,3.35,17.01c0.31,1.83-0.93,3.57-2.76,3.88C3198.58,1367.06,3198.39,1367.08,3198.21,1367.08z
					 M3190.66,1333.63c-1.47,0-2.81-0.96-3.24-2.44c-1.55-5.44-3.26-10.88-5.1-16.18c-0.61-1.76,0.33-3.67,2.08-4.28
					c1.74-0.6,3.67,0.33,4.28,2.08c1.87,5.42,3.62,10.98,5.21,16.54c0.51,1.79-0.53,3.65-2.31,4.16
					C3191.27,1333.59,3190.96,1333.63,3190.66,1333.63z M3179.47,1301.22c-1.32,0-2.58-0.79-3.11-2.09
					c-2.12-5.2-4.42-10.42-6.84-15.53c-0.79-1.68-0.08-3.69,1.6-4.48c1.69-0.79,3.69-0.07,4.48,1.61
					c2.47,5.22,4.82,10.56,6.98,15.86c0.7,1.72-0.12,3.69-1.84,4.39C3180.32,1301.14,3179.89,1301.22,3179.47,1301.22z
					 M3164.8,1270.22c-1.2,0-2.36-0.64-2.96-1.76c-2.67-4.94-5.52-9.88-8.47-14.7c-0.97-1.58-0.48-3.66,1.11-4.63
					c1.57-0.98,3.65-0.48,4.63,1.11c3.02,4.91,5.93,9.97,8.66,15.01c0.88,1.63,0.27,3.68-1.36,4.56
					C3165.89,1270.09,3165.34,1270.22,3164.8,1270.22z M3146.86,1241.01c-1.07,0-2.12-0.51-2.77-1.45
					c-3.19-4.62-6.57-9.22-10.04-13.67c-1.14-1.47-0.88-3.58,0.59-4.72c1.47-1.14,3.58-0.88,4.72,0.59
					c3.54,4.55,6.99,9.25,10.26,13.98c1.06,1.53,0.68,3.62-0.85,4.68C3148.19,1240.81,3147.52,1241.01,3146.86,1241.01z
					 M3125.82,1213.96c-0.94,0-1.87-0.39-2.54-1.16c-3.69-4.24-7.55-8.43-11.48-12.47c-1.29-1.33-1.27-3.46,0.07-4.76
					c1.33-1.3,3.46-1.27,4.76,0.06c4.02,4.13,7.97,8.41,11.73,12.74c1.22,1.4,1.07,3.53-0.33,4.75
					C3127.4,1213.69,3126.61,1213.96,3125.82,1213.96z M3101.93,1189.42c-0.82,0-1.63-0.29-2.28-0.89
					c-4.12-3.79-8.43-7.53-12.79-11.12c-1.44-1.18-1.64-3.3-0.46-4.74c1.18-1.43,3.3-1.64,4.74-0.46
					c4.46,3.67,8.86,7.49,13.07,11.36c1.37,1.26,1.46,3.39,0.2,4.75C3103.75,1189.05,3102.84,1189.42,3101.93,1189.42z
					 M2706.81,1167.88c-1.04,0-2.06-0.47-2.71-1.37c-1.1-1.5-0.78-3.6,0.72-4.7c4.63-3.4,9.42-6.72,14.25-9.87
					c1.56-1.01,3.64-0.58,4.66,0.98c1.02,1.56,0.57,3.64-0.98,4.66c-4.73,3.08-9.41,6.33-13.95,9.66
					C2708.2,1167.66,2707.5,1167.88,2706.81,1167.88z M3075.45,1167.67c-0.69,0-1.39-0.21-1.98-0.65
					c-4.53-3.32-9.22-6.57-13.95-9.64c-1.56-1.02-2-3.1-0.98-4.66c1.01-1.56,3.09-2,4.66-0.98c4.83,3.15,9.62,6.46,14.25,9.85
					c1.5,1.1,1.82,3.21,0.73,4.7C3077.51,1167.19,3076.49,1167.67,3075.45,1167.67z M2735.52,1149.14c-1.16,0-2.29-0.6-2.92-1.68
					c-0.93-1.61-0.37-3.67,1.23-4.6c4.99-2.88,10.12-5.66,15.25-8.25c1.66-0.84,3.68-0.18,4.52,1.48c0.84,1.66,0.17,3.68-1.49,4.52
					c-5.01,2.54-10.03,5.25-14.92,8.07C2736.67,1148.99,2736.09,1149.14,2735.52,1149.14z M3046.73,1148.96
					c-0.57,0-1.15-0.14-1.68-0.45c-4.87-2.81-9.9-5.52-14.92-8.06c-1.66-0.84-2.33-2.86-1.49-4.52c0.84-1.66,2.86-2.33,4.52-1.49
					c5.14,2.59,10.27,5.36,15.25,8.23c1.61,0.93,2.17,2.99,1.24,4.6C3049.03,1148.35,3047.9,1148.96,3046.73,1148.96z
					 M2766.12,1133.65c-1.29,0-2.53-0.75-3.08-2.01c-0.75-1.7,0.02-3.69,1.73-4.44c5.27-2.32,10.67-4.52,16.05-6.55
					c1.74-0.65,3.68,0.23,4.33,1.96c0.66,1.74-0.22,3.68-1.96,4.34c-5.27,1.98-10.55,4.14-15.71,6.41
					C2767.03,1133.56,2766.57,1133.65,2766.12,1133.65z M3016.13,1133.52c-0.45,0-0.91-0.09-1.35-0.28
					c-5.14-2.25-10.43-4.39-15.72-6.37c-1.74-0.65-2.62-2.59-1.97-4.33c0.65-1.74,2.57-2.63,4.33-1.97
					c5.41,2.02,10.81,4.21,16.06,6.51c1.7,0.75,2.48,2.73,1.73,4.43C3018.66,1132.76,3017.43,1133.52,3016.13,1133.52z
					 M2798.2,1121.57c-1.43,0-2.76-0.92-3.21-2.36c-0.56-1.77,0.43-3.66,2.2-4.22c5.48-1.73,11.1-3.33,16.68-4.75
					c1.8-0.46,3.63,0.63,4.09,2.43c0.46,1.8-0.63,3.63-2.43,4.09c-5.46,1.39-10.95,2.95-16.31,4.64
					C2798.88,1121.52,2798.54,1121.57,2798.2,1121.57z M2984.01,1121.51c-0.33,0-0.67-0.05-1.01-0.15
					c-5.36-1.68-10.85-3.23-16.32-4.62c-1.8-0.46-2.89-2.29-2.44-4.09c0.46-1.81,2.29-2.89,4.09-2.43
					c5.59,1.42,11.21,3.01,16.68,4.72c1.77,0.56,2.76,2.44,2.2,4.22C2986.77,1120.59,2985.45,1121.51,2984.01,1121.51z
					 M2831.43,1113.1c-1.58,0-2.98-1.11-3.3-2.72c-0.36-1.82,0.83-3.59,2.65-3.95c5.65-1.11,11.41-2.08,17.1-2.87
					c1.85-0.27,3.54,1.03,3.8,2.87c0.26,1.84-1.03,3.54-2.87,3.8c-5.57,0.78-11.2,1.72-16.73,2.81
					C2831.86,1113.08,2831.64,1113.1,2831.43,1113.1z M2950.78,1113.09c-0.21,0-0.43-0.02-0.65-0.06
					c-5.54-1.08-11.17-2.03-16.74-2.8c-1.84-0.25-3.12-1.96-2.87-3.8c0.26-1.84,1.96-3.14,3.8-2.87c5.69,0.79,11.45,1.75,17.1,2.86
					c1.82,0.36,3.01,2.12,2.66,3.95C2953.77,1111.98,2952.36,1113.09,2950.78,1113.09z M2916.81,1108.36c-0.09,0-0.19,0-0.28-0.01
					c-5.6-0.47-11.3-0.78-16.94-0.94c-1.86-0.05-3.32-1.6-3.27-3.46c0.05-1.86,1.72-3.34,3.46-3.27c5.77,0.16,11.59,0.48,17.32,0.96
					c1.85,0.15,3.23,1.78,3.07,3.63C2920.02,1107.04,2918.54,1108.36,2916.81,1108.36z M2865.39,1108.36c-1.73,0-3.2-1.33-3.35-3.09
					c-0.15-1.85,1.22-3.48,3.07-3.63c5.74-0.48,11.57-0.8,17.31-0.96c1.75-0.07,3.4,1.41,3.46,3.27c0.05,1.86-1.42,3.4-3.27,3.46
					c-5.62,0.15-11.32,0.47-16.94,0.94C2865.58,1108.35,2865.48,1108.36,2865.39,1108.36z"/>
				<linearGradient id="SVGID_43_" gradientUnits="userSpaceOnUse" x1="3196.1421" y1="1453.5581" x2="3203.9214" y2="1453.5581">
					<stop  offset="0" style="stop-color:#4F52FF"/>
					<stop  offset="1" style="stop-color:#4042E2"/>
				</linearGradient>
				<path class="st57" d="M3199.51,1461.09c-0.15,0-0.31-0.01-0.47-0.03c-1.84-0.26-3.12-1.96-2.87-3.8
					c0.38-2.74,0.73-5.49,1.03-8.25c0.21-1.85,1.85-3.18,3.72-2.97c1.85,0.21,3.18,1.87,2.97,3.72c-0.32,2.82-0.67,5.63-1.06,8.43
					C3202.61,1459.88,3201.16,1461.09,3199.51,1461.09z"/>
			</g>
			<g>
				<linearGradient id="SVGID_44_" gradientUnits="userSpaceOnUse" x1="2618.292" y1="1416.3287" x2="3159.0544" y2="1416.3287">
					<stop  offset="0" style="stop-color:#4F52FF"/>
					<stop  offset="1" style="stop-color:#4042E2"/>
				</linearGradient>
				<path class="st58" d="M3158.76,1487.36c0.67-1.72,0.17-3.68-1.24-4.87l-40.21-34.05c3.45-24.36,3.03-49.45-1.62-74.34
					l38.64-35.77c1.36-1.25,1.76-3.23,1.02-4.92l-25.47-57.84c-0.75-1.69-2.48-2.72-4.32-2.57l-52.47,4.35
					c-15.22-20.23-33.45-37.48-53.75-51.38l2.03-52.65c0.07-1.85-1.04-3.53-2.76-4.2l-58.91-22.89c-1.72-0.67-3.68-0.17-4.87,1.24
					l-34.05,40.21c-24.36-3.45-49.45-3.03-74.34,1.62l-35.77-38.64c-1.25-1.36-3.23-1.77-4.92-1.02l-57.84,25.47
					c-1.69,0.74-2.72,2.48-2.57,4.32l4.35,52.47c-20.24,15.22-37.48,33.45-51.38,53.75l-52.65-2.03c-1.84-0.07-3.53,1.04-4.2,2.76
					l-22.89,58.91c-0.67,1.72-0.17,3.68,1.24,4.87l40.21,34.05c-3.45,24.36-3.03,49.45,1.62,74.34l-38.64,35.77
					c-1.35,1.25-1.76,3.23-1.02,4.92l25.47,57.84c0.74,1.69,2.48,2.72,4.32,2.57l52.47-4.35c15.22,20.24,33.45,37.48,53.75,51.38
					l-2.03,52.65c-0.07,1.85,1.04,3.53,2.76,4.2l58.91,22.89c1.72,0.67,3.68,0.17,4.87-1.24l34.05-40.21
					c24.36,3.45,49.45,3.03,74.34-1.62l35.77,38.64c1.25,1.35,3.23,1.77,4.92,1.02l57.84-25.47c1.69-0.74,2.72-2.48,2.57-4.32
					l-4.35-52.47c20.23-15.22,37.48-33.45,51.38-53.75l52.65,2.03c1.85,0.07,3.53-1.04,4.2-2.76L3158.76,1487.36z"/>
				<path class="st2" d="M2888.74,1475.78c-17.72,0-35.27-7.86-46.98-22.89c-20.16-25.87-15.52-63.32,10.34-83.48
					c12.53-9.76,28.13-14.07,43.88-12.12c15.77,1.95,29.83,9.93,39.6,22.46l0,0c9.77,12.53,14.07,28.11,12.12,43.88
					c-1.96,15.77-9.93,29.83-22.46,39.6C2914.4,1471.69,2901.53,1475.78,2888.74,1475.78z M2888.57,1363.57
					c-11.68,0-22.96,3.86-32.32,11.15c-22.94,17.88-27.06,51.09-9.17,74.04c17.89,22.94,51.1,27.05,74.03,9.17
					c11.11-8.66,18.19-21.13,19.92-35.12s-2.08-27.8-10.75-38.92l0,0c-8.66-11.11-21.13-18.19-35.11-19.92
					C2892.96,1363.71,2890.75,1363.57,2888.57,1363.57z"/>
				<path class="st2" d="M2887.61,1571.8c-59.94,0-117.19-34.75-142.86-93.03c-8.97-20.37-13.22-41.65-13.22-62.61
					c0.01-59.93,34.76-117.18,93.04-142.85c38.1-16.78,80.46-17.72,119.26-2.64c38.8,15.08,69.42,44.36,86.2,82.46
					c4.48,10.17,7.87,20.8,10.09,31.61c0.05,0.23,0.07,0.45,0.07,0.68c0,1.56-1.09,2.97-2.69,3.29c-1.81,0.38-3.6-0.8-3.97-2.62
					c-2.13-10.34-5.38-20.52-9.66-30.25v0c-0.96-2.17-1.96-4.31-3.01-6.42c-0.01-0.01-0.01-0.01-0.01-0.02
					c-0.04-0.08-0.08-0.15-0.11-0.23c-0.01-0.01-0.02-0.03-0.02-0.05c0,0,0-0.01-0.01-0.01c0,0,0-0.01,0-0.01
					c-0.01-0.02-0.02-0.03-0.03-0.05c-16.58-33.14-44.49-58.59-79.28-72.1c-37.14-14.43-77.65-13.53-114.11,2.53
					c-55.76,24.56-89.01,79.34-89.02,136.68c0,20.05,4.06,40.41,12.64,59.9c33.15,75.25,121.34,109.51,196.58,76.37
					c24.74-10.9,46.03-28.26,61.56-50.2c1.07-1.52,3.17-1.88,4.69-0.8c0.93,0.66,1.42,1.7,1.42,2.75c0,0.67-0.2,1.35-0.62,1.94
					c-16.24,22.94-38.49,41.09-64.34,52.47C2929.83,1567.55,2908.56,1571.8,2887.61,1571.8z"/>
			</g>
		</g>
		<g>
			<g class="st51">
				<linearGradient id="SVGID_45_" gradientUnits="userSpaceOnUse" x1="2654.7402" y1="1245.2892" x2="2667.4216" y2="1245.2892">
					<stop  offset="0" style="stop-color:#4F52FF"/>
					<stop  offset="1" style="stop-color:#4042E2"/>
				</linearGradient>
				<path class="st59" d="M2658.11,1251.62c-0.88,0-1.76-0.35-2.42-1.03c-1.29-1.34-1.25-3.47,0.09-4.76
					c1.99-1.92,3.95-3.88,5.87-5.86c1.29-1.34,3.42-1.37,4.76-0.08c1.33,1.29,1.37,3.42,0.07,4.76c-1.97,2.04-3.98,4.04-6.03,6.02
					C2659.79,1251.31,2658.95,1251.62,2658.11,1251.62z"/>
				<linearGradient id="SVGID_46_" gradientUnits="userSpaceOnUse" x1="2233.2488" y1="1195.0469" x2="2648.822" y2="1195.0469">
					<stop  offset="0" style="stop-color:#4F52FF"/>
					<stop  offset="1" style="stop-color:#4042E2"/>
				</linearGradient>
				<path class="st60" d="M2485.55,1321.35c-4.56,0-9.18-0.13-13.73-0.37c-1.86-0.1-3.28-1.69-3.17-3.54
					c0.1-1.86,1.67-3.28,3.54-3.18c5.55,0.3,11.16,0.42,16.78,0.34h0.05c1.84,0,3.34,1.48,3.36,3.32c0.03,1.86-1.46,3.39-3.32,3.41
					C2487.9,1321.34,2486.72,1321.35,2485.55,1321.35z M2506.02,1320.5c-1.73,0-3.2-1.33-3.35-3.09c-0.15-1.85,1.22-3.48,3.07-3.63
					c5.56-0.46,11.17-1.12,16.67-1.97c1.85-0.29,3.56,0.98,3.83,2.82c0.28,1.84-0.98,3.55-2.82,3.83
					c-5.66,0.87-11.42,1.55-17.13,2.02C2506.21,1320.5,2506.11,1320.5,2506.02,1320.5z M2455.06,1319.47
					c-0.14,0-0.28-0.01-0.42-0.03c-5.69-0.7-11.42-1.61-17.03-2.7c-1.82-0.35-3.02-2.12-2.66-3.94c0.35-1.82,2.11-3.01,3.94-2.66
					c5.46,1.06,11.04,1.94,16.58,2.63c1.84,0.23,3.15,1.91,2.92,3.75C2458.18,1318.22,2456.73,1319.47,2455.06,1319.47z
					 M2539.66,1315.35c-1.54,0-2.93-1.06-3.28-2.63c-0.41-1.81,0.73-3.61,2.55-4.02c5.44-1.22,10.91-2.65,16.24-4.24
					c1.8-0.53,3.66,0.49,4.19,2.26c0.53,1.78-0.48,3.66-2.26,4.19c-5.48,1.63-11.1,3.1-16.7,4.36
					C2540.15,1315.32,2539.9,1315.35,2539.66,1315.35z M2421.66,1313c-0.29,0-0.58-0.04-0.87-0.11c-5.52-1.46-11.07-3.14-16.51-4.99
					c-1.76-0.6-2.7-2.51-2.11-4.27c0.6-1.76,2.51-2.7,4.27-2.1c5.29,1.8,10.7,3.43,16.07,4.86c1.79,0.48,2.87,2.32,2.39,4.11
					C2424.51,1312,2423.15,1313,2421.66,1313z M2572.27,1305.64c-1.36,0-2.65-0.84-3.15-2.19c-0.65-1.74,0.23-3.68,1.97-4.33
					c5.21-1.95,10.43-4.11,15.52-6.41c1.7-0.77,3.69-0.02,4.46,1.67c0.77,1.69,0.02,3.69-1.68,4.45
					c-5.23,2.37-10.59,4.59-15.94,6.59C2573.06,1305.57,2572.66,1305.64,2572.27,1305.64z M2389.46,1302.05
					c-0.43,0-0.87-0.08-1.3-0.26c-5.27-2.2-10.54-4.62-15.68-7.18c-1.66-0.83-2.34-2.85-1.5-4.51c0.83-1.66,2.85-2.34,4.51-1.51
					c5,2.5,10.13,4.85,15.26,6.99c1.72,0.72,2.52,2.69,1.81,4.4C2392.02,1301.28,2390.77,1302.05,2389.46,1302.05z M2603.26,1291.59
					c-1.2,0-2.36-0.64-2.97-1.77c-0.88-1.64-0.27-3.68,1.37-4.56c4.91-2.64,9.79-5.48,14.51-8.44c1.57-0.99,3.65-0.51,4.64,1.06
					c0.99,1.57,0.52,3.65-1.06,4.64c-4.85,3.05-9.86,5.97-14.91,8.67C2604.34,1291.46,2603.79,1291.59,2603.26,1291.59z
					 M2359.03,1286.84c-0.58,0-1.17-0.15-1.7-0.46c-4.95-2.91-9.84-6.02-14.56-9.25c-1.53-1.05-1.93-3.14-0.88-4.68
					c1.05-1.53,3.14-1.93,4.68-0.88c4.59,3.14,9.36,6.17,14.17,9c1.6,0.94,2.14,3.01,1.2,4.61
					C2361.31,1286.25,2360.18,1286.84,2359.03,1286.84z M2632.06,1273.49c-1.04,0-2.06-0.48-2.72-1.39c-1.09-1.5-0.76-3.61,0.74-4.7
					c4.51-3.28,8.95-6.76,13.22-10.34c1.43-1.2,3.55-1,4.74,0.41c1.2,1.42,1.01,3.55-0.41,4.74c-4.38,3.68-8.95,7.26-13.58,10.63
					C2633.44,1273.28,2632.74,1273.49,2632.06,1273.49z M2330.96,1267.63c-0.73,0-1.47-0.24-2.08-0.72
					c-4.51-3.56-8.93-7.32-13.16-11.16c-1.37-1.25-1.48-3.38-0.23-4.75c1.25-1.37,3.38-1.47,4.75-0.23
					c4.11,3.73,8.42,7.39,12.8,10.85c1.46,1.15,1.71,3.27,0.55,4.73C2332.94,1267.19,2331.96,1267.63,2330.96,1267.63z
					 M2305.8,1244.75c-0.88,0-1.77-0.35-2.43-1.04c-3.96-4.13-7.83-8.45-11.5-12.85c-1.19-1.43-1-3.55,0.43-4.74
					c1.44-1.19,3.55-0.99,4.74,0.43c3.57,4.28,7.33,8.49,11.18,12.51c1.29,1.34,1.24,3.47-0.1,4.76
					C2307.48,1244.44,2306.64,1244.75,2305.8,1244.75z M2284.02,1218.64c-1.04,0-2.07-0.48-2.73-1.39
					c-3.35-4.62-6.58-9.44-9.62-14.31c-0.98-1.58-0.5-3.65,1.07-4.64c1.57-0.99,3.65-0.5,4.64,1.07c2.96,4.74,6.11,9.43,9.37,13.93
					c1.09,1.51,0.75,3.61-0.76,4.7C2285.39,1218.43,2284.7,1218.64,2284.02,1218.64z M2266.01,1189.79c-1.2,0-2.37-0.65-2.97-1.78
					c-1.72-3.23-3.4-6.56-5-9.89c-0.89-1.86-1.75-3.72-2.6-5.59c-0.77-1.69-0.01-3.69,1.68-4.45c1.7-0.77,3.69-0.01,4.45,1.68
					c0.82,1.82,1.67,3.64,2.53,5.45c1.55,3.24,3.19,6.49,4.87,9.63c0.87,1.64,0.25,3.68-1.39,4.55
					C2267.08,1189.66,2266.54,1189.79,2266.01,1189.79z M2252.05,1158.76c-1.37,0-2.65-0.84-3.15-2.2
					c-1.99-5.38-3.82-10.88-5.44-16.37c-0.53-1.78,0.49-3.65,2.28-4.18c1.79-0.52,3.65,0.5,4.18,2.28
					c1.57,5.34,3.35,10.7,5.29,15.94c0.65,1.74-0.24,3.68-1.98,4.32C2252.84,1158.69,2252.44,1158.76,2252.05,1158.76z
					 M2242.43,1126.12c-1.54,0-2.93-1.07-3.28-2.64c-1.23-5.56-2.29-11.27-3.15-16.96c-0.28-1.84,0.99-3.55,2.83-3.83
					c1.83-0.29,3.55,0.99,3.83,2.83c0.83,5.54,1.86,11.1,3.06,16.51c0.4,1.82-0.75,3.61-2.56,4.01
					C2242.92,1126.1,2242.67,1126.12,2242.43,1126.12z M2237.39,1092.48c-1.74,0-3.21-1.34-3.35-3.1
					c-0.45-5.69-0.72-11.49-0.79-17.23c-0.02-1.86,1.47-3.38,3.33-3.4c1.83,0.02,3.38,1.47,3.4,3.33
					c0.07,5.59,0.32,11.23,0.77,16.77c0.15,1.85-1.24,3.47-3.09,3.62C2237.57,1092.48,2237.47,1092.48,2237.39,1092.48z"/>
				<linearGradient id="SVGID_47_" gradientUnits="userSpaceOnUse" x1="2233.6538" y1="1050.8" x2="2241.0146" y2="1050.8">
					<stop  offset="0" style="stop-color:#4F52FF"/>
					<stop  offset="1" style="stop-color:#4042E2"/>
				</linearGradient>
				<path class="st61" d="M2237.02,1058.36c-0.07,0-0.13,0-0.2-0.01c-1.86-0.11-3.27-1.7-3.16-3.56c0.16-2.84,0.38-5.67,0.64-8.49
					c0.17-1.85,1.79-3.2,3.66-3.04c1.85,0.17,3.21,1.81,3.04,3.66c-0.25,2.75-0.46,5.51-0.62,8.27
					C2240.27,1056.97,2238.79,1058.36,2237.02,1058.36z"/>
			</g>
			<g class="st51">
				<linearGradient id="SVGID_48_" gradientUnits="userSpaceOnUse" x1="2318.6018" y1="878.9079" x2="2331.7686" y2="878.9079">
					<stop  offset="0" style="stop-color:#4F52FF"/>
					<stop  offset="1" style="stop-color:#4042E2"/>
				</linearGradient>
				<path class="st62" d="M2321.97,884.98c-0.94,0-1.87-0.39-2.54-1.16c-1.22-1.4-1.07-3.53,0.33-4.75
					c2.14-1.86,4.31-3.69,6.53-5.48c1.44-1.17,3.57-0.95,4.73,0.49c1.17,1.44,0.95,3.56-0.49,4.73c-2.15,1.75-4.27,3.53-6.35,5.34
					C2323.54,884.71,2322.75,884.98,2321.97,884.98z"/>
				<linearGradient id="SVGID_49_" gradientUnits="userSpaceOnUse" x1="2338.3906" y1="949.2723" x2="2737.5215" y2="949.2723">
					<stop  offset="0" style="stop-color:#4F52FF"/>
					<stop  offset="1" style="stop-color:#4042E2"/>
				</linearGradient>
				<path class="st63" d="M2734,1081.47c-0.04,0-0.08,0-0.12,0c-1.86-0.07-3.31-1.63-3.24-3.48c0.11-2.98,0.16-5.97,0.16-8.95
					c0-2.52-0.04-5.05-0.12-7.57c-0.06-1.86,1.4-3.41,3.26-3.47c1.92-0.03,3.41,1.4,3.47,3.26c0.08,2.59,0.12,5.19,0.12,7.78
					c0,3.07-0.06,6.13-0.17,9.19C2737.29,1080.05,2735.8,1081.47,2734,1081.47z M2732.95,1048.01c-1.71,0-3.17-1.3-3.35-3.03
					c-0.54-5.44-1.27-10.95-2.19-16.38c-0.31-1.83,0.93-3.57,2.76-3.88c1.85-0.31,3.57,0.93,3.88,2.76
					c0.94,5.57,1.69,11.24,2.25,16.83c0.18,1.85-1.17,3.5-3.02,3.68C2733.17,1048.01,2733.06,1048.01,2732.95,1048.01z
					 M2727.39,1015c-1.52,0-2.9-1.04-3.27-2.58c-1.28-5.33-2.75-10.69-4.38-15.93c-0.55-1.77,0.44-3.66,2.21-4.21
					c1.77-0.56,3.66,0.44,4.21,2.21c1.68,5.39,3.19,10.89,4.5,16.37c0.43,1.81-0.68,3.62-2.49,4.05
					C2727.91,1014.97,2727.65,1015,2727.39,1015z M2717.44,983.04c-1.35,0-2.62-0.82-3.14-2.15c-1.97-5.09-4.15-10.21-6.48-15.2
					c-0.79-1.68-0.06-3.69,1.63-4.47c1.68-0.79,3.69-0.05,4.47,1.63c2.39,5.13,4.63,10.39,6.65,15.62c0.67,1.73-0.19,3.68-1.93,4.35
					C2718.25,982.96,2717.84,983.04,2717.44,983.04z M2703.31,952.68c-1.19,0-2.34-0.63-2.95-1.74c-2.66-4.85-5.5-9.63-8.44-14.21
					c-1-1.57-0.54-3.65,1.02-4.65c1.57-1,3.64-0.55,4.65,1.02c3.01,4.71,5.92,9.62,8.66,14.59c0.9,1.63,0.3,3.68-1.33,4.57
					C2704.42,952.55,2703.86,952.68,2703.31,952.68z M2685.27,924.48c-1.03,0-2.05-0.47-2.71-1.36c-3.27-4.43-6.73-8.78-10.26-12.94
					c-1.21-1.42-1.03-3.54,0.38-4.74c1.41-1.2,3.54-1.03,4.74,0.39c3.63,4.28,7.18,8.75,10.54,13.3c1.11,1.5,0.79,3.6-0.7,4.71
					C2686.67,924.27,2685.96,924.48,2685.27,924.48z M2663.6,898.98c-0.88,0-1.75-0.34-2.41-1.02c-3.82-3.93-7.83-7.77-11.92-11.43
					c-1.38-1.24-1.5-3.37-0.26-4.75c1.24-1.38,3.37-1.5,4.75-0.26c4.19,3.76,8.31,7.71,12.24,11.75c1.29,1.33,1.27,3.46-0.07,4.76
					C2665.3,898.66,2664.45,898.98,2663.6,898.98z M2638.68,876.64c-0.72,0-1.45-0.23-2.07-0.71c-4.31-3.37-8.8-6.64-13.35-9.72
					c-1.54-1.04-1.94-3.13-0.9-4.67c1.04-1.54,3.14-1.94,4.67-0.9c4.68,3.17,9.29,6.53,13.72,9.99c1.46,1.15,1.72,3.26,0.58,4.72
					C2640.67,876.2,2639.68,876.64,2638.68,876.64z M2341.76,869.46c-1.06,0-2.1-0.5-2.75-1.43c-1.07-1.52-0.71-3.62,0.81-4.69
					c4.59-3.23,9.36-6.36,14.19-9.31c1.58-0.97,3.65-0.46,4.62,1.12c0.97,1.59,0.47,3.66-1.12,4.63c-4.7,2.87-9.35,5.91-13.81,9.06
					C2343.11,869.26,2342.43,869.46,2341.76,869.46z M2610.97,857.86c-0.58,0-1.16-0.15-1.69-0.46c-4.74-2.76-9.62-5.4-14.54-7.85
					c-1.66-0.83-2.34-2.85-1.51-4.51c0.83-1.66,2.84-2.34,4.51-1.51c5.05,2.51,10.07,5.22,14.93,8.06c1.61,0.94,2.15,3,1.21,4.6
					C2613.26,857.27,2612.13,857.86,2610.97,857.86z M2370.35,852.05c-1.22,0-2.39-0.66-2.99-1.81c-0.86-1.65-0.22-3.68,1.43-4.54
					c2.53-1.32,5.09-2.6,7.68-3.84c2.53-1.21,5.07-2.38,7.62-3.5c1.71-0.75,3.69,0.03,4.44,1.73c0.75,1.7-0.03,3.69-1.73,4.43
					c-2.48,1.09-4.96,2.23-7.42,3.41c-2.52,1.21-5.01,2.46-7.48,3.74C2371.4,851.93,2370.87,852.05,2370.35,852.05z M2581,842.97
					c-0.43,0-0.87-0.08-1.29-0.26c-5.06-2.11-10.26-4.07-15.46-5.83c-1.76-0.6-2.7-2.51-2.11-4.27c0.59-1.76,2.51-2.7,4.27-2.1
					c5.34,1.81,10.68,3.83,15.88,5.99c1.72,0.71,2.53,2.68,1.81,4.4C2583.57,842.19,2582.32,842.97,2581,842.97z M2401,838.58
					c-1.38,0-2.67-0.85-3.16-2.22c-0.63-1.75,0.27-3.68,2.02-4.31c5.3-1.92,10.74-3.68,16.15-5.24c1.79-0.52,3.65,0.52,4.16,2.3
					c0.51,1.79-0.52,3.65-2.3,4.16c-5.27,1.52-10.55,3.23-15.72,5.1C2401.76,838.51,2401.38,838.58,2401,838.58z M2549.31,832.2
					c-0.29,0-0.58-0.04-0.87-0.11c-5.3-1.41-10.71-2.66-16.09-3.72c-1.82-0.36-3.01-2.13-2.66-3.95c0.36-1.82,2.09-3.01,3.95-2.66
					c5.53,1.08,11.09,2.37,16.54,3.82c1.79,0.48,2.86,2.32,2.38,4.12C2552.16,831.21,2550.79,832.2,2549.31,832.2z M2433.18,829.33
					c-1.55,0-2.95-1.08-3.29-2.66c-0.39-1.82,0.77-3.61,2.58-4c5.51-1.19,11.13-2.2,16.71-3.01c1.82-0.26,3.54,1.01,3.81,2.85
					s-1.01,3.55-2.85,3.82c-5.43,0.79-10.89,1.77-16.26,2.93C2433.65,829.3,2433.41,829.33,2433.18,829.33z M2516.46,825.77
					c-0.14,0-0.28-0.01-0.43-0.03c-5.45-0.69-10.99-1.21-16.45-1.53c-1.86-0.11-3.27-1.7-3.16-3.56c0.11-1.85,1.7-3.29,3.56-3.16
					c5.61,0.33,11.3,0.86,16.9,1.57c1.84,0.23,3.15,1.92,2.91,3.76C2519.58,824.53,2518.13,825.77,2516.46,825.77z M2466.31,824.51
					c-1.74,0-3.22-1.34-3.35-3.11c-0.14-1.85,1.25-3.47,3.1-3.61c5.62-0.43,11.32-0.67,16.96-0.72h0.03c1.85,0,3.35,1.49,3.36,3.34
					c0.02,1.86-1.48,3.38-3.34,3.39c-5.49,0.05-11.04,0.29-16.51,0.7C2466.48,824.51,2466.39,824.51,2466.31,824.51z"/>
				<linearGradient id="SVGID_50_" gradientUnits="userSpaceOnUse" x1="2728.4197" y1="1099.0798" x2="2736.1667" y2="1099.0798">
					<stop  offset="0" style="stop-color:#4F52FF"/>
					<stop  offset="1" style="stop-color:#4042E2"/>
				</linearGradient>
				<path class="st64" d="M2731.79,1106.62c-0.15,0-0.31-0.01-0.47-0.03c-1.84-0.26-3.12-1.96-2.87-3.8
					c0.38-2.74,0.72-5.48,1.01-8.23c0.19-1.85,1.78-3.18,3.7-3c1.85,0.19,3.19,1.85,2.99,3.7c-0.3,2.83-0.64,5.65-1.03,8.45
					C2734.88,1105.4,2733.44,1106.62,2731.79,1106.62z"/>
			</g>
			<g>
				<linearGradient id="SVGID_51_" gradientUnits="userSpaceOnUse" x1="2267.1626" y1="1070.1566" x2="2699.4456" y2="1070.1566">
					<stop  offset="0" style="stop-color:#4F52FF"/>
					<stop  offset="1" style="stop-color:#4042E2"/>
				</linearGradient>
				<path class="st65" d="M2699.21,1126.94c0.53-1.38,0.14-2.94-0.99-3.89l-32.14-27.22c2.75-19.48,2.42-39.53-1.3-59.43
					l30.89-28.59c1.08-1,1.41-2.58,0.82-3.93l-20.36-46.23c-0.6-1.35-1.98-2.18-3.45-2.05l-41.95,3.48
					c-12.17-16.18-26.74-29.96-42.97-41.07l1.62-42.09c0.06-1.48-0.83-2.82-2.2-3.36l-47.09-18.29c-1.38-0.53-2.94-0.14-3.89,0.99
					l-27.22,32.14c-19.47-2.75-39.53-2.42-59.43,1.3l-28.6-30.89c-1-1.08-2.58-1.41-3.93-0.82l-46.23,20.36
					c-1.35,0.6-2.18,1.98-2.05,3.45l3.48,41.95c-16.18,12.17-29.96,26.74-41.07,42.97l-42.09-1.62c-1.47-0.06-2.82,0.83-3.36,2.2
					l-18.29,47.09c-0.54,1.38-0.14,2.94,0.99,3.89l32.14,27.22c-2.75,19.47-2.42,39.53,1.3,59.43l-30.89,28.6
					c-1.08,1-1.41,2.58-0.82,3.93l20.36,46.23c0.59,1.35,1.98,2.18,3.45,2.05l41.95-3.48c12.17,16.18,26.74,29.96,42.97,41.08
					l-1.62,42.09c-0.06,1.48,0.83,2.82,2.2,3.36l47.09,18.29c1.38,0.53,2.94,0.14,3.89-0.99l27.22-32.14
					c19.48,2.75,39.53,2.42,59.43-1.3l28.6,30.89c1,1.08,2.58,1.41,3.93,0.82l46.23-20.36c1.35-0.59,2.18-1.98,2.05-3.45
					l-3.48-41.95c16.17-12.17,29.96-26.74,41.07-42.96l42.09,1.62c1.48,0.06,2.82-0.83,3.36-2.2L2699.21,1126.94z"/>
				<path class="st2" d="M2483.4,1118.39c-2,0-4.01-0.12-6.03-0.37c-12.78-1.58-24.18-8.05-32.1-18.21
					c-7.92-10.16-11.41-22.79-9.83-35.58c1.58-12.78,8.05-24.18,18.21-32.1c10.16-7.92,22.78-11.41,35.58-9.83
					c12.78,1.58,24.19,8.05,32.1,18.21l0,0c16.34,20.97,12.59,51.33-8.39,67.68C2504.4,1114.86,2494.08,1118.39,2483.4,1118.39z
					 M2483.22,1028.66c-9.19,0-18.06,3.04-25.43,8.78c-8.74,6.81-14.31,16.62-15.67,27.62c-1.36,11,1.64,21.87,8.46,30.61
					c6.81,8.74,16.62,14.31,27.62,15.67c11.01,1.37,21.87-1.64,30.61-8.45c8.74-6.81,14.31-16.62,15.67-27.62
					c1.36-11-1.64-21.87-8.45-30.61l0,0c-6.81-8.74-16.62-14.31-27.62-15.67C2486.67,1028.76,2484.94,1028.66,2483.22,1028.66z"/>
				<path class="st2" d="M2482.45,1195.12c-48.17,0-94.19-27.93-114.82-74.78c-7.21-16.37-10.62-33.48-10.62-50.32
					c0.01-48.17,27.94-94.18,74.78-114.81c30.62-13.49,64.66-14.24,95.85-2.12c31.19,12.12,55.79,35.65,69.28,66.28l0,0
					c3.33,7.57,5.92,15.45,7.7,23.46c0.14,0.65,0.28,1.29,0.41,1.94c0.05,0.23,0.07,0.46,0.07,0.68c0,1.56-1.09,2.97-2.69,3.29
					c-1.81,0.38-3.6-0.8-3.97-2.62c-1.69-8.21-4.27-16.3-7.68-24.05l0,0c-12.05-27.35-33.46-48.72-60.65-60.68
					c-1.62-0.71-3.25-1.39-4.91-2.03c-29.51-11.46-61.72-10.75-90.7,2.01c-44.32,19.52-70.76,63.06-70.76,108.64
					c0,15.94,3.23,32.12,10.05,47.62c26.35,59.82,96.45,87.04,156.26,60.71c19.67-8.66,36.59-22.46,48.93-39.91
					c1.07-1.51,3.18-1.88,4.69-0.8c0.93,0.66,1.42,1.7,1.42,2.75c0,0.67-0.2,1.35-0.62,1.94c-13.05,18.44-30.93,33.02-51.71,42.18
					C2516.39,1191.7,2499.29,1195.11,2482.45,1195.12z"/>
			</g>
		</g>
	</g>
</g>
</svg>
